font.ufo
<glyph name="exclam" format="1">
  <advance width="600"/>
  <unicode hex="0021"/>
  <outline>
    <contour>
      <point x="245" y="255" type="line"/>
      <point x="335" y="255" type="line"/>
      <point x="417" y="537" type="line"/>
      <point x="444" y="670" type="line"/>
      <point x="303" y="670" type="line"/>
      <point x="281" y="537" type="line"/>
    </contour>
    <contour>
      <point x="246" y="-12" type="curve" smooth="yes"/>
      <point x="310" y="-12"/>
      <point x="354" y="38"/>
      <point x="354" y="99" type="curve" smooth="yes"/>
      <point x="354" y="147"/>
      <point x="322" y="181"/>
      <point x="276" y="181" type="curve" smooth="yes"/>
      <point x="213" y="181"/>
      <point x="168" y="131"/>
      <point x="168" y="70" type="curve" smooth="yes"/>
      <point x="168" y="22"/>
      <point x="200" y="-12"/>
    </contour>
  </outline>
</glyph>
<glyph name="numbersign" format="1">
  <advance width="600"/>
  <unicode hex="0023"/>
  <outline>
    <contour>
      <point x="61" y="0" type="line"/>
      <point x="141" y="0" type="line"/>
      <point x="344" y="650" type="line"/>
      <point x="265" y="650" type="line"/>
    </contour>
    <contour>
      <point x="258" y="0" type="line"/>
      <point x="337" y="0" type="line"/>
      <point x="532" y="650" type="line"/>
      <point x="453" y="650" type="line"/>
    </contour>
    <contour>
      <point x="105" y="402" type="line"/>
      <point x="542" y="402" type="line"/>
      <point x="563" y="481" type="line"/>
      <point x="125" y="481" type="line"/>
    </contour>
    <contour>
      <point x="47" y="190" type="line"/>
      <point x="485" y="190" type="line"/>
      <point x="505" y="269" type="line"/>
      <point x="68" y="269" type="line"/>
    </contour>
  </outline>
</glyph>
<glyph name="dollar" format="1">
  <advance width="600"/>
  <unicode hex="0024"/>
  <outline>
    <contour>
      <point x="267" y="34" type="curve" smooth="yes"/>
      <point x="396" y="34"/>
      <point x="500" y="90"/>
      <point x="500" y="212" type="curve" smooth="yes"/>
      <point x="500" y="301"/>
      <point x="431" y="340"/>
      <point x="349" y="378" type="curve" smooth="yes"/>
      <point x="288" y="406"/>
      <point x="251" y="427"/>
      <point x="251" y="460" type="curve" smooth="yes"/>
      <point x="251" y="494"/>
      <point x="282" y="509"/>
      <point x="322" y="509" type="curve" smooth="yes"/>
      <point x="377" y="509"/>
      <point x="418" y="487"/>
      <point x="456" y="445" type="curve"/>
      <point x="536" y="520" type="line"/>
      <point x="503" y="563"/>
      <point x="433" y="618"/>
      <point x="336" y="618" type="curve" smooth="yes"/>
      <point x="210" y="618"/>
      <point x="119" y="562"/>
      <point x="119" y="448" type="curve" smooth="yes"/>
      <point x="119" y="356"/>
      <point x="187" y="313"/>
      <point x="266" y="276" type="curve" smooth="yes"/>
      <point x="328" y="247"/>
      <point x="366" y="228"/>
      <point x="366" y="197" type="curve" smooth="yes"/>
      <point x="366" y="162"/>
      <point x="334" y="143"/>
      <point x="276" y="143" type="curve" smooth="yes"/>
      <point x="207" y="143"/>
      <point x="164" y="178"/>
      <point x="126" y="223" type="curve"/>
      <point x="44" y="140" type="line"/>
      <point x="87" y="87"/>
      <point x="162" y="34"/>
    </contour>
    <contour>
      <point x="301" y="575" type="line"/>
      <point x="391" y="575" type="line"/>
      <point x="424" y="746" type="line"/>
      <point x="333" y="746" type="line"/>
    </contour>
    <contour>
      <point x="172" y="-110" type="line"/>
      <point x="263" y="-110" type="line"/>
      <point x="302" y="88" type="line"/>
      <point x="212" y="88" type="line"/>
    </contour>
  </outline>
</glyph>
<glyph name="ampersand" format="1">
  <advance width="600"/>
  <unicode hex="0026"/>
  <outline>
    <contour>
      <point x="186" y="-12" type="curve" smooth="yes"/>
      <point x="281" y="-12"/>
      <point x="363" y="27"/>
      <point x="428" y="96" type="curve" smooth="yes"/>
      <point x="501" y="172"/>
      <point x="550" y="257"/>
      <point x="593" y="358" type="curve"/>
      <point x="473" y="358" type="line"/>
      <point x="441" y="281"/>
      <point x="406" y="211"/>
      <point x="347" y="156" type="curve" smooth="yes"/>
      <point x="302" y="115"/>
      <point x="254" y="92"/>
      <point x="210" y="92" type="curve" smooth="yes"/>
      <point x="165" y="92"/>
      <point x="137" y="121"/>
      <point x="137" y="164" type="curve" smooth="yes"/>
      <point x="137" y="305"/>
      <point x="454" y="326"/>
      <point x="454" y="533" type="curve" smooth="yes"/>
      <point x="454" y="612"/>
      <point x="406" y="664"/>
      <point x="320" y="664" type="curve" smooth="yes"/>
      <point x="202" y="664"/>
      <point x="125" y="576"/>
      <point x="125" y="469" type="curve" smooth="yes"/>
      <point x="125" y="341"/>
      <point x="218" y="179"/>
      <point x="336" y="79" type="curve" smooth="yes"/>
      <point x="390" y="33"/>
      <point x="452" y="1"/>
      <point x="510" y="-12" type="curve"/>
      <point x="564" y="96" type="line"/>
      <point x="528" y="105"/>
      <point x="475" y="126"/>
      <point x="431" y="161" type="curve" smooth="yes"/>
      <point x="331" y="238"/>
      <point x="238" y="364"/>
      <point x="238" y="473" type="curve" smooth="yes"/>
      <point x="238" y="535"/>
      <point x="271" y="573"/>
      <point x="312" y="573" type="curve" smooth="yes"/>
      <point x="334" y="573"/>
      <point x="347" y="558"/>
      <point x="347" y="534" type="curve" smooth="yes"/>
      <point x="347" y="382"/>
      <point x="5" y="372"/>
      <point x="5" y="150" type="curve" smooth="yes"/>
      <point x="5" y="53"/>
      <point x="73" y="-12"/>
    </contour>
  </outline>
</glyph>
<glyph name="parenleft" format="1">
  <advance width="600"/>
  <unicode hex="0028"/>
  <outline>
    <contour>
      <point x="309" y="-178" type="curve"/>
      <point x="399" y="-117" type="line"/>
      <point x="328" y="-35"/>
      <point x="290" y="70"/>
      <point x="290" y="186" type="curve" smooth="yes"/>
      <point x="290" y="370"/>
      <point x="365" y="528"/>
      <point x="553" y="664" type="curve"/>
      <point x="487" y="740" type="line"/>
      <point x="293" y="614"/>
      <point x="175" y="428"/>
      <point x="175" y="186" type="curve" smooth="yes"/>
      <point x="175" y="38"/>
      <point x="226" y="-91"/>
    </contour>
  </outline>
</glyph>
<glyph name="parenright" format="1">
  <advance width="600"/>
  <unicode hex="0029"/>
  <outline>
    <contour>
      <point x="103" y="-188" type="line"/>
      <point x="297" y="-62"/>
      <point x="413" y="125"/>
      <point x="413" y="366" type="curve" smooth="yes"/>
      <point x="413" y="514"/>
      <point x="361" y="644"/>
      <point x="278" y="731" type="curve"/>
      <point x="190" y="670" type="line"/>
      <point x="261" y="587"/>
      <point x="299" y="484"/>
      <point x="299" y="366" type="curve" smooth="yes"/>
      <point x="299" y="183"/>
      <point x="225" y="25"/>
      <point x="37" y="-111" type="curve"/>
    </contour>
  </outline>
</glyph>
<glyph name="asterisk" format="1">
  <advance width="600"/>
  <unicode hex="002A"/>
  <outline>
    <contour>
      <point x="142" y="98" type="line"/>
      <point x="288" y="235" type="line"/>
      <point x="382" y="90" type="line"/>
      <point x="448" y="129" type="line"/>
      <point x="378" y="288" type="line"/>
      <point x="544" y="362" type="line"/>
      <point x="524" y="429" type="line"/>
      <point x="364" y="383" type="line"/>
      <point x="383" y="553" type="line"/>
      <point x="311" y="553" type="line"/>
      <point x="263" y="385" type="line"/>
      <point x="114" y="430" type="line"/>
      <point x="80" y="369" type="line"/>
      <point x="212" y="295" type="line"/>
      <point x="90" y="142" type="line"/>
    </contour>
  </outline>
</glyph>
<glyph name="plus" format="1">
  <advance width="600"/>
  <unicode hex="002B"/>
  <outline>
    <contour>
      <point x="255" y="95" type="line"/>
      <point x="354" y="95" type="line"/>
      <point x="354" y="282" type="line"/>
      <point x="529" y="282" type="line"/>
      <point x="529" y="379" type="line"/>
      <point x="354" y="379" type="line"/>
      <point x="354" y="564" type="line"/>
      <point x="255" y="564" type="line"/>
      <point x="255" y="379" type="line"/>
      <point x="80" y="379" type="line"/>
      <point x="80" y="282" type="line"/>
      <point x="255" y="282" type="line"/>
    </contour>
  </outline>
</glyph>
<glyph name="comma" format="1">
  <advance width="600"/>
  <unicode hex="002C"/>
  <outline>
    <contour>
      <point x="104" y="-205" type="line"/>
      <point x="262" y="-171"/>
      <point x="373" y="-59"/>
      <point x="373" y="87" type="curve" smooth="yes"/>
      <point x="373" y="162"/>
      <point x="336" y="204"/>
      <point x="280" y="204" type="curve" smooth="yes"/>
      <point x="215" y="204"/>
      <point x="161" y="154"/>
      <point x="161" y="90" type="curve" smooth="yes"/>
      <point x="161" y="38"/>
      <point x="198" y="5"/>
      <point x="240" y="5" type="curve" smooth="yes"/>
      <point x="270" y="5"/>
      <point x="292" y="20"/>
      <point x="306" y="30" type="curve"/>
      <point x="274" y="120" type="line"/>
      <point x="255" y="14" type="line"/>
      <point x="241" y="-57"/>
      <point x="180" y="-108"/>
      <point x="90" y="-136" type="curve"/>
    </contour>
  </outline>
</glyph>
<glyph name="period" format="1">
  <advance width="600"/>
  <unicode hex="002E"/>
  <outline>
    <contour>
      <point x="241" y="-12" type="curve" smooth="yes"/>
      <point x="314" y="-12"/>
      <point x="366" y="46"/>
      <point x="366" y="115" type="curve" smooth="yes"/>
      <point x="366" y="170"/>
      <point x="330" y="211"/>
      <point x="276" y="211" type="curve" smooth="yes"/>
      <point x="203" y="211"/>
      <point x="152" y="153"/>
      <point x="152" y="83" type="curve" smooth="yes"/>
      <point x="152" y="29"/>
      <point x="187" y="-12"/>
    </contour>
  </outline>
</glyph>
<glyph name="zero" format="1">
  <advance width="600"/>
  <unicode hex="0030"/>
  <outline>
    <contour>
      <point x="255" y="-12" type="curve" smooth="yes"/>
      <point x="449" y="-12"/>
      <point x="563" y="182"/>
      <point x="563" y="395" type="curve" smooth="yes"/>
      <point x="563" y="549"/>
      <point x="478" y="647"/>
      <point x="348" y="647" type="curve" smooth="yes"/>
      <point x="155" y="647"/>
      <point x="41" y="453"/>
      <point x="41" y="240" type="curve" smooth="yes"/>
      <point x="41" y="86"/>
      <point x="126" y="-12"/>
    </contour>
    <contour>
      <point x="267" y="93" type="curve" smooth="yes"/>
      <point x="201" y="93"/>
      <point x="168" y="150"/>
      <point x="168" y="249" type="curve" smooth="yes"/>
      <point x="168" y="397"/>
      <point x="232" y="542"/>
      <point x="336" y="542" type="curve" smooth="yes"/>
      <point x="403" y="542"/>
      <point x="436" y="485"/>
      <point x="436" y="386" type="curve" smooth="yes"/>
      <point x="436" y="238"/>
      <point x="371" y="93"/>
    </contour>
    <contour>
      <point x="293" y="250" type="curve" smooth="yes"/>
      <point x="336" y="250"/>
      <point x="367" y="292"/>
      <point x="367" y="340" type="curve" smooth="yes"/>
      <point x="367" y="378"/>
      <point x="348" y="402"/>
      <point x="313" y="402" type="curve" smooth="yes"/>
      <point x="270" y="402"/>
      <point x="239" y="360"/>
      <point x="239" y="312" type="curve" smooth="yes"/>
      <point x="239" y="273"/>
      <point x="258" y="250"/>
    </contour>
  </outline>
</glyph>
<glyph name="one" format="1">
  <advance width="600"/>
  <unicode hex="0031"/>
  <outline>
    <contour>
      <point x="24" y="0" type="line"/>
      <point x="474" y="0" type="line"/>
      <point x="496" y="110" type="line"/>
      <point x="348" y="110" type="line"/>
      <point x="453" y="635" type="line"/>
      <point x="352" y="635" type="line"/>
      <point x="305" y="607"/>
      <point x="245" y="590"/>
      <point x="174" y="579" type="curve"/>
      <point x="157" y="493" type="line"/>
      <point x="288" y="493" type="line"/>
      <point x="211" y="110" type="line"/>
      <point x="47" y="110" type="line"/>
    </contour>
  </outline>
</glyph>
<glyph name="two" format="1">
  <advance width="600"/>
  <unicode hex="0032"/>
  <outline>
    <contour>
      <point x="17" y="0" type="line"/>
      <point x="487" y="0" type="line"/>
      <point x="509" y="115" type="line"/>
      <point x="366" y="115" type="line"/>
      <point x="329" y="115"/>
      <point x="283" y="115"/>
      <point x="243" y="112" type="curve"/>
      <point x="396" y="251"/>
      <point x="510" y="348"/>
      <point x="510" y="476" type="curve" smooth="yes"/>
      <point x="510" y="579"/>
      <point x="436" y="647"/>
      <point x="317" y="647" type="curve" smooth="yes"/>
      <point x="232" y="647"/>
      <point x="165" y="606"/>
      <point x="106" y="547" type="curve"/>
      <point x="172" y="467" type="line"/>
      <point x="217" y="513"/>
      <point x="259" y="539"/>
      <point x="299" y="539" type="curve" smooth="yes"/>
      <point x="350" y="539"/>
      <point x="377" y="509"/>
      <point x="377" y="462" type="curve" smooth="yes"/>
      <point x="377" y="352"/>
      <point x="239" y="246"/>
      <point x="33" y="78" type="curve"/>
    </contour>
  </outline>
</glyph>
<glyph name="three" format="1">
  <advance width="600"/>
  <unicode hex="0033"/>
  <outline>
    <contour>
      <point x="243" y="-12" type="curve" smooth="yes"/>
      <point x="386" y="-12"/>
      <point x="494" y="56"/>
      <point x="494" y="185" type="curve" smooth="yes"/>
      <point x="494" y="244"/>
      <point x="459" y="293"/>
      <point x="382" y="320" type="curve"/>
      <point x="382" y="324" type="line"/>
      <point x="490" y="358"/>
      <point x="529" y="413"/>
      <point x="529" y="495" type="curve" smooth="yes"/>
      <point x="529" y="588"/>
      <point x="448" y="647"/>
      <point x="331" y="647" type="curve" smooth="yes"/>
      <point x="260" y="647"/>
      <point x="196" y="627"/>
      <point x="132" y="580" type="curve"/>
      <point x="193" y="496" type="line"/>
      <point x="234" y="524"/>
      <point x="269" y="539"/>
      <point x="306" y="539" type="curve" smooth="yes"/>
      <point x="358" y="539"/>
      <point x="389" y="513"/>
      <point x="389" y="472" type="curve" smooth="yes"/>
      <point x="389" y="415"/>
      <point x="347" y="373"/>
      <point x="209" y="373" type="curve"/>
      <point x="190" y="276" type="line"/>
      <point x="321" y="275"/>
      <point x="357" y="242"/>
      <point x="357" y="186" type="curve" smooth="yes"/>
      <point x="357" y="130"/>
      <point x="312" y="98"/>
      <point x="244" y="98" type="curve" smooth="yes"/>
      <point x="190" y="98"/>
      <point x="137" y="127"/>
      <point x="103" y="172" type="curve"/>
      <point x="17" y="102" type="line"/>
      <point x="74" y="23"/>
      <point x="159" y="-12"/>
    </contour>
  </outline>
</glyph>
<glyph name="four" format="1">
  <advance width="600"/>
  <unicode hex="0034"/>
  <outline>
    <contour>
      <point x="292" y="0" type="line"/>
      <point x="416" y="0" type="line"/>
      <point x="542" y="635" type="line"/>
      <point x="378" y="635" type="line"/>
      <point x="26" y="250" type="line"/>
      <point x="7" y="155" type="line"/>
      <point x="527" y="155" type="line"/>
      <point x="548" y="260" type="line"/>
      <point x="168" y="260" type="line"/>
      <point x="308" y="413" type="line" smooth="yes"/>
      <point x="337" y="447"/>
      <point x="366" y="486"/>
      <point x="394" y="522" type="curve"/>
      <point x="397" y="522" type="line"/>
      <point x="388" y="484"/>
      <point x="376" y="431"/>
      <point x="367" y="384" type="curve" smooth="yes"/>
    </contour>
  </outline>
</glyph>
<glyph name="five" format="1">
  <advance width="600"/>
  <unicode hex="0035"/>
  <outline>
    <contour>
      <point x="234" y="-12" type="curve" smooth="yes"/>
      <point x="372" y="-12"/>
      <point x="506" y="82"/>
      <point x="506" y="240" type="curve" smooth="yes"/>
      <point x="506" y="352"/>
      <point x="425" y="408"/>
      <point x="322" y="408" type="curve" smooth="yes"/>
      <point x="289" y="408"/>
      <point x="262" y="403"/>
      <point x="233" y="392" type="curve"/>
      <point x="267" y="520" type="line"/>
      <point x="522" y="520" type="line"/>
      <point x="544" y="635" type="line"/>
      <point x="171" y="635" type="line"/>
      <point x="93" y="317" type="line"/>
      <point x="145" y="274" type="line"/>
      <point x="197" y="300"/>
      <point x="222" y="306"/>
      <point x="266" y="306" type="curve" smooth="yes"/>
      <point x="330" y="306"/>
      <point x="367" y="276"/>
      <point x="367" y="217" type="curve" smooth="yes"/>
      <point x="367" y="140"/>
      <point x="304" y="98"/>
      <point x="236" y="98" type="curve" smooth="yes"/>
      <point x="178" y="98"/>
      <point x="128" y="125"/>
      <point x="93" y="173" type="curve"/>
      <point x="6" y="102" type="line"/>
      <point x="64" y="21"/>
      <point x="147" y="-12"/>
    </contour>
  </outline>
</glyph>
<glyph name="six" format="1">
  <advance width="600"/>
  <unicode hex="0036"/>
  <outline>
    <contour>
      <point x="275" y="-12" type="curve" smooth="yes"/>
      <point x="419" y="-12"/>
      <point x="521" y="106"/>
      <point x="521" y="232" type="curve" smooth="yes"/>
      <point x="521" y="349"/>
      <point x="441" y="399"/>
      <point x="345" y="399" type="curve" smooth="yes"/>
      <point x="296" y="399"/>
      <point x="226" y="372"/>
      <point x="187" y="327" type="curve"/>
      <point x="175" y="229" type="line"/>
      <point x="220" y="287"/>
      <point x="266" y="305"/>
      <point x="309" y="305" type="curve" smooth="yes"/>
      <point x="362" y="305"/>
      <point x="396" y="276"/>
      <point x="396" y="220" type="curve" smooth="yes"/>
      <point x="396" y="162"/>
      <point x="358" y="90"/>
      <point x="282" y="90" type="curve" smooth="yes"/>
      <point x="224" y="90"/>
      <point x="181" y="130"/>
      <point x="181" y="206" type="curve" smooth="yes"/>
      <point x="181" y="436"/>
      <point x="280" y="537"/>
      <point x="386" y="537" type="curve" smooth="yes"/>
      <point x="431" y="537"/>
      <point x="463" y="521"/>
      <point x="487" y="486" type="curve"/>
      <point x="574" y="558" type="line"/>
      <point x="543" y="601"/>
      <point x="483" y="647"/>
      <point x="394" y="647" type="curve" smooth="yes"/>
      <point x="201" y="647"/>
      <point x="54" y="485"/>
      <point x="54" y="218" type="curve" smooth="yes"/>
      <point x="54" y="80"/>
      <point x="142" y="-12"/>
    </contour>
  </outline>
</glyph>
<glyph name="seven" format="1">
  <advance width="600"/>
  <unicode hex="0037"/>
  <outline>
    <contour>
      <point x="128" y="0" type="curve"/>
      <point x="270" y="0" type="line"/>
      <point x="330" y="249"/>
      <point x="370" y="370"/>
      <point x="571" y="549" type="curve"/>
      <point x="588" y="635" type="line"/>
      <point x="122" y="635" type="line"/>
      <point x="100" y="520" type="line"/>
      <point x="437" y="520" type="line"/>
      <point x="418" y="533" type="line"/>
      <point x="261" y="387"/>
      <point x="182" y="237"/>
    </contour>
  </outline>
</glyph>
<glyph name="eight" format="1">
  <advance width="600"/>
  <unicode hex="0038"/>
  <outline>
    <contour>
      <point x="254" y="-12" type="curve" smooth="yes"/>
      <point x="404" y="-12"/>
      <point x="500" y="67"/>
      <point x="500" y="184" type="curve" smooth="yes"/>
      <point x="500" y="257"/>
      <point x="458" y="299"/>
      <point x="416" y="328" type="curve"/>
      <point x="416" y="332" type="line"/>
      <point x="490" y="368"/>
      <point x="536" y="423"/>
      <point x="536" y="503" type="curve" smooth="yes"/>
      <point x="536" y="598"/>
      <point x="450" y="647"/>
      <point x="346" y="647" type="curve" smooth="yes"/>
      <point x="218" y="647"/>
      <point x="124" y="578"/>
      <point x="124" y="466" type="curve" smooth="yes"/>
      <point x="124" y="412"/>
      <point x="151" y="371"/>
      <point x="190" y="332" type="curve"/>
      <point x="190" y="328" type="line"/>
      <point x="88" y="285"/>
      <point x="43" y="228"/>
      <point x="43" y="142" type="curve" smooth="yes"/>
      <point x="43" y="47"/>
      <point x="122" y="-12"/>
    </contour>
    <contour>
      <point x="348" y="366" type="curve"/>
      <point x="291" y="394"/>
      <point x="244" y="428"/>
      <point x="244" y="474" type="curve" smooth="yes"/>
      <point x="244" y="521"/>
      <point x="285" y="550"/>
      <point x="336" y="550" type="curve" smooth="yes"/>
      <point x="386" y="550"/>
      <point x="419" y="524"/>
      <point x="419" y="479" type="curve" smooth="yes"/>
      <point x="419" y="436"/>
      <point x="395" y="395"/>
    </contour>
    <contour>
      <point x="264" y="85" type="curve" smooth="yes"/>
      <point x="211" y="85"/>
      <point x="165" y="113"/>
      <point x="165" y="169" type="curve" smooth="yes"/>
      <point x="165" y="216"/>
      <point x="198" y="255"/>
      <point x="248" y="286" type="curve"/>
      <point x="324" y="245"/>
      <point x="374" y="219"/>
      <point x="374" y="168" type="curve" smooth="yes"/>
      <point x="374" y="112"/>
      <point x="321" y="85"/>
    </contour>
  </outline>
</glyph>
<glyph name="nine" format="1">
  <advance width="600"/>
  <unicode hex="0039"/>
  <outline>
    <contour>
      <point x="206" y="-12" type="curve" smooth="yes"/>
      <point x="399" y="-12"/>
      <point x="546" y="150"/>
      <point x="546" y="417" type="curve" smooth="yes"/>
      <point x="546" y="555"/>
      <point x="459" y="647"/>
      <point x="325" y="647" type="curve" smooth="yes"/>
      <point x="181" y="647"/>
      <point x="79" y="529"/>
      <point x="79" y="403" type="curve" smooth="yes"/>
      <point x="79" y="286"/>
      <point x="159" y="236"/>
      <point x="255" y="236" type="curve" smooth="yes"/>
      <point x="305" y="236"/>
      <point x="374" y="263"/>
      <point x="413" y="308" type="curve"/>
      <point x="425" y="406" type="line"/>
      <point x="381" y="348"/>
      <point x="334" y="330"/>
      <point x="292" y="330" type="curve" smooth="yes"/>
      <point x="238" y="330"/>
      <point x="205" y="359"/>
      <point x="205" y="415" type="curve" smooth="yes"/>
      <point x="205" y="473"/>
      <point x="242" y="545"/>
      <point x="318" y="545" type="curve" smooth="yes"/>
      <point x="377" y="545"/>
      <point x="419" y="506"/>
      <point x="419" y="429" type="curve" smooth="yes"/>
      <point x="419" y="199"/>
      <point x="320" y="98"/>
      <point x="215" y="98" type="curve" smooth="yes"/>
      <point x="169" y="98"/>
      <point x="138" y="114"/>
      <point x="113" y="149" type="curve"/>
      <point x="27" y="77" type="line"/>
      <point x="57" y="34"/>
      <point x="117" y="-12"/>
    </contour>
  </outline>
</glyph>
<glyph name="greater" format="1">
  <advance width="600"/>
  <unicode hex="003E"/>
  <outline>
    <contour>
      <point x="132" y="34" type="line"/>
      <point x="515" y="285" type="line"/>
      <point x="515" y="379" type="line"/>
      <point x="132" y="630" type="line"/>
      <point x="132" y="507" type="line"/>
      <point x="404" y="334" type="line"/>
      <point x="404" y="330" type="line"/>
      <point x="132" y="157" type="line"/>
    </contour>
  </outline>
</glyph>
<glyph name="question" format="1">
  <advance width="600"/>
  <unicode hex="003F"/>
  <outline>
    <contour>
      <point x="213" y="255" type="curve"/>
      <point x="326" y="255" type="line"/>
      <point x="333" y="313"/>
      <point x="363" y="337"/>
      <point x="408" y="370" type="curve" smooth="yes"/>
      <point x="477" y="420"/>
      <point x="537" y="460"/>
      <point x="537" y="552" type="curve" smooth="yes"/>
      <point x="537" y="640"/>
      <point x="463" y="682"/>
      <point x="370" y="682" type="curve" smooth="yes"/>
      <point x="278" y="682"/>
      <point x="216" y="646"/>
      <point x="164" y="582" type="curve"/>
      <point x="235" y="515" type="line"/>
      <point x="272" y="552"/>
      <point x="302" y="572"/>
      <point x="345" y="572" type="curve" smooth="yes"/>
      <point x="379" y="572"/>
      <point x="400" y="555"/>
      <point x="400" y="523" type="curve" smooth="yes"/>
      <point x="400" y="489"/>
      <point x="375" y="467"/>
      <point x="330" y="436" type="curve" smooth="yes"/>
      <point x="278" y="399"/>
      <point x="216" y="349"/>
    </contour>
    <contour>
      <point x="231" y="-12" type="curve" smooth="yes"/>
      <point x="294" y="-12"/>
      <point x="339" y="38"/>
      <point x="339" y="99" type="curve" smooth="yes"/>
      <point x="339" y="147"/>
      <point x="306" y="181"/>
      <point x="261" y="181" type="curve" smooth="yes"/>
      <point x="197" y="181"/>
      <point x="153" y="131"/>
      <point x="153" y="70" type="curve" smooth="yes"/>
      <point x="153" y="22"/>
      <point x="185" y="-12"/>
    </contour>
  </outline>
</glyph>
<glyph name="at" format="1">
  <advance width="600"/>
  <unicode hex="0040"/>
  <outline>
    <contour>
      <point x="251" y="-146" type="curve" smooth="yes"/>
      <point x="328" y="-146"/>
      <point x="394" y="-128"/>
      <point x="453" y="-87" type="curve"/>
      <point x="415" y="-16" type="line"/>
      <point x="371" y="-44"/>
      <point x="329" y="-64"/>
      <point x="267" y="-64" type="curve" smooth="yes"/>
      <point x="171" y="-64"/>
      <point x="111" y="14"/>
      <point x="111" y="163" type="curve" smooth="yes"/>
      <point x="111" y="434"/>
      <point x="268" y="562"/>
      <point x="397" y="562" type="curve" smooth="yes"/>
      <point x="488" y="562"/>
      <point x="502" y="495"/>
      <point x="487" y="414" type="curve" smooth="yes"/>
      <point x="483" y="393" type="line"/>
      <point x="289" y="369"/>
      <point x="199" y="311"/>
      <point x="199" y="194" type="curve" smooth="yes"/>
      <point x="199" y="128"/>
      <point x="239" y="89"/>
      <point x="302" y="89" type="curve" smooth="yes"/>
      <point x="353" y="89"/>
      <point x="403" y="112"/>
      <point x="437" y="151" type="curve"/>
      <point x="441" y="151" type="line"/>
      <point x="440" y="100" type="line"/>
      <point x="513" y="100" type="line"/>
      <point x="573" y="407" type="line" smooth="yes"/>
      <point x="602" y="555"/>
      <point x="552" y="643"/>
      <point x="409" y="643" type="curve" smooth="yes"/>
      <point x="205" y="643"/>
      <point x="14" y="473"/>
      <point x="14" y="152" type="curve" smooth="yes"/>
      <point x="14" y="-46"/>
      <point x="117" y="-146"/>
    </contour>
    <contour>
      <point x="348" y="174" type="curve" smooth="yes"/>
      <point x="318" y="174"/>
      <point x="302" y="191"/>
      <point x="302" y="219" type="curve" smooth="yes"/>
      <point x="302" y="267"/>
      <point x="341" y="300"/>
      <point x="459" y="319" type="curve"/>
      <point x="438" y="212" type="line"/>
      <point x="409" y="188"/>
      <point x="377" y="174"/>
    </contour>
  </outline>
</glyph>
<glyph name="A" format="1">
	<unicode hex="0041"/>
	<advance width="600"/>
	<outline>
		<contour>
			<point x="-43" y="0" type="line"/>
			<point x="108" y="0" type="line"/>
			<point x="266" y="354" type="line" smooth="yes"/>
			<point x="295" y="419"/>
			<point x="321" y="483"/>
			<point x="349" y="547" type="curve"/>
			<point x="353" y="547" type="line"/>
			<point x="356" y="480"/>
			<point x="358" y="417"/>
			<point x="362" y="353" type="curve" smooth="yes"/>
			<point x="379" y="0" type="line"/>
			<point x="523" y="0" type="line"/>
			<point x="455" y="652" type="line"/>
			<point x="292" y="652" type="line"/>
		</contour>
		<contour>
			<point x="120" y="164" type="line"/>
			<point x="420" y="164" type="line"/>
			<point x="443" y="267" type="line"/>
			<point x="145" y="267" type="line"/>
		</contour>
		<contour>
			<point name="aboveUC" x="371" y="672" type="move"/>
		</contour>
		<contour>
			<point name="ogonekUC" x="435" y="0" type="move"/>
		</contour>
		<contour>
			<point name="baseLC" x="454" y="0" type="move"/>
		</contour>
		<contour>
			<point name="belowLC" x="250" y="-20" type="move"/>
		</contour>
	</outline>
</glyph>
<glyph name="B" format="1">
  <advance width="600"/>
  <unicode hex="0042"/>
  <outline>
    <contour>
      <point x="26" y="0" type="line"/>
      <point x="252" y="0" type="line" smooth="yes"/>
      <point x="405" y="0"/>
      <point x="534" y="61"/>
      <point x="534" y="214" type="curve" smooth="yes"/>
      <point x="534" y="278"/>
      <point x="494" y="319"/>
      <point x="422" y="336" type="curve"/>
      <point x="423" y="340" type="line"/>
      <point x="508" y="365"/>
      <point x="565" y="428"/>
      <point x="565" y="503" type="curve" smooth="yes"/>
      <point x="565" y="606"/>
      <point x="477" y="652"/>
      <point x="345" y="652" type="curve" smooth="yes"/>
      <point x="156" y="652" type="line"/>
    </contour>
    <contour>
      <point x="240" y="385" type="line"/>
      <point x="273" y="547" type="line"/>
      <point x="321" y="547" type="line" smooth="yes"/>
      <point x="393" y="547"/>
      <point x="425" y="522"/>
      <point x="425" y="480" type="curve" smooth="yes"/>
      <point x="425" y="423"/>
      <point x="386" y="385"/>
      <point x="295" y="385" type="curve" smooth="yes"/>
    </contour>
    <contour>
      <point x="184" y="105" type="line"/>
      <point x="221" y="292" type="line"/>
      <point x="297" y="292" type="line" smooth="yes"/>
      <point x="367" y="292"/>
      <point x="402" y="262"/>
      <point x="402" y="209" type="curve" smooth="yes"/>
      <point x="402" y="142"/>
      <point x="351" y="105"/>
      <point x="259" y="105" type="curve" smooth="yes"/>
    </contour>
    <contour>
      <point x="374" y="672" type="move" name="aboveUC"/>
    </contour>
    <contour>
      <point x="250" y="-20" type="move" name="belowLC"/>
    </contour>
  </outline>
</glyph>
<glyph name="C" format="1">
  <advance width="600"/>
  <unicode hex="0043"/>
  <outline>
    <contour>
      <point x="317" y="-12" type="curve" smooth="yes"/>
      <point x="406" y="-12"/>
      <point x="474" y="32"/>
      <point x="514" y="68" type="curve"/>
      <point x="456" y="156" type="line"/>
      <point x="423" y="127"/>
      <point x="384" y="106"/>
      <point x="346" y="106" type="curve" smooth="yes"/>
      <point x="249" y="106"/>
      <point x="210" y="169"/>
      <point x="210" y="270" type="curve" smooth="yes"/>
      <point x="210" y="415"/>
      <point x="298" y="545"/>
      <point x="409" y="545" type="curve" smooth="yes"/>
      <point x="445" y="545"/>
      <point x="472" y="526"/>
      <point x="496" y="488" type="curve"/>
      <point x="589" y="560" type="line"/>
      <point x="553" y="625"/>
      <point x="492" y="664"/>
      <point x="416" y="664" type="curve" smooth="yes"/>
      <point x="221" y="664"/>
      <point x="69" y="486"/>
      <point x="69" y="261" type="curve" smooth="yes"/>
      <point x="69" y="90"/>
      <point x="166" y="-12"/>
    </contour>
    <contour>
      <point x="416" y="672" type="move" name="aboveUC"/>
    </contour>
    <contour>
      <point x="297" y="0" type="move" name="baseLC"/>
    </contour>
    <contour>
      <point x="293" y="-20" type="move" name="belowLC"/>
    </contour>
  </outline>
</glyph>
<glyph name="D" format="1">
  <advance width="600"/>
  <unicode hex="0044"/>
  <outline>
    <contour>
      <point x="12" y="0" type="line"/>
      <point x="216" y="0" type="line" smooth="yes"/>
      <point x="418" y="0"/>
      <point x="565" y="139"/>
      <point x="565" y="396" type="curve" smooth="yes"/>
      <point x="565" y="568"/>
      <point x="462" y="652"/>
      <point x="288" y="652" type="curve" smooth="yes"/>
      <point x="142" y="652" type="line"/>
    </contour>
    <contour>
      <point x="171" y="110" type="line"/>
      <point x="257" y="542" type="line"/>
      <point x="285" y="542" type="line" smooth="yes"/>
      <point x="368" y="542"/>
      <point x="424" y="496"/>
      <point x="424" y="387" type="curve" smooth="yes"/>
      <point x="424" y="195"/>
      <point x="331" y="110"/>
      <point x="213" y="110" type="curve" smooth="yes"/>
    </contour>
    <contour>
      <point x="368" y="672" type="move" name="aboveUC"/>
    </contour>
    <contour>
      <point x="228" y="-20" type="move" name="belowLC"/>
    </contour>
  </outline>
</glyph>
<glyph name="E" format="1">
  <advance width="600"/>
  <unicode hex="0045"/>
  <outline>
    <contour>
      <point x="38" y="0" type="line"/>
      <point x="474" y="0" type="line"/>
      <point x="496" y="115" type="line"/>
      <point x="198" y="115" type="line"/>
      <point x="232" y="280" type="line"/>
      <point x="474" y="280" type="line"/>
      <point x="496" y="395" type="line"/>
      <point x="254" y="395" type="line"/>
      <point x="282" y="537" type="line"/>
      <point x="572" y="537" type="line"/>
      <point x="594" y="652" type="line"/>
      <point x="169" y="652" type="line"/>
    </contour>
    <contour>
      <point x="392" y="672" type="move" name="aboveUC"/>
    </contour>
    <contour>
      <point x="368" y="0" type="move" name="ogonekUC"/>
    </contour>
    <contour>
      <point x="275" y="0" type="move" name="baseLC"/>
    </contour>
    <contour>
      <point x="265" y="-20" type="move" name="belowLC"/>
    </contour>
  </outline>
</glyph>
<glyph name="G" format="1">
  <advance width="600"/>
  <unicode hex="0047"/>
  <outline>
    <contour>
      <point x="294" y="-12" type="curve" smooth="yes"/>
      <point x="376" y="-12"/>
      <point x="448" y="17"/>
      <point x="497" y="56" type="curve"/>
      <point x="558" y="367" type="line"/>
      <point x="330" y="367" type="line"/>
      <point x="310" y="255" type="line"/>
      <point x="417" y="255" type="line"/>
      <point x="389" y="127" type="line"/>
      <point x="371" y="114"/>
      <point x="344" y="105"/>
      <point x="318" y="105" type="curve" smooth="yes"/>
      <point x="223" y="105"/>
      <point x="186" y="170"/>
      <point x="186" y="270" type="curve" smooth="yes"/>
      <point x="186" y="415"/>
      <point x="271" y="545"/>
      <point x="386" y="545" type="curve" smooth="yes"/>
      <point x="428" y="545"/>
      <point x="457" y="526"/>
      <point x="481" y="488" type="curve"/>
      <point x="575" y="560" type="line"/>
      <point x="538" y="625"/>
      <point x="477" y="664"/>
      <point x="393" y="664" type="curve" smooth="yes"/>
      <point x="193" y="664"/>
      <point x="46" y="486"/>
      <point x="46" y="261" type="curve" smooth="yes"/>
      <point x="46" y="89"/>
      <point x="139" y="-12"/>
    </contour>
    <contour>
      <point x="390" y="672" type="move" name="aboveUC"/>
    </contour>
    <contour>
      <point x="295" y="-20" type="move" name="belowLC"/>
    </contour>
  </outline>
</glyph>
<glyph name="I" format="1">
  <advance width="600"/>
  <unicode hex="0049"/>
  <outline>
    <contour>
      <point x="15" y="0" type="line"/>
      <point x="459" y="0" type="line"/>
      <point x="483" y="115" type="line"/>
      <point x="329" y="115" type="line"/>
      <point x="414" y="537" type="line"/>
      <point x="567" y="537" type="line"/>
      <point x="591" y="652" type="line"/>
      <point x="147" y="652" type="line"/>
      <point x="123" y="537" type="line"/>
      <point x="277" y="537" type="line"/>
      <point x="191" y="115" type="line"/>
      <point x="40" y="115" type="line"/>
    </contour>
    <contour>
      <point x="371" y="672" type="move" name="aboveUC"/>
    </contour>
    <contour>
      <point x="234" y="0" type="move" name="ogonekUC"/>
    </contour>
    <contour>
      <point x="234" y="-20" type="move" name="belowLC"/>
    </contour>
  </outline>
</glyph>
<glyph name="J" format="1">
  <advance width="600"/>
  <unicode hex="004A"/>
  <outline>
    <contour>
      <point x="223" y="-12" type="curve" smooth="yes"/>
      <point x="374" y="-12"/>
      <point x="455" y="78"/>
      <point x="482" y="212" type="curve" smooth="yes"/>
      <point x="570" y="652" type="line"/>
      <point x="178" y="652" type="line"/>
      <point x="155" y="537" type="line"/>
      <point x="412" y="537" type="line"/>
      <point x="353" y="242" type="line" smooth="yes"/>
      <point x="334" y="146"/>
      <point x="298" y="106"/>
      <point x="223" y="106" type="curve" smooth="yes"/>
      <point x="165" y="106"/>
      <point x="126" y="140"/>
      <point x="96" y="182" type="curve"/>
      <point x="8" y="100" type="line"/>
      <point x="51" y="39"/>
      <point x="115" y="-12"/>
    </contour>
    <contour>
      <point x="385" y="672" type="move" name="aboveUC"/>
    </contour>
    <contour>
      <point x="240" y="-20" type="move" name="belowLC"/>
    </contour>
  </outline>
</glyph>
<glyph name="K" format="1">
  <advance width="600"/>
  <unicode hex="004B"/>
  <outline>
    <contour>
      <point x="640" y="652" type="line"/>
      <point x="489" y="652" type="line"/>
      <point x="227" y="364" type="line"/>
      <point x="223" y="364" type="line"/>
      <point x="281" y="652" type="line"/>
      <point x="145" y="652" type="line"/>
      <point x="15" y="0" type="line"/>
      <point x="150" y="0" type="line"/>
      <point x="186" y="182" type="line"/>
    </contour>
    <contour>
      <point x="270" y="308" type="line"/>
      <point x="377" y="0" type="line"/>
      <point x="533" y="0" type="line"/>
      <point x="370" y="417" type="line"/>
    </contour>
    <contour>
      <point x="382" y="672" type="move" name="aboveUC"/>
    </contour>
    <contour>
      <point x="270" y="-20" type="move" name="belowLC"/>
    </contour>
  </outline>
</glyph>
<glyph name="L" format="1">
  <advance width="600"/>
  <unicode hex="004C"/>
  <outline>
    <contour>
      <point x="268" y="674" type="move" name="aboveUC"/>
    </contour>
    <contour>
      <point x="289" y="-22" type="move" name="belowLC"/>
    </contour>
    <contour>
      <point x="65" y="0" type="line"/>
      <point x="495" y="0" type="line"/>
      <point x="517" y="115" type="line"/>
      <point x="225" y="115" type="line"/>
      <point x="332" y="652" type="line"/>
      <point x="195" y="652" type="line"/>
    </contour>
  </outline>
</glyph>
<glyph name="M" format="1">
  <advance width="600"/>
  <unicode hex="004D"/>
  <outline>
    <contour>
      <point x="372" y="674" type="move" name="aboveUC"/>
    </contour>
    <contour>
      <point x="234" y="-22" type="move" name="belowLC"/>
    </contour>
    <contour>
      <point x="0" y="0" type="line"/>
      <point x="114" y="0" type="line"/>
      <point x="168" y="263" type="line" smooth="yes"/>
      <point x="180" y="320"/>
      <point x="192" y="438"/>
      <point x="201" y="519" type="curve"/>
      <point x="205" y="519" type="line"/>
      <point x="206" y="513"/>
      <point x="215" y="341"/>
      <point x="216" y="335" type="curve" smooth="yes"/>
      <point x="233" y="175" type="line"/>
      <point x="311" y="175" type="line"/>
      <point x="399" y="348" type="line" smooth="yes"/>
      <point x="403" y="355"/>
      <point x="475" y="513"/>
      <point x="478" y="519" type="curve"/>
      <point x="482" y="519" type="line"/>
      <point x="462" y="452"/>
      <point x="420" y="308"/>
      <point x="407" y="243" type="curve" smooth="yes"/>
      <point x="358" y="0" type="line"/>
      <point x="476" y="0" type="line"/>
      <point x="606" y="652" type="line"/>
      <point x="463" y="652" type="line"/>
      <point x="340" y="413" type="line"/>
      <point x="302" y="317" type="line"/>
      <point x="298" y="317" type="line"/>
      <point x="294" y="416" type="line"/>
      <point x="274" y="652" type="line"/>
      <point x="131" y="652" type="line"/>
    </contour>
  </outline>
</glyph>
<glyph name="N" format="1">
  <advance width="600"/>
  <unicode hex="004E"/>
  <outline>
    <contour>
      <point x="363" y="674" type="move" name="aboveUC"/>
    </contour>
    <contour>
      <point x="248" y="-22" type="move" name="belowLC"/>
    </contour>
    <contour>
      <point x="11" y="0" type="line"/>
      <point x="141" y="0" type="line"/>
      <point x="188" y="244" type="line" smooth="yes"/>
      <point x="200" y="306"/>
      <point x="210" y="412"/>
      <point x="217" y="483" type="curve"/>
      <point x="221" y="483" type="line"/>
      <point x="246" y="341" type="line"/>
      <point x="330" y="0" type="line"/>
      <point x="464" y="0" type="line"/>
      <point x="594" y="652" type="line"/>
      <point x="464" y="652" type="line"/>
      <point x="415" y="400" type="line" smooth="yes"/>
      <point x="405" y="351"/>
      <point x="394" y="237"/>
      <point x="387" y="169" type="curve"/>
      <point x="383" y="169" type="line"/>
      <point x="357" y="310" type="line"/>
      <point x="279" y="652" type="line"/>
      <point x="142" y="652" type="line"/>
    </contour>
  </outline>
</glyph>
<glyph name="O" format="1">
  <advance width="600"/>
  <unicode hex="004F"/>
  <outline>
    <contour>
      <point x="251" y="-12" type="curve" smooth="yes"/>
      <point x="444" y="-12"/>
      <point x="576" y="174"/>
      <point x="576" y="398" type="curve" smooth="yes"/>
      <point x="576" y="563"/>
      <point x="492" y="664"/>
      <point x="357" y="664" type="curve" smooth="yes"/>
      <point x="164" y="664"/>
      <point x="30" y="478"/>
      <point x="30" y="254" type="curve" smooth="yes"/>
      <point x="30" y="89"/>
      <point x="116" y="-12"/>
    </contour>
    <contour>
      <point x="265" y="106" type="curve" smooth="yes"/>
      <point x="201" y="106"/>
      <point x="171" y="151"/>
      <point x="171" y="241" type="curve" smooth="yes"/>
      <point x="171" y="407"/>
      <point x="242" y="545"/>
      <point x="344" y="545" type="curve" smooth="yes"/>
      <point x="407" y="545"/>
      <point x="436" y="501"/>
      <point x="436" y="411" type="curve" smooth="yes"/>
      <point x="436" y="245"/>
      <point x="366" y="106"/>
    </contour>
    <contour>
      <point x="371" y="672" type="move" name="aboveUC"/>
    </contour>
    <contour>
      <point x="366" y="642" type="move" name="hornLC"/>
    </contour>
    <contour>
      <point x="238" y="0" type="move" name="ogonekUC"/>
    </contour>
    <contour>
      <point x="238" y="0" type="move" name="baseLC"/>
    </contour>
    <contour>
      <point x="231" y="-20" type="move" name="belowLC"/>
    </contour>
  </outline>
</glyph>
<glyph name="Q" format="1">
  <advance width="600"/>
  <unicode hex="0051"/>
  <outline>
    <contour>
      <point x="251" y="-12" type="curve" smooth="yes"/>
      <point x="444" y="-12"/>
      <point x="576" y="174"/>
      <point x="576" y="398" type="curve" smooth="yes"/>
      <point x="576" y="563"/>
      <point x="492" y="664"/>
      <point x="357" y="664" type="curve" smooth="yes"/>
      <point x="164" y="664"/>
      <point x="30" y="478"/>
      <point x="30" y="254" type="curve" smooth="yes"/>
      <point x="30" y="89"/>
      <point x="116" y="-12"/>
    </contour>
    <contour>
      <point x="266" y="100" type="curve" smooth="yes"/>
      <point x="201" y="100"/>
      <point x="171" y="145"/>
      <point x="171" y="241" type="curve" smooth="yes"/>
      <point x="171" y="407"/>
      <point x="242" y="545"/>
      <point x="344" y="545" type="curve" smooth="yes"/>
      <point x="407" y="545"/>
      <point x="436" y="501"/>
      <point x="436" y="411" type="curve" smooth="yes"/>
      <point x="436" y="237"/>
      <point x="366" y="100"/>
    </contour>
    <contour>
      <point x="407" y="-181" type="curve" smooth="yes"/>
      <point x="458" y="-181"/>
      <point x="500" y="-172"/>
      <point x="522" y="-162" type="curve"/>
      <point x="501" y="-57" type="line"/>
      <point x="482" y="-64"/>
      <point x="457" y="-71"/>
      <point x="423" y="-71" type="curve" smooth="yes"/>
      <point x="364" y="-71"/>
      <point x="319" y="-40"/>
      <point x="307" y="26" type="curve"/>
      <point x="170" y="27" type="line"/>
      <point x="206" y="-115"/>
      <point x="293" y="-181"/>
    </contour>
    <contour>
      <point x="371" y="672" type="move" name="aboveUC"/>
    </contour>
  </outline>
</glyph>
<glyph name="S" format="1">
  <advance width="600"/>
  <unicode hex="0053"/>
  <outline>
    <contour>
      <point x="267" y="-12" type="curve" smooth="yes"/>
      <point x="398" y="-12"/>
      <point x="504" y="58"/>
      <point x="504" y="188" type="curve"/>
      <point x="504" y="276"/>
      <point x="456" y="321"/>
      <point x="392" y="362" type="curve" smooth="yes"/>
      <point x="322" y="407" type="line" smooth="yes"/>
      <point x="286" y="429"/>
      <point x="260" y="450"/>
      <point x="260" y="484" type="curve" smooth="yes"/>
      <point x="260" y="524"/>
      <point x="295" y="548"/>
      <point x="340" y="548" type="curve" smooth="yes"/>
      <point x="396" y="548"/>
      <point x="439" y="517"/>
      <point x="470" y="480" type="curve"/>
      <point x="557" y="555" type="line"/>
      <point x="513" y="617"/>
      <point x="433" y="664"/>
      <point x="341" y="664" type="curve" smooth="yes"/>
      <point x="216" y="664"/>
      <point x="119" y="589"/>
      <point x="119" y="474" type="curve" smooth="yes"/>
      <point x="119" y="390"/>
      <point x="169" y="336"/>
      <point x="228" y="300" type="curve" smooth="yes"/>
      <point x="289" y="264" type="line" smooth="yes"/>
      <point x="335" y="236"/>
      <point x="364" y="215"/>
      <point x="364" y="178" type="curve" smooth="yes"/>
      <point x="364" y="132"/>
      <point x="323" y="105"/>
      <point x="263" y="105" type="curve" smooth="yes"/>
      <point x="201" y="105"/>
      <point x="150" y="137"/>
      <point x="113" y="193" type="curve"/>
      <point x="24" y="115" type="line"/>
      <point x="70" y="42"/>
      <point x="150" y="-12"/>
    </contour>
    <contour>
      <point x="355" y="672" type="move" name="aboveUC"/>
    </contour>
    <contour>
      <point x="260" y="0" type="move" name="baseLC"/>
    </contour>
    <contour>
      <point x="260" y="-20" type="move" name="belowLC"/>
    </contour>
  </outline>
</glyph>
<glyph name="U" format="1">
  <advance width="600"/>
  <unicode hex="0055"/>
  <outline>
    <contour>
      <point x="249" y="-12" type="curve" smooth="yes"/>
      <point x="393" y="-12"/>
      <point x="482" y="57"/>
      <point x="523" y="261" type="curve" smooth="yes"/>
      <point x="601" y="652" type="line"/>
      <point x="467" y="652" type="line"/>
      <point x="391" y="269" type="line" smooth="yes"/>
      <point x="366" y="142"/>
      <point x="329" y="106"/>
      <point x="267" y="106" type="curve" smooth="yes"/>
      <point x="214" y="106"/>
      <point x="186" y="141"/>
      <point x="186" y="204" type="curve" smooth="yes"/>
      <point x="186" y="230"/>
      <point x="193" y="257"/>
      <point x="198" y="285" type="curve" smooth="yes"/>
      <point x="271" y="652" type="line"/>
      <point x="134" y="652" type="line"/>
      <point x="64" y="300" type="line" smooth="yes"/>
      <point x="56" y="263"/>
      <point x="53" y="231"/>
      <point x="53" y="193" type="curve" smooth="yes"/>
      <point x="53" y="71"/>
      <point x="118" y="-12"/>
    </contour>
    <contour>
      <point x="371" y="672" type="move" name="aboveUC"/>
    </contour>
    <contour>
      <point x="456" y="662" type="move" name="hornLC"/>
    </contour>
    <contour>
      <point x="238" y="0" type="move" name="ogonekUC"/>
    </contour>
    <contour>
      <point x="238" y="0" type="move" name="baseLC"/>
    </contour>
    <contour>
      <point x="231" y="-20" type="move" name="belowLC"/>
    </contour>
  </outline>
</glyph>
<glyph name="V" format="1">
  <advance width="600"/>
  <unicode hex="0056"/>
  <outline>
    <contour>
      <point x="362" y="674" type="move" name="aboveUC"/>
    </contour>
    <contour>
      <point x="231" y="-22" type="move" name="belowLC"/>
    </contour>
    <contour>
      <point x="145" y="0" type="line"/>
      <point x="311" y="0" type="line"/>
      <point x="650" y="652" type="line"/>
      <point x="499" y="652" type="line"/>
      <point x="352" y="331" type="line" smooth="yes"/>
      <point x="328" y="279"/>
      <point x="288" y="187"/>
      <point x="260" y="122" type="curve"/>
      <point x="256" y="122" type="line"/>
      <point x="255" y="192"/>
      <point x="252" y="262"/>
      <point x="249" y="331" type="curve" smooth="yes"/>
      <point x="232" y="652" type="line"/>
      <point x="88" y="652" type="line"/>
    </contour>
  </outline>
</glyph>
<glyph name="W" format="1">
  <advance width="600"/>
  <unicode hex="0057"/>
  <outline>
    <contour>
      <point x="25" y="0" type="line"/>
      <point x="180" y="0" type="line"/>
      <point x="261" y="214" type="line" smooth="yes"/>
      <point x="277" y="256"/>
      <point x="293" y="302"/>
      <point x="304" y="339" type="curve"/>
      <point x="307" y="339" type="line"/>
      <point x="305" y="304"/>
      <point x="304" y="256"/>
      <point x="304" y="215" type="curve" smooth="yes"/>
      <point x="306" y="0" type="line"/>
      <point x="458" y="0" type="line"/>
      <point x="657" y="653" type="line"/>
      <point x="527" y="653" type="line"/>
      <point x="432" y="286" type="line" smooth="yes"/>
      <point x="421" y="242"/>
      <point x="403" y="169"/>
      <point x="394" y="127" type="curve"/>
      <point x="389" y="127" type="line"/>
      <point x="389" y="180"/>
      <point x="388" y="261"/>
      <point x="386" y="297" type="curve" smooth="yes"/>
      <point x="375" y="483" type="line"/>
      <point x="290" y="483" type="line"/>
      <point x="203" y="285" type="line" smooth="yes"/>
      <point x="186" y="243"/>
      <point x="158" y="171"/>
      <point x="143" y="125" type="curve"/>
      <point x="138" y="125" type="line"/>
      <point x="145" y="167"/>
      <point x="156" y="237"/>
      <point x="161" y="284" type="curve" smooth="yes"/>
      <point x="209" y="653" type="line"/>
      <point x="78" y="653" type="line"/>
    </contour>
    <contour>
      <point x="362" y="672" type="move" name="aboveUC"/>
    </contour>
    <contour>
      <point x="231" y="-20" type="move" name="belowLC"/>
    </contour>
  </outline>
</glyph>
<glyph name="X" format="1">
  <advance width="600"/>
  <unicode hex="0058"/>
  <outline>
    <contour>
      <point x="-31" y="0" type="line"/>
      <point x="119" y="0" type="line"/>
      <point x="217" y="140" type="line" smooth="yes"/>
      <point x="235" y="167"/>
      <point x="259" y="207"/>
      <point x="281" y="243" type="curve"/>
      <point x="285" y="243" type="line"/>
      <point x="295" y="211"/>
      <point x="308" y="165"/>
      <point x="316" y="141" type="curve" smooth="yes"/>
      <point x="366" y="0" type="line"/>
      <point x="515" y="0" type="line"/>
      <point x="386" y="322" type="line"/>
      <point x="629" y="653" type="line"/>
      <point x="481" y="653" type="line"/>
      <point x="392" y="522" type="line" smooth="yes"/>
      <point x="376" y="499"/>
      <point x="351" y="450"/>
      <point x="330" y="415" type="curve"/>
      <point x="326" y="415" type="line"/>
      <point x="315" y="450"/>
      <point x="304" y="496"/>
      <point x="295" y="522" type="curve" smooth="yes"/>
      <point x="252" y="653" type="line"/>
      <point x="102" y="653" type="line"/>
      <point x="221" y="344" type="line"/>
    </contour>
    <contour>
      <point x="362" y="672" type="move" name="aboveUC"/>
    </contour>
    <contour>
      <point x="446" y="0" type="move" name="baseLC"/>
    </contour>
    <contour>
      <point x="247" y="-20" type="move" name="belowLC"/>
    </contour>
  </outline>
</glyph>
<glyph name="Y" format="1">
  <advance width="600"/>
  <unicode hex="0059"/>
  <outline>
    <contour>
      <point x="360" y="674" type="move" name="aboveUC"/>
    </contour>
    <contour>
      <point x="234" y="-22" type="move" name="belowLC"/>
    </contour>
    <contour>
      <point x="169" y="0" type="line"/>
      <point x="304" y="0" type="line"/>
      <point x="345" y="194" type="line"/>
      <point x="645" y="653" type="line"/>
      <point x="501" y="653" type="line"/>
      <point x="397" y="481" type="line" smooth="yes"/>
      <point x="366" y="429"/>
      <point x="333" y="371"/>
      <point x="305" y="322" type="curve"/>
      <point x="301" y="322" type="line"/>
      <point x="291" y="372"/>
      <point x="279" y="430"/>
      <point x="268" y="481" type="curve" smooth="yes"/>
      <point x="230" y="653" type="line"/>
      <point x="88" y="653" type="line"/>
      <point x="211" y="208" type="line"/>
    </contour>
  </outline>
</glyph>
<glyph name="backslash" format="1">
  <advance width="600"/>
  <unicode hex="005C"/>
  <outline>
    <contour>
      <point x="323" y="-160" type="line"/>
      <point x="431" y="-160" type="line"/>
      <point x="276" y="710" type="line"/>
      <point x="168" y="710" type="line"/>
    </contour>
  </outline>
</glyph>
<glyph name="bracketright" format="1">
	<unicode hex="005D"/>
	<advance width="600"/>
	<outline>
		<contour>
			<point x="14" y="-152" type="line"/>
			<point x="305" y="-152" type="line"/>
			<point x="479" y="708" type="line"/>
			<point x="188" y="708" type="line"/>
			<point x="174" y="635" type="line"/>
			<point x="361" y="635" type="line"/>
			<point x="217" y="-79" type="line"/>
			<point x="28" y="-79" type="line"/>
		</contour>
	</outline>
</glyph>
<glyph name="underscore" format="1">
  <advance width="600"/>
  <unicode hex="005F"/>
  <outline>
    <contour>
      <point x="-32" y="-160" type="line"/>
      <point x="448" y="-160" type="line"/>
      <point x="469" y="-57" type="line"/>
      <point x="-11" y="-57" type="line"/>
    </contour>
  </outline>
</glyph>
<glyph name="a" format="1">
  <advance width="600"/>
  <unicode hex="0061"/>
  <outline>
    <contour>
      <point x="197" y="-12" type="curve" smooth="yes"/>
      <point x="253" y="-12"/>
      <point x="313" y="18"/>
      <point x="360" y="68" type="curve"/>
      <point x="364" y="68" type="line"/>
      <point x="362" y="0" type="line"/>
      <point x="473" y="0" type="line"/>
      <point x="573" y="496" type="line"/>
      <point x="463" y="496" type="line"/>
      <point x="442" y="443" type="line"/>
      <point x="438" y="443" type="line"/>
      <point x="414" y="483"/>
      <point x="366" y="508"/>
      <point x="301" y="508" type="curve" smooth="yes"/>
      <point x="160" y="508"/>
      <point x="35" y="361"/>
      <point x="35" y="180" type="curve" smooth="yes"/>
      <point x="35" y="57"/>
      <point x="98" y="-12"/>
    </contour>
    <contour>
      <point x="248" y="100" type="curve" smooth="yes"/>
      <point x="204" y="100"/>
      <point x="176" y="129"/>
      <point x="176" y="197" type="curve" smooth="yes"/>
      <point x="176" y="310"/>
      <point x="245" y="396"/>
      <point x="325" y="396" type="curve" smooth="yes"/>
      <point x="353" y="396"/>
      <point x="389" y="382"/>
      <point x="408" y="349" type="curve"/>
      <point x="372" y="176" type="line"/>
      <point x="333" y="123"/>
      <point x="286" y="100"/>
    </contour>
    <contour>
      <point x="385" y="0" type="move" name="ogonekLC"/>
    </contour>
    <contour>
      <point x="348" y="516" type="move" name="aboveLC"/>
    </contour>
    <contour>
      <point x="416" y="0" type="move" name="baseLC"/>
    </contour>
    <contour>
      <point x="250" y="-20" type="move" name="belowLC"/>
    </contour>
  </outline>
</glyph>
<glyph name="c" format="1">
  <advance width="600"/>
  <unicode hex="0063"/>
  <outline>
    <contour>
      <point x="298" y="-12" type="curve" smooth="yes"/>
      <point x="375" y="-12"/>
      <point x="442" y="17"/>
      <point x="491" y="63" type="curve"/>
      <point x="443" y="156" type="line"/>
      <point x="404" y="124"/>
      <point x="367" y="100"/>
      <point x="318" y="100" type="curve" smooth="yes"/>
      <point x="253" y="100"/>
      <point x="199" y="137"/>
      <point x="199" y="218" type="curve" smooth="yes"/>
      <point x="199" y="319"/>
      <point x="276" y="396"/>
      <point x="353" y="396" type="curve" smooth="yes"/>
      <point x="398" y="396"/>
      <point x="438" y="379"/>
      <point x="471" y="342" type="curve"/>
      <point x="554" y="418" type="line"/>
      <point x="518" y="464"/>
      <point x="452" y="508"/>
      <point x="363" y="508" type="curve" smooth="yes"/>
      <point x="202" y="508"/>
      <point x="60" y="387"/>
      <point x="60" y="205" type="curve" smooth="yes"/>
      <point x="60" y="60"/>
      <point x="168" y="-12"/>
    </contour>
    <contour>
      <point x="375" y="516" type="move" name="aboveLC"/>
    </contour>
    <contour>
      <point x="278" y="0" type="move" name="baseLC"/>
    </contour>
    <contour>
      <point x="278" y="-20" type="move" name="belowLC"/>
    </contour>
  </outline>
</glyph>
<glyph name="d" format="1">
  <advance width="600"/>
  <unicode hex="0064"/>
  <outline>
    <contour>
      <point x="196" y="-12" type="curve" smooth="yes"/>
      <point x="253" y="-12"/>
      <point x="313" y="18"/>
      <point x="360" y="68" type="curve"/>
      <point x="364" y="68" type="line"/>
      <point x="362" y="0" type="line"/>
      <point x="473" y="0" type="line"/>
      <point x="614" y="701" type="line"/>
      <point x="478" y="701" type="line"/>
      <point x="447" y="542" type="line"/>
      <point x="435" y="448" type="line"/>
      <point x="433" y="448" type="line"/>
      <point x="408" y="484"/>
      <point x="366" y="508"/>
      <point x="301" y="508" type="curve" smooth="yes"/>
      <point x="160" y="508"/>
      <point x="35" y="361"/>
      <point x="35" y="180" type="curve" smooth="yes"/>
      <point x="35" y="57"/>
      <point x="98" y="-12"/>
    </contour>
    <contour>
      <point x="248" y="100" type="curve" smooth="yes"/>
      <point x="204" y="100"/>
      <point x="176" y="130"/>
      <point x="176" y="197" type="curve" smooth="yes"/>
      <point x="176" y="310"/>
      <point x="245" y="396"/>
      <point x="325" y="396" type="curve" smooth="yes"/>
      <point x="353" y="396"/>
      <point x="388" y="382"/>
      <point x="408" y="349" type="curve"/>
      <point x="372" y="176" type="line"/>
      <point x="333" y="123"/>
      <point x="286" y="100"/>
    </contour>
    <contour>
      <point x="545" y="732" type="move" name="aboveUC"/>
    </contour>
    <contour>
      <point x="250" y="-20" type="move" name="belowLC"/>
    </contour>
  </outline>
</glyph>
<glyph name="e" format="1">
  <advance width="600"/>
  <unicode hex="0065"/>
  <outline>
    <contour>
      <point x="346" y="0" type="move" name="ogonekLC"/>
    </contour>
    <contour>
      <point x="343" y="518" type="move" name="aboveLC"/>
    </contour>
    <contour>
      <point x="256" y="-22" type="move" name="belowLC"/>
    </contour>
    <contour>
      <point x="267" y="-12" type="curve" smooth="yes"/>
      <point x="356" y="-12"/>
      <point x="435" y="13"/>
      <point x="493" y="54" type="curve"/>
      <point x="447" y="145" type="line"/>
      <point x="402" y="115"/>
      <point x="356" y="93"/>
      <point x="299" y="93" type="curve" smooth="yes"/>
      <point x="235" y="93"/>
      <point x="183" y="124"/>
      <point x="183" y="213" type="curve" smooth="yes"/>
      <point x="183" y="341"/>
      <point x="266" y="403"/>
      <point x="330" y="403" type="curve" smooth="yes"/>
      <point x="379" y="403"/>
      <point x="411" y="373"/>
      <point x="411" y="316" type="curve" smooth="yes"/>
      <point x="411" y="303"/>
      <point x="408" y="290"/>
      <point x="405" y="278" type="curve"/>
      <point x="444" y="298" type="line"/>
      <point x="164" y="298" type="line"/>
      <point x="149" y="211" type="line"/>
      <point x="519" y="211" type="line"/>
      <point x="525" y="228"/>
      <point x="536" y="272"/>
      <point x="536" y="313" type="curve" smooth="yes"/>
      <point x="536" y="428"/>
      <point x="463" y="508"/>
      <point x="334" y="508" type="curve" smooth="yes"/>
      <point x="182" y="508"/>
      <point x="46" y="387"/>
      <point x="46" y="208" type="curve" smooth="yes"/>
      <point x="46" y="58"/>
      <point x="140" y="-12"/>
    </contour>
  </outline>
</glyph>
<glyph name="f" format="1">
  <advance width="600"/>
  <unicode hex="0066"/>
  <outline>
    <contour>
      <point x="144" y="0" type="line"/>
      <point x="281" y="0" type="line"/>
      <point x="383" y="516" type="line" smooth="yes"/>
      <point x="396" y="580"/>
      <point x="434" y="604"/>
      <point x="487" y="604" type="curve" smooth="yes"/>
      <point x="526" y="604"/>
      <point x="552" y="595"/>
      <point x="579" y="575" type="curve"/>
      <point x="640" y="661" type="line"/>
      <point x="608" y="686"/>
      <point x="555" y="713"/>
      <point x="481" y="713" type="curve" smooth="yes"/>
      <point x="352" y="713"/>
      <point x="274" y="647"/>
      <point x="248" y="517" type="curve" smooth="yes"/>
    </contour>
    <contour>
      <point x="88" y="389" type="line"/>
      <point x="531" y="389" type="line"/>
      <point x="552" y="496" type="line"/>
      <point x="245" y="496" type="line"/>
      <point x="109" y="490" type="line"/>
    </contour>
    <contour>
      <point x="471" y="732" type="move" name="aboveUC"/>
    </contour>
    <contour>
      <point x="216" y="0" type="move" name="baseLC"/>
    </contour>
    <contour>
      <point x="213" y="-20" type="move" name="belowLC"/>
    </contour>
  </outline>
</glyph>
<glyph name="g" format="1">
  <advance width="600"/>
  <unicode hex="0067"/>
  <outline>
    <contour>
      <point x="207" y="-196" type="curve" smooth="yes"/>
      <point x="332" y="-196"/>
      <point x="443" y="-147"/>
      <point x="475" y="9" type="curve" smooth="yes"/>
      <point x="573" y="496" type="line"/>
      <point x="465" y="496" type="line"/>
      <point x="442" y="443" type="line"/>
      <point x="438" y="443" type="line"/>
      <point x="414" y="483"/>
      <point x="366" y="508"/>
      <point x="301" y="508" type="curve" smooth="yes"/>
      <point x="167" y="508"/>
      <point x="41" y="378"/>
      <point x="41" y="200" type="curve" smooth="yes"/>
      <point x="41" y="87"/>
      <point x="105" y="15"/>
      <point x="210" y="15" type="curve" smooth="yes"/>
      <point x="264" y="15"/>
      <point x="323" y="42"/>
      <point x="362" y="79" type="curve"/>
      <point x="366" y="79" type="line"/>
      <point x="345" y="4" type="line" smooth="yes"/>
      <point x="323" y="-72"/>
      <point x="264" y="-88"/>
      <point x="204" y="-88" type="curve" smooth="yes"/>
      <point x="153" y="-88"/>
      <point x="100" y="-68"/>
      <point x="62" y="-36" type="curve"/>
      <point x="3" y="-131" type="line"/>
      <point x="52" y="-169"/>
      <point x="117" y="-196"/>
    </contour>
    <contour>
      <point x="258" y="127" type="curve" smooth="yes"/>
      <point x="209" y="127"/>
      <point x="183" y="156"/>
      <point x="183" y="221" type="curve" smooth="yes"/>
      <point x="183" y="327"/>
      <point x="257" y="396"/>
      <point x="323" y="396" type="curve" smooth="yes"/>
      <point x="357" y="396"/>
      <point x="385" y="380"/>
      <point x="408" y="347" type="curve"/>
      <point x="374" y="187" type="line"/>
      <point x="338" y="148"/>
      <point x="297" y="127"/>
    </contour>
    <contour>
      <point x="348" y="516" type="move" name="aboveLC"/>
    </contour>
    <contour>
      <point x="217" y="-205" type="move" name="belowLC"/>
    </contour>
  </outline>
</glyph>
<glyph name="h" format="1">
  <advance width="600"/>
  <unicode hex="0068"/>
  <outline>
    <contour>
      <point x="16" y="0" type="line"/>
      <point x="153" y="0" type="line"/>
      <point x="212" y="303" type="line"/>
      <point x="258" y="361"/>
      <point x="310" y="391"/>
      <point x="352" y="391" type="curve" smooth="yes"/>
      <point x="385" y="391"/>
      <point x="403" y="375"/>
      <point x="403" y="341" type="curve" smooth="yes"/>
      <point x="403" y="326"/>
      <point x="400" y="310"/>
      <point x="396" y="290" type="curve" smooth="yes"/>
      <point x="338" y="0" type="line"/>
      <point x="475" y="0" type="line"/>
      <point x="536" y="306" type="line" smooth="yes"/>
      <point x="541" y="331"/>
      <point x="544" y="357"/>
      <point x="544" y="381" type="curve" smooth="yes"/>
      <point x="544" y="463"/>
      <point x="499" y="508"/>
      <point x="416" y="508" type="curve" smooth="yes"/>
      <point x="348" y="508"/>
      <point x="282" y="467"/>
      <point x="232" y="414" type="curve"/>
      <point x="228" y="414" type="line"/>
      <point x="251" y="495" type="line"/>
      <point x="293" y="701" type="line"/>
      <point x="156" y="701" type="line"/>
    </contour>
    <contour>
      <point x="226" y="732" type="move" name="aboveUC"/>
    </contour>
    <contour>
      <point x="86" y="0" type="move" name="baseLC"/>
    </contour>
    <contour>
      <point x="251" y="-20" type="move" name="belowLC"/>
    </contour>
  </outline>
</glyph>
<glyph name="j" format="1">
  <advance width="600"/>
  <unicode hex="006A"/>
  <outline>
    <contour>
      <point x="437" y="753" type="move" name="aboveLC"/>
    </contour>
    <contour>
      <point x="171" y="-205" type="move" name="belowLC"/>
    </contour>
    <component base="dotlessj"/>
    <component base="dotaccentcmb" xOffset="59"/>
  </outline>
</glyph>
<glyph name="k" format="1">
  <advance width="600"/>
  <unicode hex="006B"/>
  <outline>
    <contour>
      <point x="21" y="0" type="line"/>
      <point x="158" y="0" type="line"/>
      <point x="181" y="118" type="line"/>
      <point x="342" y="253" type="line"/>
      <point x="609" y="496" type="line"/>
      <point x="450" y="496" type="line"/>
      <point x="219" y="291" type="line"/>
      <point x="215" y="291" type="line"/>
      <point x="298" y="701" type="line"/>
      <point x="162" y="701" type="line"/>
    </contour>
    <contour>
      <point x="283" y="229" type="line"/>
      <point x="387" y="0" type="line"/>
      <point x="524" y="0" type="line"/>
      <point x="370" y="322" type="line"/>
    </contour>
    <contour>
      <point x="230" y="724" type="move" name="aboveUC"/>
    </contour>
    <contour>
      <point x="272" y="-20" type="move" name="belowLC"/>
    </contour>
  </outline>
</glyph>
<glyph name="l" format="1">
  <advance width="600"/>
  <unicode hex="006C"/>
  <outline>
    <contour>
      <point x="326" y="-12" type="curve" smooth="yes"/>
      <point x="381" y="-12"/>
      <point x="428" y="-3"/>
      <point x="479" y="20" type="curve"/>
      <point x="450" y="121" type="line"/>
      <point x="417" y="106"/>
      <point x="397" y="100"/>
      <point x="368" y="100" type="curve" smooth="yes"/>
      <point x="335" y="100"/>
      <point x="310" y="116"/>
      <point x="310" y="153" type="curve" smooth="yes"/>
      <point x="310" y="168"/>
      <point x="312" y="180"/>
      <point x="314" y="190" type="curve" smooth="yes"/>
      <point x="426" y="701" type="line"/>
      <point x="150" y="701" type="line"/>
      <point x="127" y="594" type="line"/>
      <point x="269" y="594" type="line"/>
      <point x="182" y="206" type="line" smooth="yes"/>
      <point x="176" y="183"/>
      <point x="174" y="163"/>
      <point x="174" y="144" type="curve" smooth="yes"/>
      <point x="174" y="45"/>
      <point x="237" y="-12"/>
    </contour>
    <contour>
      <point x="357" y="732" type="move" name="aboveUC"/>
    </contour>
    <contour>
      <point x="284" y="367" type="move" name="center"/>
    </contour>
    <contour>
      <point x="320" y="0" type="move" name="baseLC"/>
    </contour>
    <contour>
      <point x="314" y="-20" type="move" name="belowLC"/>
    </contour>
  </outline>
</glyph>
<glyph name="m" format="1">
  <advance width="600"/>
  <unicode hex="006D"/>
  <outline>
    <contour>
      <point x="-20" y="0" type="line"/>
      <point x="107" y="0" type="line"/>
      <point x="172" y="339" type="line"/>
      <point x="195" y="376"/>
      <point x="216" y="391"/>
      <point x="240" y="391" type="curve" smooth="yes"/>
      <point x="255" y="391"/>
      <point x="264" y="385"/>
      <point x="264" y="366" type="curve" smooth="yes"/>
      <point x="264" y="360"/>
      <point x="263" y="354"/>
      <point x="261" y="342" type="curve" smooth="yes"/>
      <point x="190" y="0" type="line"/>
      <point x="297" y="0" type="line"/>
      <point x="367" y="340" type="line"/>
      <point x="388" y="376"/>
      <point x="408" y="391"/>
      <point x="431" y="391" type="curve" smooth="yes"/>
      <point x="445" y="391"/>
      <point x="453" y="385"/>
      <point x="453" y="366" type="curve" smooth="yes"/>
      <point x="453" y="360"/>
      <point x="453" y="354"/>
      <point x="450" y="342" type="curve" smooth="yes"/>
      <point x="380" y="0" type="line"/>
      <point x="506" y="0" type="line"/>
      <point x="580" y="368" type="line" smooth="yes"/>
      <point x="585" y="388"/>
      <point x="587" y="402"/>
      <point x="587" y="420" type="curve" smooth="yes"/>
      <point x="587" y="478"/>
      <point x="557" y="508"/>
      <point x="509" y="508" type="curve" smooth="yes"/>
      <point x="454" y="508"/>
      <point x="405" y="480"/>
      <point x="368" y="421" type="curve"/>
      <point x="380" y="429" type="line"/>
      <point x="376" y="483"/>
      <point x="353" y="508"/>
      <point x="310" y="508" type="curve" smooth="yes"/>
      <point x="253" y="508"/>
      <point x="208" y="473"/>
      <point x="177" y="431" type="curve"/>
      <point x="174" y="431" type="line"/>
      <point x="176" y="496" type="line"/>
      <point x="77" y="496" type="line"/>
    </contour>
    <contour>
      <point x="350" y="516" type="move" name="aboveLC"/>
    </contour>
    <contour>
      <point x="446" y="0" type="move" name="baseLC"/>
    </contour>
    <contour>
      <point x="248" y="-20" type="move" name="belowLC"/>
    </contour>
  </outline>
</glyph>
<glyph name="n" format="1">
  <advance width="600"/>
  <unicode hex="006E"/>
  <outline>
    <contour>
      <point x="16" y="0" type="line"/>
      <point x="153" y="0" type="line"/>
      <point x="212" y="303" type="line"/>
      <point x="258" y="361"/>
      <point x="310" y="391"/>
      <point x="352" y="391" type="curve" smooth="yes"/>
      <point x="385" y="391"/>
      <point x="403" y="375"/>
      <point x="403" y="341" type="curve" smooth="yes"/>
      <point x="403" y="326"/>
      <point x="400" y="310"/>
      <point x="396" y="290" type="curve" smooth="yes"/>
      <point x="338" y="0" type="line"/>
      <point x="475" y="0" type="line"/>
      <point x="536" y="306" type="line" smooth="yes"/>
      <point x="541" y="331"/>
      <point x="544" y="357"/>
      <point x="544" y="381" type="curve" smooth="yes"/>
      <point x="544" y="463"/>
      <point x="499" y="508"/>
      <point x="416" y="508" type="curve" smooth="yes"/>
      <point x="345" y="508"/>
      <point x="272" y="460"/>
      <point x="222" y="411" type="curve"/>
      <point x="218" y="411" type="line"/>
      <point x="224" y="496" type="line"/>
      <point x="113" y="496" type="line"/>
    </contour>
    <contour>
      <point x="353" y="516" type="move" name="aboveLC"/>
    </contour>
    <contour>
      <point x="406" y="0" type="move" name="baseLC"/>
    </contour>
    <contour>
      <point x="251" y="-20" type="move" name="belowLC"/>
    </contour>
  </outline>
</glyph>
<glyph name="o" format="1">
  <advance width="600"/>
  <unicode hex="006F"/>
  <outline>
    <contour>
      <point x="254" y="-12" type="curve" smooth="yes"/>
      <point x="404" y="-12"/>
      <point x="543" y="108"/>
      <point x="543" y="287" type="curve" smooth="yes"/>
      <point x="543" y="420"/>
      <point x="460" y="508"/>
      <point x="323" y="508" type="curve" smooth="yes"/>
      <point x="173" y="508"/>
      <point x="35" y="388"/>
      <point x="35" y="209" type="curve" smooth="yes"/>
      <point x="35" y="76"/>
      <point x="118" y="-12"/>
    </contour>
    <contour>
      <point x="264" y="100" type="curve" smooth="yes"/>
      <point x="208" y="100"/>
      <point x="173" y="141"/>
      <point x="173" y="213" type="curve" smooth="yes"/>
      <point x="173" y="321"/>
      <point x="241" y="396"/>
      <point x="313" y="396" type="curve" smooth="yes"/>
      <point x="369" y="396"/>
      <point x="404" y="355"/>
      <point x="404" y="283" type="curve" smooth="yes"/>
      <point x="404" y="176"/>
      <point x="336" y="100"/>
    </contour>
    <contour>
      <point x="353" y="496" type="move" name="hornLC"/>
    </contour>
    <contour>
      <point x="340" y="516" type="move" name="aboveLC"/>
    </contour>
    <contour>
      <point x="240" y="0" type="move" name="ogonekLC"/>
    </contour>
    <contour>
      <point x="240" y="0" type="move" name="baseLC"/>
    </contour>
    <contour>
      <point x="234" y="-20" type="move" name="belowLC"/>
    </contour>
  </outline>
</glyph>
<glyph name="p" format="1">
  <advance width="600"/>
  <unicode hex="0070"/>
  <outline>
    <contour>
      <point x="-22" y="-184" type="line"/>
      <point x="115" y="-184" type="line"/>
      <point x="141" y="-50" type="line"/>
      <point x="155" y="47" type="line"/>
      <point x="157" y="47" type="line"/>
      <point x="184" y="10"/>
      <point x="234" y="-12"/>
      <point x="287" y="-12" type="curve" smooth="yes"/>
      <point x="447" y="-12"/>
      <point x="554" y="133"/>
      <point x="554" y="314" type="curve" smooth="yes"/>
      <point x="554" y="438"/>
      <point x="492" y="508"/>
      <point x="392" y="508" type="curve" smooth="yes"/>
      <point x="330" y="508"/>
      <point x="277" y="475"/>
      <point x="228" y="426" type="curve"/>
      <point x="225" y="426" type="line"/>
      <point x="226" y="496" type="line"/>
      <point x="115" y="496" type="line"/>
    </contour>
    <contour>
      <point x="273" y="100" type="curve" smooth="yes"/>
      <point x="240" y="100"/>
      <point x="202" y="113"/>
      <point x="182" y="146" type="curve"/>
      <point x="218" y="316" type="line"/>
      <point x="257" y="372"/>
      <point x="300" y="396"/>
      <point x="337" y="396" type="curve" smooth="yes"/>
      <point x="381" y="396"/>
      <point x="412" y="366"/>
      <point x="412" y="297" type="curve" smooth="yes"/>
      <point x="412" y="184"/>
      <point x="349" y="100"/>
    </contour>
    <contour>
      <point x="370" y="516" type="move" name="aboveLC"/>
    </contour>
    <contour>
      <point x="56" y="-205" type="move" name="belowLC"/>
    </contour>
  </outline>
</glyph>
<glyph name="q" format="1">
  <advance width="600"/>
  <unicode hex="0071"/>
  <outline>
    <contour>
      <point x="301" y="-184" type="line"/>
      <point x="436" y="-184" type="line"/>
      <point x="573" y="496" type="line"/>
      <point x="465" y="496" type="line"/>
      <point x="442" y="443" type="line"/>
      <point x="438" y="443" type="line"/>
      <point x="414" y="483"/>
      <point x="366" y="508"/>
      <point x="301" y="508" type="curve" smooth="yes"/>
      <point x="160" y="508"/>
      <point x="35" y="361"/>
      <point x="35" y="180" type="curve" smooth="yes"/>
      <point x="35" y="57"/>
      <point x="98" y="-12"/>
      <point x="196" y="-12" type="curve" smooth="yes"/>
      <point x="251" y="-12"/>
      <point x="313" y="18"/>
      <point x="360" y="68" type="curve"/>
      <point x="364" y="68" type="line"/>
      <point x="346" y="25"/>
      <point x="333" y="-29"/>
      <point x="329" y="-47" type="curve" smooth="yes"/>
    </contour>
    <contour>
      <point x="248" y="100" type="curve" smooth="yes"/>
      <point x="204" y="100"/>
      <point x="176" y="130"/>
      <point x="176" y="197" type="curve" smooth="yes"/>
      <point x="176" y="310"/>
      <point x="245" y="396"/>
      <point x="325" y="396" type="curve" smooth="yes"/>
      <point x="353" y="396"/>
      <point x="388" y="382"/>
      <point x="408" y="349" type="curve"/>
      <point x="372" y="176" type="line"/>
      <point x="333" y="123"/>
      <point x="286" y="100"/>
    </contour>
    <contour>
      <point x="351" y="516" type="move" name="aboveLC"/>
    </contour>
    <contour>
      <point x="364" y="-205" type="move" name="belowLC"/>
    </contour>
  </outline>
</glyph>
<glyph name="r" format="1">
  <advance width="600"/>
  <unicode hex="0072"/>
  <outline>
    <contour>
      <point x="73" y="0" type="line"/>
      <point x="210" y="0" type="line"/>
      <point x="254" y="219" type="line"/>
      <point x="312" y="322"/>
      <point x="384" y="386"/>
      <point x="450" y="386" type="curve" smooth="yes"/>
      <point x="479" y="386"/>
      <point x="503" y="381"/>
      <point x="526" y="369" type="curve"/>
      <point x="575" y="487" type="line"/>
      <point x="555" y="500"/>
      <point x="520" y="508"/>
      <point x="477" y="508" type="curve" smooth="yes"/>
      <point x="401" y="508"/>
      <point x="324" y="452"/>
      <point x="272" y="364" type="curve"/>
      <point x="268" y="364" type="line"/>
      <point x="282" y="496" type="line"/>
      <point x="171" y="497" type="line"/>
    </contour>
    <contour>
      <point x="379" y="516" type="move" name="aboveLC"/>
    </contour>
    <contour>
      <point x="146" y="0" type="move" name="baseLC"/>
    </contour>
    <contour>
      <point x="146" y="-20" type="move" name="belowLC"/>
    </contour>
  </outline>
</glyph>
<glyph name="s" format="1">
  <advance width="600"/>
  <unicode hex="0073"/>
  <outline>
    <contour>
      <point x="266" y="-12" type="curve" smooth="yes"/>
      <point x="393" y="-12"/>
      <point x="492" y="38"/>
      <point x="492" y="150" type="curve" smooth="yes"/>
      <point x="492" y="231"/>
      <point x="432" y="269"/>
      <point x="343" y="299" type="curve" smooth="yes"/>
      <point x="267" y="326"/>
      <point x="239" y="338"/>
      <point x="239" y="365" type="curve" smooth="yes"/>
      <point x="239" y="393"/>
      <point x="265" y="406"/>
      <point x="305" y="406" type="curve" smooth="yes"/>
      <point x="361" y="406"/>
      <point x="415" y="380"/>
      <point x="455" y="347" type="curve"/>
      <point x="530" y="427" type="line"/>
      <point x="483" y="472"/>
      <point x="417" y="508"/>
      <point x="320" y="508" type="curve" smooth="yes"/>
      <point x="209" y="508"/>
      <point x="111" y="454"/>
      <point x="111" y="349" type="curve" smooth="yes"/>
      <point x="111" y="273"/>
      <point x="165" y="229"/>
      <point x="265" y="196" type="curve" smooth="yes"/>
      <point x="339" y="173"/>
      <point x="363" y="161"/>
      <point x="363" y="132" type="curve" smooth="yes"/>
      <point x="363" y="104"/>
      <point x="335" y="90"/>
      <point x="288" y="90" type="curve" smooth="yes"/>
      <point x="227" y="90"/>
      <point x="165" y="113"/>
      <point x="114" y="165" type="curve"/>
      <point x="38" y="79" type="line"/>
      <point x="92" y="24"/>
      <point x="173" y="-12"/>
    </contour>
    <contour>
      <point x="346" y="516" type="move" name="aboveLC"/>
    </contour>
    <contour>
      <point x="265" y="0" type="move" name="baseLC"/>
    </contour>
    <contour>
      <point x="265" y="-20" type="move" name="belowLC"/>
    </contour>
  </outline>
</glyph>
<glyph name="t" format="1">
  <advance width="600"/>
  <unicode hex="0074"/>
  <outline>
    <contour>
      <point x="309" y="-12" type="curve" smooth="yes"/>
      <point x="386" y="-12"/>
      <point x="458" y="10"/>
      <point x="502" y="40" type="curve"/>
      <point x="461" y="135" type="line"/>
      <point x="431" y="117"/>
      <point x="392" y="100"/>
      <point x="351" y="100" type="curve" smooth="yes"/>
      <point x="309" y="100"/>
      <point x="279" y="119"/>
      <point x="279" y="170" type="curve" smooth="yes"/>
      <point x="279" y="181"/>
      <point x="280" y="190"/>
      <point x="284" y="208" type="curve" smooth="yes"/>
      <point x="322" y="389" type="line"/>
      <point x="535" y="389" type="line"/>
      <point x="555" y="496" type="line"/>
      <point x="345" y="496" type="line"/>
      <point x="371" y="626" type="line"/>
      <point x="256" y="626" type="line"/>
      <point x="214" y="496" type="line"/>
      <point x="77" y="490" type="line"/>
      <point x="57" y="389" type="line"/>
      <point x="187" y="389" type="line"/>
      <point x="149" y="203" type="line" smooth="yes"/>
      <point x="143" y="176"/>
      <point x="141" y="158"/>
      <point x="141" y="138" type="curve" smooth="yes"/>
      <point x="141" y="47"/>
      <point x="191" y="-12"/>
    </contour>
    <contour>
      <point x="318" y="642" type="move" name="aboveLC"/>
    </contour>
    <contour>
      <point x="305" y="0" type="move" name="baseLC"/>
    </contour>
    <contour>
      <point x="305" y="-20" type="move" name="belowLC"/>
    </contour>
  </outline>
</glyph>
<glyph name="v" format="1">
  <advance width="600"/>
  <unicode hex="0076"/>
  <outline>
    <contour>
      <point x="330" y="518" type="move" name="aboveLC"/>
    </contour>
    <contour>
      <point x="240" y="-22" type="move" name="belowLC"/>
    </contour>
    <contour>
      <point x="162" y="0" type="line"/>
      <point x="321" y="0" type="line"/>
      <point x="602" y="496" type="line"/>
      <point x="466" y="496" type="line"/>
      <point x="338" y="252" type="line" smooth="yes"/>
      <point x="311" y="202"/>
      <point x="285" y="150"/>
      <point x="262" y="101" type="curve"/>
      <point x="258" y="101" type="line"/>
      <point x="253" y="152"/>
      <point x="248" y="202"/>
      <point x="241" y="251" type="curve" smooth="yes"/>
      <point x="205" y="496" type="line"/>
      <point x="70" y="496" type="line"/>
    </contour>
  </outline>
</glyph>
<glyph name="w" format="1">
  <advance width="600"/>
  <unicode hex="0077"/>
  <outline>
    <contour>
      <point x="330" y="519" type="move" name="aboveLC"/>
    </contour>
    <contour>
      <point x="240" y="-22" type="move" name="belowLC"/>
    </contour>
    <contour>
      <point x="31" y="0" type="line"/>
      <point x="190" y="0" type="line"/>
      <point x="257" y="181" type="line" smooth="yes"/>
      <point x="276" y="238"/>
      <point x="287" y="273"/>
      <point x="302" y="326" type="curve"/>
      <point x="306" y="326" type="line"/>
      <point x="302" y="272"/>
      <point x="297" y="229"/>
      <point x="296" y="183" type="curve" smooth="yes"/>
      <point x="294" y="0" type="line"/>
      <point x="447" y="0" type="line"/>
      <point x="625" y="496" type="line"/>
      <point x="499" y="496" type="line"/>
      <point x="423" y="255" type="line" smooth="yes"/>
      <point x="407" y="206"/>
      <point x="394" y="158"/>
      <point x="378" y="109" type="curve"/>
      <point x="374" y="109" type="line"/>
      <point x="376" y="158"/>
      <point x="376" y="206"/>
      <point x="377" y="255" type="curve" smooth="yes"/>
      <point x="374" y="435" type="line"/>
      <point x="278" y="435" type="line"/>
      <point x="206" y="255" type="line" smooth="yes"/>
      <point x="186" y="208"/>
      <point x="169" y="158"/>
      <point x="153" y="109" type="curve"/>
      <point x="149" y="109" type="line"/>
      <point x="152" y="158"/>
      <point x="157" y="206"/>
      <point x="161" y="255" type="curve" smooth="yes"/>
      <point x="178" y="496" type="line"/>
      <point x="48" y="496" type="line"/>
    </contour>
  </outline>
</glyph>
<glyph name="x" format="1">
  <advance width="600"/>
  <unicode hex="0078"/>
  <outline>
    <contour>
      <point x="-14" y="0" type="line"/>
      <point x="139" y="0" type="line"/>
      <point x="209" y="89" type="line" smooth="yes"/>
      <point x="223" y="108"/>
      <point x="251" y="145"/>
      <point x="268" y="168" type="curve"/>
      <point x="274" y="168" type="line"/>
      <point x="284" y="145"/>
      <point x="301" y="108"/>
      <point x="310" y="89" type="curve" smooth="yes"/>
      <point x="353" y="0" type="line"/>
      <point x="494" y="0" type="line"/>
      <point x="366" y="247" type="line"/>
      <point x="583" y="496" type="line"/>
      <point x="430" y="496" type="line"/>
      <point x="364" y="409" type="line" smooth="yes"/>
      <point x="353" y="393"/>
      <point x="320" y="343"/>
      <point x="310" y="326" type="curve"/>
      <point x="306" y="326" type="line"/>
      <point x="300" y="345"/>
      <point x="281" y="390"/>
      <point x="273" y="409" type="curve" smooth="yes"/>
      <point x="232" y="496" type="line"/>
      <point x="95" y="496" type="line"/>
      <point x="211" y="257" type="line"/>
    </contour>
    <contour>
      <point x="330" y="516" type="move" name="aboveLC"/>
    </contour>
    <contour>
      <point x="422" y="0" type="move" name="baseLC"/>
    </contour>
    <contour>
      <point x="245" y="-20" type="move" name="belowLC"/>
    </contour>
  </outline>
</glyph>
<glyph name="y" format="1">
  <advance width="600"/>
  <unicode hex="0079"/>
  <outline>
    <contour>
      <point x="44" y="-194" type="curve" smooth="yes"/>
      <point x="159" y="-194"/>
      <point x="235" y="-138"/>
      <point x="307" y="-14" type="curve" smooth="yes"/>
      <point x="604" y="496" type="line"/>
      <point x="465" y="496" type="line"/>
      <point x="347" y="280" type="line" smooth="yes"/>
      <point x="322" y="232"/>
      <point x="289" y="166"/>
      <point x="269" y="124" type="curve"/>
      <point x="265" y="124" type="line"/>
      <point x="260" y="166"/>
      <point x="251" y="232"/>
      <point x="243" y="280" type="curve" smooth="yes"/>
      <point x="202" y="496" type="line"/>
      <point x="70" y="496" type="line"/>
      <point x="183" y="2" type="line"/>
      <point x="165" y="-27" type="line" smooth="yes"/>
      <point x="138" y="-72"/>
      <point x="105" y="-92"/>
      <point x="52" y="-92" type="curve" smooth="yes"/>
      <point x="32" y="-92"/>
      <point x="6" y="-85"/>
      <point x="-10" y="-77" type="curve"/>
      <point x="-48" y="-170" type="line"/>
      <point x="-28" y="-183"/>
      <point x="8" y="-194"/>
    </contour>
    <contour>
      <point x="96" y="-166" type="move" name="ogonekLC"/>
    </contour>
    <contour>
      <point x="330" y="516" type="move" name="aboveLC"/>
    </contour>
    <contour>
      <point x="195" y="-205" type="move" name="belowLC"/>
    </contour>
  </outline>
</glyph>
<glyph name="z" format="1">
	<unicode hex="007A"/>
	<advance width="600"/>
	<outline>
		<contour>
			<point x="23" y="0" type="line"/>
			<point x="470" y="0" type="line"/>
			<point x="490" y="107" type="line"/>
			<point x="222" y="107" type="line"/>
			<point x="538" y="416" type="line"/>
			<point x="553" y="496" type="line"/>
			<point x="122" y="496" type="line"/>
			<point x="99" y="391" type="line"/>
			<point x="356" y="391" type="line"/>
			<point x="38" y="81" type="line"/>
		</contour>
		<contour>
			<point name="aboveLC" x="338" y="516" type="move"/>
		</contour>
		<contour>
			<point name="baseLC" x="274" y="0" type="move"/>
		</contour>
		<contour>
			<point name="belowLC" x="260" y="-20" type="move"/>
		</contour>
	</outline>
</glyph>
<glyph name="braceleft" format="1">
  <advance width="600"/>
  <unicode hex="007B"/>
  <outline>
    <contour>
      <point x="288" y="-152" type="curve" smooth="yes"/>
      <point x="407" y="-152" type="line"/>
      <point x="422" y="-79" type="line"/>
      <point x="347" y="-79" type="line" smooth="yes"/>
      <point x="306" y="-79"/>
      <point x="281" y="-65"/>
      <point x="281" y="-31" type="curve" smooth="yes"/>
      <point x="281" y="22"/>
      <point x="327" y="130"/>
      <point x="327" y="192" type="curve" smooth="yes"/>
      <point x="327" y="239"/>
      <point x="307" y="263"/>
      <point x="266" y="272" type="curve"/>
      <point x="266" y="276" type="line"/>
      <point x="323" y="288"/>
      <point x="355" y="321"/>
      <point x="370" y="397" type="curve" smooth="yes"/>
      <point x="381" y="456"/>
      <point x="388" y="507"/>
      <point x="398" y="560" type="curve" smooth="yes"/>
      <point x="410" y="615"/>
      <point x="442" y="635"/>
      <point x="488" y="635" type="curve" smooth="yes"/>
      <point x="565" y="635" type="line"/>
      <point x="580" y="708" type="line"/>
      <point x="459" y="708" type="line" smooth="yes"/>
      <point x="365" y="708"/>
      <point x="312" y="673"/>
      <point x="290" y="565" type="curve" smooth="yes"/>
      <point x="276" y="496"/>
      <point x="279" y="457"/>
      <point x="265" y="395" type="curve" smooth="yes"/>
      <point x="257" y="359"/>
      <point x="229" y="320"/>
      <point x="114" y="318" type="curve"/>
      <point x="96" y="238" type="line"/>
      <point x="203" y="236"/>
      <point x="220" y="203"/>
      <point x="220" y="169" type="curve" smooth="yes"/>
      <point x="220" y="124"/>
      <point x="168" y="18"/>
      <point x="168" y="-55" type="curve" smooth="yes"/>
      <point x="168" y="-118"/>
      <point x="209" y="-152"/>
    </contour>
  </outline>
</glyph>
<glyph name="braceright" format="1">
  <advance width="600"/>
  <unicode hex="007D"/>
  <outline>
    <contour>
      <point x="13" y="-152" type="line"/>
      <point x="134" y="-152" type="line" smooth="yes"/>
      <point x="229" y="-152"/>
      <point x="281" y="-117"/>
      <point x="304" y="-9" type="curve" smooth="yes"/>
      <point x="318" y="60"/>
      <point x="315" y="99"/>
      <point x="328" y="161" type="curve" smooth="yes"/>
      <point x="336" y="197"/>
      <point x="365" y="236"/>
      <point x="480" y="238" type="curve"/>
      <point x="497" y="318" type="line"/>
      <point x="391" y="320"/>
      <point x="374" y="353"/>
      <point x="374" y="387" type="curve" smooth="yes"/>
      <point x="374" y="432"/>
      <point x="425" y="538"/>
      <point x="425" y="611" type="curve" smooth="yes"/>
      <point x="425" y="674"/>
      <point x="384" y="708"/>
      <point x="305" y="708" type="curve" smooth="yes"/>
      <point x="186" y="708" type="line"/>
      <point x="172" y="635" type="line"/>
      <point x="246" y="635" type="line" smooth="yes"/>
      <point x="288" y="635"/>
      <point x="312" y="621"/>
      <point x="312" y="587" type="curve" smooth="yes"/>
      <point x="312" y="534"/>
      <point x="266" y="426"/>
      <point x="266" y="364" type="curve" smooth="yes"/>
      <point x="266" y="317"/>
      <point x="286" y="293"/>
      <point x="328" y="284" type="curve"/>
      <point x="327" y="280" type="line"/>
      <point x="271" y="268"/>
      <point x="239" y="235"/>
      <point x="223" y="159" type="curve" smooth="yes"/>
      <point x="212" y="100"/>
      <point x="206" y="49"/>
      <point x="195" y="-4" type="curve" smooth="yes"/>
      <point x="184" y="-59"/>
      <point x="152" y="-79"/>
      <point x="105" y="-79" type="curve" smooth="yes"/>
      <point x="29" y="-79" type="line"/>
    </contour>
  </outline>
</glyph>
<glyph name="asciitilde" format="1">
  <advance width="600"/>
  <unicode hex="007E"/>
  <outline>
    <contour>
      <point x="385" y="246" type="curve" smooth="yes"/>
      <point x="432" y="246"/>
      <point x="485" y="273"/>
      <point x="528" y="348" type="curve"/>
      <point x="458" y="395" type="line"/>
      <point x="439" y="357"/>
      <point x="416" y="339"/>
      <point x="390" y="339" type="curve" smooth="yes"/>
      <point x="337" y="339"/>
      <point x="299" y="416"/>
      <point x="224" y="416" type="curve" smooth="yes"/>
      <point x="176" y="416"/>
      <point x="124" y="389"/>
      <point x="81" y="314" type="curve"/>
      <point x="151" y="267" type="line"/>
      <point x="170" y="305"/>
      <point x="192" y="323"/>
      <point x="219" y="323" type="curve" smooth="yes"/>
      <point x="271" y="323"/>
      <point x="309" y="246"/>
    </contour>
  </outline>
</glyph>
<glyph name="cent" format="1">
  <advance width="600"/>
  <unicode hex="00A2"/>
  <outline>
    <contour>
      <point x="287" y="53" type="curve" smooth="yes"/>
      <point x="362" y="53"/>
      <point x="432" y="83"/>
      <point x="483" y="129" type="curve"/>
      <point x="434" y="214" type="line"/>
      <point x="403" y="190"/>
      <point x="368" y="165"/>
      <point x="316" y="165" type="curve" smooth="yes"/>
      <point x="256" y="165"/>
      <point x="218" y="203"/>
      <point x="218" y="273" type="curve" smooth="yes"/>
      <point x="218" y="373"/>
      <point x="286" y="451"/>
      <point x="382" y="451" type="curve" smooth="yes"/>
      <point x="427" y="451"/>
      <point x="448" y="432"/>
      <point x="471" y="409" type="curve"/>
      <point x="547" y="487" type="line"/>
      <point x="518" y="522"/>
      <point x="466" y="560"/>
      <point x="397" y="560" type="curve" smooth="yes"/>
      <point x="223" y="560"/>
      <point x="83" y="449"/>
      <point x="83" y="260" type="curve" smooth="yes"/>
      <point x="83" y="132"/>
      <point x="167" y="53"/>
    </contour>
    <contour>
      <point x="227" y="-47" type="line"/>
      <point x="303" y="-47" type="line"/>
      <point x="447" y="655" type="line"/>
      <point x="372" y="655" type="line"/>
    </contour>
  </outline>
</glyph>
<glyph name="sterling" format="1">
  <advance width="600"/>
  <unicode hex="00A3"/>
  <outline>
    <contour>
      <point x="15" y="0" type="line"/>
      <point x="457" y="0" type="line"/>
      <point x="478" y="115" type="line"/>
      <point x="220" y="115" type="line"/>
      <point x="222" y="119" type="line"/>
      <point x="278" y="169"/>
      <point x="303" y="218"/>
      <point x="303" y="297" type="curve" smooth="yes"/>
      <point x="303" y="330"/>
      <point x="295" y="373"/>
      <point x="295" y="405" type="curve" smooth="yes"/>
      <point x="295" y="504"/>
      <point x="337" y="537"/>
      <point x="394" y="537" type="curve" smooth="yes"/>
      <point x="430" y="537"/>
      <point x="461" y="518"/>
      <point x="484" y="487" type="curve"/>
      <point x="571" y="559" type="line"/>
      <point x="533" y="612"/>
      <point x="468" y="647"/>
      <point x="394" y="647" type="curve" smooth="yes"/>
      <point x="262" y="647"/>
      <point x="169" y="564"/>
      <point x="169" y="424" type="curve" smooth="yes"/>
      <point x="169" y="382"/>
      <point x="179" y="323"/>
      <point x="179" y="281" type="curve" smooth="yes"/>
      <point x="179" y="192"/>
      <point x="122" y="122"/>
      <point x="32" y="84" type="curve"/>
    </contour>
    <contour>
      <point x="67" y="275" type="line"/>
      <point x="449" y="275" type="line"/>
      <point x="465" y="357" type="line"/>
      <point x="174" y="357" type="line"/>
      <point x="83" y="351" type="line"/>
    </contour>
  </outline>
</glyph>
<glyph name="currency" format="1">
  <advance width="600"/>
  <unicode hex="00A4"/>
  <outline>
    <contour>
      <point x="74" y="69" type="line"/>
      <point x="168" y="153" type="line"/>
      <point x="194" y="138"/>
      <point x="226" y="131"/>
      <point x="262" y="131" type="curve" smooth="yes"/>
      <point x="301" y="131"/>
      <point x="338" y="139"/>
      <point x="371" y="154" type="curve"/>
      <point x="443" y="61" type="line"/>
      <point x="526" y="130" type="line"/>
      <point x="459" y="214" type="line"/>
      <point x="496" y="254"/>
      <point x="518" y="307"/>
      <point x="518" y="363" type="curve" smooth="yes"/>
      <point x="518" y="387"/>
      <point x="514" y="411"/>
      <point x="505" y="431" type="curve"/>
      <point x="603" y="510" type="line"/>
      <point x="541" y="587" type="line"/>
      <point x="441" y="503" type="line"/>
      <point x="414" y="520"/>
      <point x="380" y="529"/>
      <point x="341" y="529" type="curve" smooth="yes"/>
      <point x="301" y="529"/>
      <point x="264" y="520"/>
      <point x="231" y="505" type="curve"/>
      <point x="161" y="591" type="line"/>
      <point x="76" y="520" type="line"/>
      <point x="142" y="442" type="line"/>
      <point x="106" y="402"/>
      <point x="84" y="350"/>
      <point x="84" y="295" type="curve" smooth="yes"/>
      <point x="84" y="265"/>
      <point x="90" y="239"/>
      <point x="101" y="217" type="curve"/>
      <point x="8" y="138" type="line"/>
    </contour>
    <contour>
      <point x="281" y="227" type="curve" smooth="yes"/>
      <point x="235" y="227"/>
      <point x="207" y="259"/>
      <point x="207" y="309" type="curve" smooth="yes"/>
      <point x="207" y="383"/>
      <point x="262" y="436"/>
      <point x="323" y="436" type="curve" smooth="yes"/>
      <point x="367" y="436"/>
      <point x="397" y="404"/>
      <point x="397" y="353" type="curve" smooth="yes"/>
      <point x="397" y="278"/>
      <point x="341" y="227"/>
    </contour>
  </outline>
</glyph>
<glyph name="yen" format="1">
  <advance width="600"/>
  <unicode hex="00A5"/>
  <outline>
    <contour>
      <point x="173" y="0" type="line"/>
      <point x="311" y="0" type="line"/>
      <point x="362" y="275" type="line"/>
      <point x="632" y="636" type="line"/>
      <point x="487" y="636" type="line"/>
      <point x="395" y="495" type="line" smooth="yes"/>
      <point x="367" y="451"/>
      <point x="337" y="396"/>
      <point x="315" y="353" type="curve"/>
      <point x="312" y="353" type="line"/>
      <point x="303" y="400"/>
      <point x="291" y="451"/>
      <point x="280" y="495" type="curve" smooth="yes"/>
      <point x="239" y="636" type="line"/>
      <point x="102" y="636" type="line"/>
      <point x="228" y="282" type="line"/>
    </contour>
    <contour>
      <point x="31" y="141" type="line"/>
      <point x="509" y="141" type="line"/>
      <point x="523" y="206" type="line"/>
      <point x="45" y="206" type="line"/>
    </contour>
    <contour>
      <point x="55" y="263" type="line"/>
      <point x="531" y="263" type="line"/>
      <point x="547" y="329" type="line"/>
      <point x="70" y="329" type="line"/>
    </contour>
  </outline>
</glyph>
<glyph name="brokenbar" format="1">
  <advance width="600"/>
  <unicode hex="00A6"/>
  <outline>
    <contour>
      <point x="240" y="-250" type="line"/>
      <point x="360" y="-250" type="line"/>
      <point x="360" y="206" type="line"/>
      <point x="240" y="206" type="line"/>
    </contour>
    <contour>
      <point x="240" y="308" type="line"/>
      <point x="360" y="308" type="line"/>
      <point x="360" y="750" type="line"/>
      <point x="240" y="750" type="line"/>
    </contour>
  </outline>
</glyph>
<glyph name="section" format="1">
  <advance width="600"/>
  <unicode hex="00A7"/>
  <outline>
    <contour>
      <point x="229" y="-74" type="curve" smooth="yes"/>
      <point x="342" y="-74"/>
      <point x="419" y="-10"/>
      <point x="419" y="91" type="curve" smooth="yes"/>
      <point x="419" y="176"/>
      <point x="337" y="218"/>
      <point x="279" y="252" type="curve" smooth="yes"/>
      <point x="231" y="282"/>
      <point x="202" y="302"/>
      <point x="202" y="339" type="curve" smooth="yes"/>
      <point x="202" y="383"/>
      <point x="241" y="406"/>
      <point x="282" y="417" type="curve"/>
      <point x="224" y="479" type="line"/>
      <point x="148" y="454"/>
      <point x="85" y="399"/>
      <point x="85" y="319" type="curve" smooth="yes"/>
      <point x="85" y="240"/>
      <point x="133" y="199"/>
      <point x="198" y="162" type="curve" smooth="yes"/>
      <point x="248" y="133"/>
      <point x="296" y="111"/>
      <point x="296" y="76" type="curve" smooth="yes"/>
      <point x="296" y="46"/>
      <point x="272" y="27"/>
      <point x="229" y="27" type="curve" smooth="yes"/>
      <point x="180" y="27"/>
      <point x="137" y="58"/>
      <point x="103" y="94" type="curve"/>
      <point x="34" y="14" type="line"/>
      <point x="87" y="-46"/>
      <point x="158" y="-74"/>
    </contour>
    <contour>
      <point x="383" y="126" type="line"/>
      <point x="462" y="158"/>
      <point x="512" y="208"/>
      <point x="512" y="291" type="curve" smooth="yes"/>
      <point x="512" y="375"/>
      <point x="448" y="420"/>
      <point x="383" y="460" type="curve" smooth="yes"/>
      <point x="329" y="494"/>
      <point x="297" y="511"/>
      <point x="297" y="542" type="curve" smooth="yes"/>
      <point x="297" y="572"/>
      <point x="320" y="586"/>
      <point x="349" y="586" type="curve" smooth="yes"/>
      <point x="389" y="586"/>
      <point x="420" y="562"/>
      <point x="446" y="534" type="curve"/>
      <point x="520" y="606" type="line"/>
      <point x="475" y="657"/>
      <point x="413" y="690"/>
      <point x="350" y="690" type="curve" smooth="yes"/>
      <point x="245" y="690"/>
      <point x="173" y="621"/>
      <point x="173" y="528" type="curve" smooth="yes"/>
      <point x="173" y="443"/>
      <point x="248" y="403"/>
      <point x="312" y="364" type="curve" smooth="yes"/>
      <point x="357" y="338"/>
      <point x="393" y="313"/>
      <point x="393" y="272" type="curve" smooth="yes"/>
      <point x="393" y="227"/>
      <point x="362" y="204"/>
      <point x="316" y="192" type="curve"/>
    </contour>
  </outline>
</glyph>
<glyph name="copyright" format="1">
  <advance width="600"/>
  <unicode hex="00A9"/>
  <outline>
    <contour>
      <point x="234" y="-9" type="curve" smooth="yes"/>
      <point x="442" y="-9"/>
      <point x="590" y="155"/>
      <point x="590" y="397" type="curve" smooth="yes"/>
      <point x="590" y="557"/>
      <point x="501" y="654"/>
      <point x="371" y="655" type="curve" smooth="yes"/>
      <point x="175" y="658"/>
      <point x="16" y="495"/>
      <point x="16" y="252" type="curve" smooth="yes"/>
      <point x="16" y="91"/>
      <point x="105" y="-9"/>
    </contour>
    <contour>
      <point x="246" y="48" type="curve" smooth="yes"/>
      <point x="140" y="48"/>
      <point x="78" y="128"/>
      <point x="78" y="258" type="curve" smooth="yes"/>
      <point x="78" y="455"/>
      <point x="201" y="598"/>
      <point x="358" y="598" type="curve" smooth="yes"/>
      <point x="466" y="598"/>
      <point x="528" y="516"/>
      <point x="528" y="391" type="curve" smooth="yes"/>
      <point x="528" y="196"/>
      <point x="404" y="48"/>
    </contour>
    <contour>
      <point x="279" y="128" type="curve" smooth="yes"/>
      <point x="330" y="128"/>
      <point x="375" y="149"/>
      <point x="406" y="176" type="curve"/>
      <point x="370" y="240" type="line"/>
      <point x="348" y="223"/>
      <point x="327" y="210"/>
      <point x="299" y="211" type="curve" smooth="yes"/>
      <point x="264" y="212"/>
      <point x="245" y="237"/>
      <point x="245" y="285" type="curve" smooth="yes"/>
      <point x="245" y="367"/>
      <point x="289" y="435"/>
      <point x="352" y="435" type="curve" smooth="yes"/>
      <point x="375" y="435"/>
      <point x="390" y="426"/>
      <point x="403" y="405" type="curve"/>
      <point x="463" y="457" type="line"/>
      <point x="441" y="490"/>
      <point x="408" y="516"/>
      <point x="355" y="516" type="curve" smooth="yes"/>
      <point x="245" y="516"/>
      <point x="145" y="424"/>
      <point x="145" y="280" type="curve" smooth="yes"/>
      <point x="145" y="187"/>
      <point x="196" y="128"/>
    </contour>
  </outline>
</glyph>
<glyph name="logicalnot" format="1">
  <advance width="600"/>
  <unicode hex="00AC"/>
  <outline>
    <contour>
      <point x="425" y="95" type="line"/>
      <point x="524" y="95" type="line"/>
      <point x="524" y="379" type="line"/>
      <point x="87" y="379" type="line"/>
      <point x="87" y="282" type="line"/>
      <point x="425" y="282" type="line"/>
    </contour>
  </outline>
</glyph>
<glyph name="registered" format="1">
  <advance width="600"/>
  <unicode hex="00AE"/>
  <outline>
    <contour>
      <point x="308" y="313" type="curve" smooth="yes"/>
      <point x="450" y="313"/>
      <point x="549" y="414"/>
      <point x="549" y="549" type="curve" smooth="yes"/>
      <point x="549" y="647"/>
      <point x="482" y="715"/>
      <point x="388" y="715" type="curve" smooth="yes"/>
      <point x="249" y="715"/>
      <point x="147" y="613"/>
      <point x="147" y="478" type="curve" smooth="yes"/>
      <point x="147" y="381"/>
      <point x="213" y="313"/>
    </contour>
    <contour>
      <point x="317" y="358" type="curve" smooth="yes"/>
      <point x="245" y="358"/>
      <point x="199" y="407"/>
      <point x="199" y="482" type="curve" smooth="yes"/>
      <point x="199" y="591"/>
      <point x="280" y="671"/>
      <point x="379" y="671" type="curve" smooth="yes"/>
      <point x="450" y="671"/>
      <point x="496" y="621"/>
      <point x="496" y="545" type="curve" smooth="yes"/>
      <point x="496" y="436"/>
      <point x="417" y="358"/>
    </contour>
    <contour>
      <point x="249" y="416" type="line"/>
      <point x="304" y="416" type="line"/>
      <point x="336" y="579" type="line"/>
      <point x="325" y="574" type="line"/>
      <point x="357" y="574" type="line" smooth="yes"/>
      <point x="376" y="574"/>
      <point x="385" y="564"/>
      <point x="385" y="550" type="curve" smooth="yes"/>
      <point x="385" y="532"/>
      <point x="370" y="516"/>
      <point x="345" y="516" type="curve" smooth="yes"/>
      <point x="309" y="516" type="line"/>
      <point x="304" y="478" type="line"/>
      <point x="339" y="478" type="line" smooth="yes"/>
      <point x="403" y="478"/>
      <point x="444" y="510"/>
      <point x="444" y="557" type="curve" smooth="yes"/>
      <point x="444" y="598"/>
      <point x="415" y="614"/>
      <point x="375" y="614" type="curve" smooth="yes"/>
      <point x="289" y="614" type="line"/>
    </contour>
    <contour>
      <point x="337" y="483" type="line"/>
      <point x="366" y="416" type="line"/>
      <point x="423" y="416" type="line"/>
      <point x="388" y="494" type="line"/>
    </contour>
  </outline>
</glyph>
<glyph name="degree" format="1">
  <advance width="600"/>
  <unicode hex="00B0"/>
  <outline>
    <contour>
      <point x="317" y="404" type="curve" smooth="yes"/>
      <point x="414" y="404"/>
      <point x="489" y="471"/>
      <point x="489" y="570" type="curve" smooth="yes"/>
      <point x="489" y="638"/>
      <point x="445" y="686"/>
      <point x="371" y="686" type="curve" smooth="yes"/>
      <point x="277" y="686"/>
      <point x="201" y="619"/>
      <point x="201" y="520" type="curve" smooth="yes"/>
      <point x="201" y="451"/>
      <point x="250" y="404"/>
    </contour>
    <contour>
      <point x="330" y="468" type="curve" smooth="yes"/>
      <point x="295" y="468"/>
      <point x="274" y="493"/>
      <point x="274" y="530" type="curve" smooth="yes"/>
      <point x="274" y="580"/>
      <point x="312" y="624"/>
      <point x="361" y="624" type="curve" smooth="yes"/>
      <point x="397" y="624"/>
      <point x="416" y="599"/>
      <point x="416" y="561" type="curve" smooth="yes"/>
      <point x="416" y="510"/>
      <point x="379" y="468"/>
    </contour>
  </outline>
</glyph>
<glyph name="plusminus" format="1">
  <advance width="600"/>
  <unicode hex="00B1"/>
  <outline>
    <contour>
      <point x="255" y="154" type="line"/>
      <point x="354" y="154" type="line"/>
      <point x="354" y="311" type="line"/>
      <point x="529" y="311" type="line"/>
      <point x="529" y="408" type="line"/>
      <point x="354" y="408" type="line"/>
      <point x="354" y="564" type="line"/>
      <point x="255" y="564" type="line"/>
      <point x="255" y="408" type="line"/>
      <point x="80" y="408" type="line"/>
      <point x="80" y="311" type="line"/>
      <point x="255" y="311" type="line"/>
    </contour>
    <contour>
      <point x="80" y="0" type="line"/>
      <point x="529" y="0" type="line"/>
      <point x="529" y="97" type="line"/>
      <point x="80" y="97" type="line"/>
    </contour>
  </outline>
</glyph>
<glyph name="paragraph" format="1">
  <advance width="600"/>
  <unicode hex="00B6"/>
  <outline>
    <contour>
      <point x="284" y="200" type="curve" smooth="yes"/>
      <point x="304" y="200" type="line"/>
      <point x="395" y="652" type="line"/>
      <point x="361" y="652" type="line" smooth="yes"/>
      <point x="208" y="652"/>
      <point x="67" y="571"/>
      <point x="67" y="383" type="curve" smooth="yes"/>
      <point x="67" y="265"/>
      <point x="167" y="200"/>
    </contour>
    <contour>
      <point x="302" y="-80" type="line"/>
      <point x="438" y="-80" type="line"/>
      <point x="583" y="652" type="line"/>
      <point x="446" y="652" type="line"/>
    </contour>
  </outline>
</glyph>
<glyph name="AE" format="1">
	<unicode hex="00C6"/>
	<advance width="600"/>
	<outline>
		<contour>
			<point x="-65" y="0" type="line"/>
			<point x="75" y="0" type="line"/>
			<point x="257" y="360" type="line" smooth="yes"/>
			<point x="288" y="420"/>
			<point x="321" y="484"/>
			<point x="354" y="550" type="curve"/>
			<point x="358" y="550" type="line"/>
			<point x="248" y="0" type="line"/>
			<point x="527" y="0" type="line"/>
			<point x="549" y="115" type="line"/>
			<point x="390" y="115" type="line"/>
			<point x="424" y="281" type="line"/>
			<point x="545" y="281" type="line"/>
			<point x="567" y="395" type="line"/>
			<point x="447" y="395" type="line"/>
			<point x="475" y="537" type="line"/>
			<point x="625" y="537" type="line"/>
			<point x="647" y="652" type="line"/>
			<point x="287" y="652" type="line"/>
		</contour>
		<contour>
			<point x="99" y="159" type="line"/>
			<point x="332" y="159" type="line"/>
			<point x="353" y="262" type="line"/>
			<point x="120" y="262" type="line"/>
		</contour>
		<contour>
			<point name="aboveUC" x="467" y="672" type="move"/>
		</contour>
		<contour>
			<point name="baseLC" x="400" y="0" type="move"/>
		</contour>
		<contour>
			<point name="belowLC" x="284" y="-20" type="move"/>
		</contour>
	</outline>
</glyph>
<glyph name="multiply" format="1">
  <advance width="600"/>
  <unicode hex="00D7"/>
  <outline>
    <contour>
      <point x="166" y="117" type="line"/>
      <point x="307" y="263" type="line"/>
      <point x="449" y="117" type="line"/>
      <point x="516" y="184" type="line"/>
      <point x="375" y="330" type="line"/>
      <point x="516" y="476" type="line"/>
      <point x="449" y="544" type="line"/>
      <point x="307" y="398" type="line"/>
      <point x="166" y="544" type="line"/>
      <point x="98" y="476" type="line"/>
      <point x="240" y="330" type="line"/>
      <point x="98" y="184" type="line"/>
    </contour>
  </outline>
</glyph>
<glyph name="Oslash" format="1">
  <advance width="600"/>
  <unicode hex="00D8"/>
  <outline>
    <contour>
      <point x="250" y="-12" type="curve" smooth="yes"/>
      <point x="443" y="-12"/>
      <point x="577" y="175"/>
      <point x="576" y="400" type="curve" smooth="yes"/>
      <point x="576" y="564"/>
      <point x="491" y="664"/>
      <point x="358" y="664" type="curve" smooth="yes"/>
      <point x="167" y="664"/>
      <point x="30" y="483"/>
      <point x="30" y="252" type="curve" smooth="yes"/>
      <point x="31" y="87"/>
      <point x="117" y="-12"/>
    </contour>
    <contour>
      <point x="264" y="106" type="curve" smooth="yes"/>
      <point x="202" y="106"/>
      <point x="166" y="150"/>
      <point x="166" y="239" type="curve" smooth="yes"/>
      <point x="165" y="415"/>
      <point x="247" y="545"/>
      <point x="344" y="545" type="curve" smooth="yes"/>
      <point x="405" y="545"/>
      <point x="440" y="503"/>
      <point x="440" y="413" type="curve" smooth="yes"/>
      <point x="441" y="243"/>
      <point x="365" y="106"/>
    </contour>
    <contour>
      <point x="39" y="-41" type="line"/>
      <point x="646" y="643" type="line"/>
      <point x="582" y="693" type="line"/>
      <point x="-25" y="9" type="line"/>
    </contour>
    <contour>
      <point x="370" y="672" type="move" name="aboveUC"/>
    </contour>
    <contour>
      <point x="238" y="0" type="move" name="baseLC"/>
    </contour>
  </outline>
</glyph>
<glyph name="Thorn" format="1">
  <advance width="600"/>
  <unicode hex="00DE"/>
  <outline>
    <contour>
      <point x="19" y="0" type="line"/>
      <point x="154" y="0" type="line"/>
      <point x="180" y="126" type="line"/>
      <point x="262" y="126" type="line" smooth="yes"/>
      <point x="425" y="126"/>
      <point x="564" y="196"/>
      <point x="564" y="378" type="curve" smooth="yes"/>
      <point x="564" y="503"/>
      <point x="474" y="551"/>
      <point x="356" y="551" type="curve" smooth="yes"/>
      <point x="266" y="551" type="line"/>
      <point x="286" y="652" type="line"/>
      <point x="149" y="652" type="line"/>
    </contour>
    <contour>
      <point x="203" y="234" type="line"/>
      <point x="243" y="442" type="line"/>
      <point x="326" y="442" type="line" smooth="yes"/>
      <point x="392" y="442"/>
      <point x="429" y="416"/>
      <point x="429" y="358" type="curve" smooth="yes"/>
      <point x="429" y="276"/>
      <point x="374" y="234"/>
      <point x="276" y="234" type="curve" smooth="yes"/>
    </contour>
  </outline>
</glyph>
<glyph name="ae" format="1">
  <advance width="600"/>
  <unicode hex="00E6"/>
  <outline>
    <contour>
      <point x="101" y="-12" type="curve" smooth="yes"/>
      <point x="165" y="-12"/>
      <point x="220" y="20"/>
      <point x="273" y="81" type="curve"/>
      <point x="238" y="145" type="line"/>
      <point x="212" y="116"/>
      <point x="174" y="92"/>
      <point x="144" y="92" type="curve" smooth="yes"/>
      <point x="120" y="92"/>
      <point x="105" y="106"/>
      <point x="105" y="134" type="curve" smooth="yes"/>
      <point x="105" y="184"/>
      <point x="146" y="222"/>
      <point x="254" y="240" type="curve"/>
      <point x="263" y="321" type="line"/>
      <point x="67" y="293"/>
      <point x="-19" y="227"/>
      <point x="-19" y="105" type="curve" smooth="yes"/>
      <point x="-19" y="38"/>
      <point x="21" y="-12"/>
    </contour>
    <contour>
      <point x="313" y="209" type="line"/>
      <point x="570" y="209" type="line"/>
      <point x="579" y="231"/>
      <point x="596" y="280"/>
      <point x="596" y="347" type="curve" smooth="yes"/>
      <point x="596" y="432"/>
      <point x="560" y="506"/>
      <point x="476" y="506" type="curve" smooth="yes"/>
      <point x="420" y="506"/>
      <point x="365" y="481"/>
      <point x="322" y="421" type="curve"/>
      <point x="340" y="413" type="line"/>
      <point x="332" y="469"/>
      <point x="292" y="506"/>
      <point x="232" y="506" type="curve" smooth="yes"/>
      <point x="158" y="506"/>
      <point x="96" y="481"/>
      <point x="48" y="444" type="curve"/>
      <point x="93" y="364" type="line"/>
      <point x="128" y="387"/>
      <point x="161" y="402"/>
      <point x="197" y="402" type="curve" smooth="yes"/>
      <point x="243" y="402"/>
      <point x="259" y="366"/>
      <point x="247" y="314" type="curve" smooth="yes"/>
      <point x="237" y="270"/>
      <point x="226" y="226"/>
      <point x="226" y="159" type="curve" smooth="yes"/>
      <point x="226" y="66"/>
      <point x="283" y="-12"/>
      <point x="395" y="-12" type="curve" smooth="yes"/>
      <point x="441" y="-12"/>
      <point x="500" y="7"/>
      <point x="539" y="39" type="curve"/>
      <point x="501" y="124" type="line"/>
      <point x="468" y="101"/>
      <point x="440" y="91"/>
      <point x="407" y="91" type="curve" smooth="yes"/>
      <point x="360" y="91"/>
      <point x="334" y="125"/>
      <point x="334" y="180" type="curve" smooth="yes"/>
      <point x="334" y="303"/>
      <point x="386" y="403"/>
      <point x="448" y="403" type="curve" smooth="yes"/>
      <point x="479" y="403"/>
      <point x="491" y="379"/>
      <point x="491" y="342" type="curve" smooth="yes"/>
      <point x="491" y="323"/>
      <point x="487" y="302"/>
      <point x="483" y="281" type="curve"/>
      <point x="505" y="292" type="line"/>
      <point x="314" y="292" type="line"/>
    </contour>
  </outline>
</glyph>
<glyph name="eth" format="1">
  <advance width="600"/>
  <unicode hex="00F0"/>
  <outline>
    <contour>
      <point x="241" y="-12" type="curve" smooth="yes"/>
      <point x="425" y="-12"/>
      <point x="554" y="114"/>
      <point x="554" y="339" type="curve" smooth="yes"/>
      <point x="554" y="537"/>
      <point x="439" y="679"/>
      <point x="276" y="749" type="curve"/>
      <point x="218" y="654" type="line"/>
      <point x="354" y="583"/>
      <point x="423" y="495"/>
      <point x="423" y="343" type="curve" smooth="yes"/>
      <point x="423" y="180"/>
      <point x="350" y="98"/>
      <point x="255" y="98" type="curve" smooth="yes"/>
      <point x="194" y="98"/>
      <point x="158" y="135"/>
      <point x="158" y="203" type="curve" smooth="yes"/>
      <point x="158" y="283"/>
      <point x="214" y="353"/>
      <point x="304" y="353" type="curve" smooth="yes"/>
      <point x="359" y="353"/>
      <point x="400" y="332"/>
      <point x="429" y="285" type="curve"/>
      <point x="440" y="358" type="line"/>
      <point x="420" y="407"/>
      <point x="371" y="452"/>
      <point x="279" y="452" type="curve" smooth="yes"/>
      <point x="147" y="452"/>
      <point x="26" y="354"/>
      <point x="26" y="194" type="curve" smooth="yes"/>
      <point x="26" y="58"/>
      <point x="122" y="-12"/>
    </contour>
    <contour>
      <point x="214" y="488" type="line"/>
      <point x="589" y="663" type="line"/>
      <point x="566" y="725" type="line"/>
      <point x="190" y="549" type="line"/>
    </contour>
  </outline>
</glyph>
<glyph name="divide" format="1">
  <advance width="600"/>
  <unicode hex="00F7"/>
  <outline>
    <contour>
      <point x="305" y="438" type="curve" smooth="yes"/>
      <point x="348" y="438"/>
      <point x="382" y="469"/>
      <point x="382" y="512" type="curve" smooth="yes"/>
      <point x="382" y="553"/>
      <point x="348" y="584"/>
      <point x="305" y="584" type="curve" smooth="yes"/>
      <point x="263" y="584"/>
      <point x="229" y="553"/>
      <point x="229" y="512" type="curve" smooth="yes"/>
      <point x="229" y="469"/>
      <point x="263" y="438"/>
    </contour>
    <contour>
      <point x="305" y="76" type="curve" smooth="yes"/>
      <point x="348" y="76"/>
      <point x="382" y="105"/>
      <point x="382" y="148" type="curve" smooth="yes"/>
      <point x="382" y="189"/>
      <point x="348" y="221"/>
      <point x="305" y="221" type="curve" smooth="yes"/>
      <point x="263" y="221"/>
      <point x="229" y="189"/>
      <point x="229" y="148" type="curve" smooth="yes"/>
      <point x="229" y="105"/>
      <point x="263" y="76"/>
    </contour>
    <contour>
      <point x="80" y="282" type="line"/>
      <point x="529" y="282" type="line"/>
      <point x="529" y="379" type="line"/>
      <point x="80" y="379" type="line"/>
    </contour>
  </outline>
</glyph>
<glyph name="oslash" format="1">
  <advance width="600"/>
  <unicode hex="00F8"/>
  <outline>
    <contour>
      <point x="238" y="-12" type="curve" smooth="yes"/>
      <point x="398" y="-12"/>
      <point x="543" y="101"/>
      <point x="543" y="295" type="curve" smooth="yes"/>
      <point x="543" y="426"/>
      <point x="455" y="508"/>
      <point x="339" y="508" type="curve" smooth="yes"/>
      <point x="178" y="508"/>
      <point x="34" y="391"/>
      <point x="34" y="199" type="curve" smooth="yes"/>
      <point x="34" y="67"/>
      <point x="122" y="-12"/>
    </contour>
    <contour>
      <point x="257" y="95" type="curve" smooth="yes"/>
      <point x="199" y="95"/>
      <point x="167" y="139"/>
      <point x="167" y="206" type="curve" smooth="yes"/>
      <point x="167" y="306"/>
      <point x="229" y="401"/>
      <point x="320" y="401" type="curve" smooth="yes"/>
      <point x="379" y="401"/>
      <point x="410" y="356"/>
      <point x="410" y="289" type="curve" smooth="yes"/>
      <point x="410" y="188"/>
      <point x="349" y="95"/>
    </contour>
    <contour>
      <point x="46" y="-27" type="line"/>
      <point x="570" y="478" type="line"/>
      <point x="526" y="522" type="line"/>
      <point x="2" y="17" type="line"/>
    </contour>
    <contour>
      <point x="340" y="516" type="move" name="aboveLC"/>
    </contour>
    <contour>
      <point x="238" y="0" type="move" name="baseLC"/>
    </contour>
    <contour>
      <point x="234" y="-20" type="move" name="belowLC"/>
    </contour>
  </outline>
</glyph>
<glyph name="thorn" format="1">
  <advance width="600"/>
  <unicode hex="00FE"/>
  <outline>
    <contour>
      <point x="-22" y="-184" type="line"/>
      <point x="115" y="-184" type="line"/>
      <point x="141" y="-50" type="line"/>
      <point x="155" y="47" type="line"/>
      <point x="157" y="47" type="line"/>
      <point x="184" y="10"/>
      <point x="234" y="-12"/>
      <point x="287" y="-12" type="curve" smooth="yes"/>
      <point x="447" y="-12"/>
      <point x="554" y="133"/>
      <point x="554" y="314" type="curve" smooth="yes"/>
      <point x="554" y="438"/>
      <point x="494" y="508"/>
      <point x="390" y="508" type="curve" smooth="yes"/>
      <point x="338" y="508"/>
      <point x="279" y="480"/>
      <point x="235" y="436" type="curve"/>
      <point x="232" y="436" type="line"/>
      <point x="261" y="542" type="line"/>
      <point x="293" y="701" type="line"/>
      <point x="156" y="701" type="line"/>
    </contour>
    <contour>
      <point x="273" y="100" type="curve" smooth="yes"/>
      <point x="240" y="100"/>
      <point x="202" y="113"/>
      <point x="182" y="146" type="curve"/>
      <point x="218" y="316" type="line"/>
      <point x="257" y="372"/>
      <point x="300" y="396"/>
      <point x="337" y="396" type="curve" smooth="yes"/>
      <point x="381" y="396"/>
      <point x="412" y="366"/>
      <point x="412" y="297" type="curve" smooth="yes"/>
      <point x="412" y="184"/>
      <point x="349" y="100"/>
    </contour>
    <contour>
      <point x="231" y="732" type="move" name="aboveUC"/>
    </contour>
    <contour>
      <point x="56" y="-205" type="move" name="belowLC"/>
    </contour>
  </outline>
</glyph>
<glyph name="Aogonek" format="1">
  <advance width="600"/>
  <unicode hex="0104"/>
  <outline>
    <contour>
      <point x="405" y="-227" type="curve" smooth="yes"/>
      <point x="442" y="-227"/>
      <point x="488" y="-215"/>
      <point x="517" y="-194" type="curve"/>
      <point x="490" y="-129" type="line"/>
      <point x="478" y="-136"/>
      <point x="468" y="-139"/>
      <point x="456" y="-139" type="curve" smooth="yes"/>
      <point x="431" y="-139"/>
      <point x="412" y="-126"/>
      <point x="412" y="-103" type="curve" smooth="yes"/>
      <point x="412" y="-61"/>
      <point x="464" y="-10"/>
      <point x="523" y="0" type="curve"/>
      <point x="455" y="652" type="line"/>
      <point x="292" y="652" type="line"/>
      <point x="-43" y="0" type="line"/>
      <point x="108" y="0" type="line"/>
      <point x="266" y="354" type="line" smooth="yes"/>
      <point x="296" y="419"/>
      <point x="321" y="480"/>
      <point x="349" y="547" type="curve"/>
      <point x="353" y="547" type="line"/>
      <point x="355" y="480"/>
      <point x="358" y="417"/>
      <point x="362" y="353" type="curve" smooth="yes"/>
      <point x="379" y="0" type="line"/>
      <point x="414" y="0" type="line"/>
      <point x="371" y="-22"/>
      <point x="304" y="-78"/>
      <point x="304" y="-147" type="curve" smooth="yes"/>
      <point x="304" y="-199"/>
      <point x="347" y="-227"/>
    </contour>
    <contour>
      <point x="120" y="164" type="line"/>
      <point x="420" y="164" type="line"/>
      <point x="443" y="267" type="line"/>
      <point x="145" y="267" type="line"/>
    </contour>
    <contour>
      <point x="371" y="672" type="move" name="aboveUC"/>
    </contour>
  </outline>
</glyph>
<glyph name="aogonek" format="1">
  <advance width="600"/>
  <unicode hex="0105"/>
  <outline>
    <contour>
      <point x="356" y="-227" type="curve" smooth="yes"/>
      <point x="401" y="-227"/>
      <point x="442" y="-212"/>
      <point x="471" y="-189" type="curve"/>
      <point x="448" y="-134" type="line"/>
      <point x="432" y="-142"/>
      <point x="420" y="-145"/>
      <point x="405" y="-145" type="curve" smooth="yes"/>
      <point x="379" y="-145"/>
      <point x="356" y="-131"/>
      <point x="356" y="-103" type="curve" smooth="yes"/>
      <point x="356" y="-68"/>
      <point x="385" y="-29"/>
      <point x="473" y="-1" type="curve"/>
      <point x="573" y="496" type="line"/>
      <point x="463" y="496" type="line"/>
      <point x="442" y="443" type="line"/>
      <point x="438" y="443" type="line"/>
      <point x="414" y="483"/>
      <point x="366" y="508"/>
      <point x="301" y="508" type="curve" smooth="yes"/>
      <point x="160" y="508"/>
      <point x="35" y="361"/>
      <point x="35" y="180" type="curve" smooth="yes"/>
      <point x="35" y="57"/>
      <point x="98" y="-12"/>
      <point x="197" y="-12" type="curve" smooth="yes"/>
      <point x="253" y="-12"/>
      <point x="313" y="18"/>
      <point x="360" y="68" type="curve"/>
      <point x="364" y="68" type="line"/>
      <point x="362" y="2" type="line"/>
      <point x="320" y="-22"/>
      <point x="257" y="-74"/>
      <point x="257" y="-142" type="curve" smooth="yes"/>
      <point x="257" y="-199"/>
      <point x="299" y="-227"/>
    </contour>
    <contour>
      <point x="248" y="100" type="curve" smooth="yes"/>
      <point x="204" y="100"/>
      <point x="176" y="129"/>
      <point x="176" y="197" type="curve" smooth="yes"/>
      <point x="176" y="310"/>
      <point x="245" y="396"/>
      <point x="325" y="396" type="curve" smooth="yes"/>
      <point x="353" y="396"/>
      <point x="389" y="382"/>
      <point x="408" y="349" type="curve"/>
      <point x="372" y="176" type="line"/>
      <point x="333" y="123"/>
      <point x="286" y="100"/>
    </contour>
    <contour>
      <point x="346" y="516" type="move" name="aboveLC"/>
    </contour>
  </outline>
</glyph>
<glyph name="dcaron" format="1">
  <advance width="600"/>
  <unicode hex="010F"/>
  <outline>
    <contour>
      <point x="140" y="-12" type="curve" smooth="yes"/>
      <point x="189" y="-12"/>
      <point x="242" y="6"/>
      <point x="286" y="52" type="curve"/>
      <point x="288" y="52" type="line"/>
      <point x="289" y="0" type="line"/>
      <point x="401" y="0" type="line"/>
      <point x="542" y="701" type="line"/>
      <point x="405" y="701" type="line"/>
      <point x="376" y="550" type="line"/>
      <point x="364" y="456" type="line"/>
      <point x="362" y="456" type="line"/>
      <point x="338" y="489"/>
      <point x="305" y="508"/>
      <point x="263" y="508" type="curve" smooth="yes"/>
      <point x="126" y="508"/>
      <point x="12" y="361"/>
      <point x="12" y="180" type="curve" smooth="yes"/>
      <point x="12" y="57"/>
      <point x="62" y="-12"/>
    </contour>
    <contour>
      <point x="207" y="100" type="curve" smooth="yes"/>
      <point x="176" y="100"/>
      <point x="153" y="129"/>
      <point x="153" y="197" type="curve" smooth="yes"/>
      <point x="153" y="310"/>
      <point x="212" y="396"/>
      <point x="279" y="396" type="curve" smooth="yes"/>
      <point x="303" y="396"/>
      <point x="322" y="384"/>
      <point x="337" y="357" type="curve"/>
      <point x="296" y="160" type="line"/>
      <point x="264" y="113"/>
      <point x="234" y="100"/>
    </contour>
    <component base="caron.alt" xOffset="269"/>
  </outline>
</glyph>
<glyph name="dcroat" format="1">
  <advance width="600"/>
  <unicode hex="0111"/>
  <outline>
    <contour>
      <point x="187" y="-12" type="curve" smooth="yes"/>
      <point x="243" y="-12"/>
      <point x="303" y="18"/>
      <point x="350" y="68" type="curve"/>
      <point x="354" y="68" type="line"/>
      <point x="352" y="0" type="line"/>
      <point x="463" y="0" type="line"/>
      <point x="604" y="701" type="line"/>
      <point x="468" y="701" type="line"/>
      <point x="433" y="522" type="line"/>
      <point x="421" y="428" type="line"/>
      <point x="419" y="428" type="line"/>
      <point x="394" y="464"/>
      <point x="353" y="488"/>
      <point x="288" y="488" type="curve" smooth="yes"/>
      <point x="141" y="488"/>
      <point x="25" y="349"/>
      <point x="25" y="180" type="curve" smooth="yes"/>
      <point x="25" y="57"/>
      <point x="88" y="-12"/>
    </contour>
    <contour>
      <point x="238" y="100" type="curve" smooth="yes"/>
      <point x="194" y="100"/>
      <point x="167" y="130"/>
      <point x="167" y="197" type="curve" smooth="yes"/>
      <point x="167" y="298"/>
      <point x="226" y="376"/>
      <point x="312" y="376" type="curve" smooth="yes"/>
      <point x="340" y="376"/>
      <point x="374" y="362"/>
      <point x="394" y="329" type="curve"/>
      <point x="362" y="176" type="line"/>
      <point x="323" y="123"/>
      <point x="276" y="100"/>
    </contour>
    <contour>
      <point x="283" y="559" type="line"/>
      <point x="568" y="559" type="line"/>
      <point x="644" y="565" type="line"/>
      <point x="656" y="625" type="line"/>
      <point x="296" y="625" type="line"/>
    </contour>
    <contour>
      <point x="545" y="732" type="move" name="aboveUC"/>
    </contour>
    <contour>
      <point x="250" y="-20" type="move" name="belowLC"/>
    </contour>
  </outline>
</glyph>
<glyph name="Eogonek" format="1">
  <advance width="600"/>
  <unicode hex="0118"/>
  <outline>
    <contour>
      <point x="349" y="-227" type="curve" smooth="yes"/>
      <point x="386" y="-227"/>
      <point x="431" y="-215"/>
      <point x="461" y="-194" type="curve"/>
      <point x="434" y="-129" type="line"/>
      <point x="421" y="-136"/>
      <point x="412" y="-139"/>
      <point x="400" y="-139" type="curve" smooth="yes"/>
      <point x="375" y="-139"/>
      <point x="355" y="-126"/>
      <point x="355" y="-103" type="curve" smooth="yes"/>
      <point x="355" y="-54"/>
      <point x="425" y="0"/>
      <point x="472" y="0" type="curve" smooth="yes"/>
      <point x="474" y="0" type="line"/>
      <point x="496" y="115" type="line"/>
      <point x="198" y="115" type="line"/>
      <point x="232" y="280" type="line"/>
      <point x="474" y="280" type="line"/>
      <point x="496" y="395" type="line"/>
      <point x="254" y="395" type="line"/>
      <point x="282" y="537" type="line"/>
      <point x="572" y="537" type="line"/>
      <point x="594" y="652" type="line"/>
      <point x="169" y="652" type="line"/>
      <point x="38" y="0" type="line"/>
      <point x="362" y="0" type="line"/>
      <point x="312" y="-25"/>
      <point x="248" y="-78"/>
      <point x="248" y="-147" type="curve" smooth="yes"/>
      <point x="248" y="-199"/>
      <point x="290" y="-227"/>
    </contour>
    <contour>
      <point x="367" y="672" type="move" name="aboveUC"/>
    </contour>
  </outline>
</glyph>
<glyph name="eogonek" format="1">
  <advance width="600"/>
  <unicode hex="0119"/>
  <outline>
    <contour>
      <point x="329" y="-227" type="curve" smooth="yes"/>
      <point x="374" y="-227"/>
      <point x="414" y="-212"/>
      <point x="444" y="-189" type="curve"/>
      <point x="420" y="-134" type="line"/>
      <point x="404" y="-142"/>
      <point x="393" y="-145"/>
      <point x="378" y="-145" type="curve" smooth="yes"/>
      <point x="352" y="-145"/>
      <point x="328" y="-131"/>
      <point x="328" y="-103" type="curve" smooth="yes"/>
      <point x="328" y="-56"/>
      <point x="387" y="-9"/>
      <point x="493" y="54" type="curve"/>
      <point x="447" y="145" type="line"/>
      <point x="402" y="115"/>
      <point x="356" y="93"/>
      <point x="299" y="93" type="curve" smooth="yes"/>
      <point x="235" y="93"/>
      <point x="183" y="124"/>
      <point x="183" y="213" type="curve" smooth="yes"/>
      <point x="183" y="341"/>
      <point x="266" y="403"/>
      <point x="330" y="403" type="curve" smooth="yes"/>
      <point x="379" y="403"/>
      <point x="411" y="373"/>
      <point x="411" y="316" type="curve" smooth="yes"/>
      <point x="411" y="303"/>
      <point x="408" y="290"/>
      <point x="405" y="278" type="curve"/>
      <point x="444" y="298" type="line"/>
      <point x="164" y="298" type="line"/>
      <point x="149" y="211" type="line"/>
      <point x="519" y="211" type="line"/>
      <point x="525" y="227"/>
      <point x="536" y="272"/>
      <point x="536" y="313" type="curve" smooth="yes"/>
      <point x="536" y="428"/>
      <point x="463" y="508"/>
      <point x="334" y="508" type="curve" smooth="yes"/>
      <point x="182" y="508"/>
      <point x="46" y="387"/>
      <point x="46" y="208" type="curve" smooth="yes"/>
      <point x="46" y="58"/>
      <point x="140" y="-12"/>
      <point x="267" y="-12" type="curve" smooth="yes"/>
      <point x="283" y="-12"/>
      <point x="305" y="-9"/>
      <point x="319" y="-6" type="curve"/>
      <point x="278" y="-37"/>
      <point x="230" y="-82"/>
      <point x="230" y="-142" type="curve" smooth="yes"/>
      <point x="230" y="-199"/>
      <point x="272" y="-227"/>
    </contour>
    <contour>
      <point x="342" y="516" type="move" name="aboveLC"/>
    </contour>
  </outline>
</glyph>
<glyph name="Hbar" format="1">
  <advance width="600"/>
  <unicode hex="0126"/>
  <outline>
    <contour>
      <point x="4" y="0" type="line"/>
      <point x="140" y="0" type="line"/>
      <point x="195" y="279" type="line"/>
      <point x="391" y="279" type="line"/>
      <point x="335" y="0" type="line"/>
      <point x="471" y="0" type="line"/>
      <point x="601" y="653" type="line"/>
      <point x="465" y="653" type="line"/>
      <point x="415" y="397" type="line"/>
      <point x="219" y="397" type="line"/>
      <point x="270" y="653" type="line"/>
      <point x="135" y="653" type="line"/>
    </contour>
    <contour>
      <point x="39" y="487" type="line"/>
      <point x="630" y="487" type="line"/>
      <point x="643" y="553" type="line"/>
      <point x="120" y="553" type="line"/>
      <point x="51" y="548" type="line"/>
    </contour>
  </outline>
</glyph>
<glyph name="hbar" format="1">
  <advance width="600"/>
  <unicode hex="0127"/>
  <outline>
    <contour>
      <point x="17" y="0" type="line"/>
      <point x="154" y="0" type="line"/>
      <point x="210" y="281" type="line"/>
      <point x="256" y="339"/>
      <point x="308" y="370"/>
      <point x="350" y="370" type="curve" smooth="yes"/>
      <point x="383" y="370"/>
      <point x="401" y="353"/>
      <point x="401" y="320" type="curve" smooth="yes"/>
      <point x="401" y="305"/>
      <point x="398" y="288"/>
      <point x="394" y="268" type="curve" smooth="yes"/>
      <point x="340" y="0" type="line"/>
      <point x="476" y="0" type="line"/>
      <point x="534" y="285" type="line" smooth="yes"/>
      <point x="539" y="310"/>
      <point x="542" y="335"/>
      <point x="542" y="359" type="curve" smooth="yes"/>
      <point x="542" y="441"/>
      <point x="496" y="486"/>
      <point x="413" y="486" type="curve" smooth="yes"/>
      <point x="346" y="486"/>
      <point x="279" y="445"/>
      <point x="229" y="392" type="curve"/>
      <point x="225" y="392" type="line"/>
      <point x="249" y="473" type="line"/>
      <point x="295" y="701" type="line"/>
      <point x="158" y="701" type="line"/>
    </contour>
    <contour>
      <point x="61" y="559" type="line"/>
      <point x="451" y="559" type="line"/>
      <point x="465" y="625" type="line"/>
      <point x="151" y="625" type="line"/>
      <point x="73" y="620" type="line"/>
    </contour>
  </outline>
</glyph>
<glyph name="Iogonek" format="1">
  <advance width="600"/>
  <unicode hex="012E"/>
  <outline>
    <contour>
      <point x="372" y="674" type="move" name="aboveUC"/>
    </contour>
    <contour>
      <point x="215" y="-227" type="curve" smooth="yes"/>
      <point x="252" y="-227"/>
      <point x="298" y="-215"/>
      <point x="327" y="-194" type="curve"/>
      <point x="300" y="-129" type="line"/>
      <point x="288" y="-136"/>
      <point x="278" y="-139"/>
      <point x="266" y="-139" type="curve" smooth="yes"/>
      <point x="241" y="-139"/>
      <point x="222" y="-126"/>
      <point x="222" y="-103" type="curve" smooth="yes"/>
      <point x="222" y="-73"/>
      <point x="252" y="-27"/>
      <point x="317" y="0" type="curve"/>
      <point x="459" y="0" type="line"/>
      <point x="483" y="115" type="line"/>
      <point x="329" y="115" type="line"/>
      <point x="414" y="537" type="line"/>
      <point x="567" y="537" type="line"/>
      <point x="591" y="652" type="line"/>
      <point x="147" y="652" type="line"/>
      <point x="123" y="537" type="line"/>
      <point x="277" y="537" type="line"/>
      <point x="191" y="115" type="line"/>
      <point x="40" y="115" type="line"/>
      <point x="15" y="0" type="line"/>
      <point x="217" y="0" type="line"/>
      <point x="178" y="-24"/>
      <point x="114" y="-81"/>
      <point x="114" y="-147" type="curve" smooth="yes"/>
      <point x="114" y="-199"/>
      <point x="157" y="-227"/>
    </contour>
  </outline>
</glyph>
<glyph name="kgreenlandic" format="1">
  <advance width="600"/>
  <unicode hex="0138"/>
  <outline>
    <contour>
      <point x="21" y="0" type="line"/>
      <point x="158" y="0" type="line"/>
      <point x="181" y="118" type="line"/>
      <point x="342" y="253" type="line"/>
      <point x="609" y="496" type="line"/>
      <point x="450" y="496" type="line"/>
      <point x="219" y="291" type="line"/>
      <point x="215" y="291" type="line"/>
      <point x="255" y="496" type="line"/>
      <point x="119" y="496" type="line"/>
    </contour>
    <contour>
      <point x="283" y="229" type="line"/>
      <point x="387" y="0" type="line"/>
      <point x="524" y="0" type="line"/>
      <point x="370" y="322" type="line"/>
    </contour>
  </outline>
</glyph>
<glyph name="Lslash" format="1">
  <advance width="600"/>
  <unicode hex="0141"/>
  <outline>
    <contour>
      <point x="41" y="174" type="line"/>
      <point x="142" y="223" type="line"/>
      <point x="241" y="269" type="line"/>
      <point x="507" y="400" type="line"/>
      <point x="474" y="488" type="line"/>
      <point x="264" y="383" type="line"/>
      <point x="164" y="337" type="line"/>
      <point x="8" y="262" type="line"/>
    </contour>
    <component base="L" xOffset="1"/>
    <contour>
      <point x="268" y="672" type="move" name="aboveUC"/>
    </contour>
    <contour>
      <point x="287" y="-20" type="move" name="belowLC"/>
    </contour>
  </outline>
</glyph>
<glyph name="napostrophe" format="1">
  <advance width="600"/>
  <unicode hex="0149"/>
  <outline>
    <contour>
      <point x="165" y="0" type="line"/>
      <point x="302" y="0" type="line"/>
      <point x="364" y="321" type="line"/>
      <point x="405" y="366"/>
      <point x="440" y="391"/>
      <point x="473" y="391" type="curve" smooth="yes"/>
      <point x="502" y="391"/>
      <point x="519" y="374"/>
      <point x="519" y="340" type="curve" smooth="yes"/>
      <point x="519" y="326"/>
      <point x="515" y="310"/>
      <point x="510" y="290" type="curve" smooth="yes"/>
      <point x="452" y="0" type="line"/>
      <point x="589" y="0" type="line"/>
      <point x="650" y="306" type="line" smooth="yes"/>
      <point x="655" y="331"/>
      <point x="659" y="357"/>
      <point x="659" y="381" type="curve" smooth="yes"/>
      <point x="659" y="463"/>
      <point x="625" y="508"/>
      <point x="547" y="508" type="curve" smooth="yes"/>
      <point x="479" y="508"/>
      <point x="423" y="468"/>
      <point x="375" y="424" type="curve"/>
      <point x="371" y="424" type="line"/>
      <point x="374" y="496" type="line"/>
      <point x="262" y="496" type="line"/>
    </contour>
    <component base="quoteright" xOffset="-236"/>
  </outline>
</glyph>
<glyph name="Eng" format="1">
  <advance width="600"/>
  <unicode hex="014A"/>
  <outline>
    <contour>
      <point x="320" y="-12" type="curve" smooth="yes"/>
      <point x="470" y="-12"/>
      <point x="566" y="195"/>
      <point x="566" y="431" type="curve" smooth="yes"/>
      <point x="566" y="598"/>
      <point x="503" y="664"/>
      <point x="410" y="664" type="curve" smooth="yes"/>
      <point x="356" y="664"/>
      <point x="296" y="637"/>
      <point x="251" y="590" type="curve"/>
      <point x="263" y="652" type="line"/>
      <point x="133" y="652" type="line"/>
      <point x="2" y="0" type="line"/>
      <point x="139" y="0" type="line"/>
      <point x="232" y="472" type="line"/>
      <point x="277" y="521"/>
      <point x="322" y="545"/>
      <point x="356" y="545" type="curve" smooth="yes"/>
      <point x="399" y="545"/>
      <point x="426" y="511"/>
      <point x="426" y="422" type="curve" smooth="yes"/>
      <point x="426" y="266"/>
      <point x="367" y="106"/>
      <point x="304" y="106" type="curve" smooth="yes"/>
      <point x="291" y="106"/>
      <point x="280" y="111"/>
      <point x="272" y="116" type="curve"/>
      <point x="222" y="7" type="line"/>
      <point x="241" y="-6"/>
      <point x="285" y="-12"/>
    </contour>
    <contour>
      <point x="380" y="672" type="move" name="aboveUC"/>
    </contour>
    <contour>
      <point x="255" y="-20" type="move" name="belowLC"/>
    </contour>
  </outline>
</glyph>
<glyph name="eng" format="1">
  <advance width="600"/>
  <unicode hex="014B"/>
  <outline>
    <contour>
      <point x="288" y="-187" type="curve" smooth="yes"/>
      <point x="402" y="-187"/>
      <point x="452" y="-110"/>
      <point x="473" y="-8" type="curve"/>
      <point x="536" y="306" type="line" smooth="yes"/>
      <point x="541" y="331"/>
      <point x="544" y="357"/>
      <point x="544" y="381" type="curve" smooth="yes"/>
      <point x="544" y="463"/>
      <point x="499" y="508"/>
      <point x="416" y="508" type="curve" smooth="yes"/>
      <point x="345" y="508"/>
      <point x="272" y="460"/>
      <point x="222" y="411" type="curve"/>
      <point x="218" y="411" type="line"/>
      <point x="224" y="496" type="line"/>
      <point x="113" y="496" type="line"/>
      <point x="16" y="0" type="line"/>
      <point x="153" y="0" type="line"/>
      <point x="212" y="303" type="line"/>
      <point x="258" y="361"/>
      <point x="310" y="391"/>
      <point x="352" y="391" type="curve" smooth="yes"/>
      <point x="385" y="391"/>
      <point x="403" y="375"/>
      <point x="403" y="341" type="curve" smooth="yes"/>
      <point x="403" y="326"/>
      <point x="400" y="310"/>
      <point x="396" y="290" type="curve" smooth="yes"/>
      <point x="338" y="-2" type="line"/>
      <point x="325" y="-57"/>
      <point x="311" y="-78"/>
      <point x="277" y="-78" type="curve" smooth="yes"/>
      <point x="261" y="-78"/>
      <point x="248" y="-74"/>
      <point x="234" y="-66" type="curve"/>
      <point x="193" y="-164" type="line"/>
      <point x="225" y="-180"/>
      <point x="254" y="-187"/>
    </contour>
    <contour>
      <point x="353" y="516" type="move" name="aboveLC"/>
    </contour>
  </outline>
</glyph>
<glyph name="OE" format="1">
  <advance width="600"/>
  <unicode hex="0152"/>
  <outline>
    <contour>
      <point x="253" y="0" type="curve" smooth="yes"/>
      <point x="535" y="0" type="line"/>
      <point x="557" y="115" type="line"/>
      <point x="381" y="115" type="line"/>
      <point x="416" y="280" type="line"/>
      <point x="541" y="280" type="line"/>
      <point x="563" y="395" type="line"/>
      <point x="438" y="395" type="line"/>
      <point x="465" y="537" type="line"/>
      <point x="633" y="537" type="line"/>
      <point x="656" y="652" type="line"/>
      <point x="356" y="652" type="line" smooth="yes"/>
      <point x="174" y="652"/>
      <point x="14" y="502"/>
      <point x="14" y="246" type="curve" smooth="yes"/>
      <point x="14" y="81"/>
      <point x="98" y="0"/>
    </contour>
    <contour>
      <point x="257" y="110" type="line" smooth="yes"/>
      <point x="192" y="110"/>
      <point x="155" y="153"/>
      <point x="155" y="255" type="curve" smooth="yes"/>
      <point x="155" y="427"/>
      <point x="239" y="542"/>
      <point x="334" y="542" type="curve" smooth="yes"/>
      <point x="347" y="542" type="line"/>
      <point x="261" y="110" type="line"/>
    </contour>
    <contour>
      <point x="348" y="672" type="move" name="aboveUC"/>
    </contour>
    <contour>
      <point x="360" y="0" type="move" name="baseLC"/>
    </contour>
  </outline>
</glyph>
<glyph name="oe" format="1">
  <advance width="600"/>
  <unicode hex="0153"/>
  <outline>
    <contour>
      <point x="131" y="-12" type="curve" smooth="yes"/>
      <point x="191" y="-12"/>
      <point x="247" y="13"/>
      <point x="286" y="74" type="curve"/>
      <point x="265" y="83" type="line"/>
      <point x="274" y="21"/>
      <point x="334" y="-12"/>
      <point x="392" y="-12" type="curve" smooth="yes"/>
      <point x="451" y="-12"/>
      <point x="506" y="8"/>
      <point x="547" y="42" type="curve"/>
      <point x="509" y="128" type="line"/>
      <point x="479" y="110"/>
      <point x="452" y="96"/>
      <point x="413" y="96" type="curve" smooth="yes"/>
      <point x="371" y="96"/>
      <point x="347" y="128"/>
      <point x="347" y="193" type="curve" smooth="yes"/>
      <point x="347" y="287"/>
      <point x="387" y="403"/>
      <point x="447" y="403" type="curve" smooth="yes"/>
      <point x="476" y="403"/>
      <point x="486" y="377"/>
      <point x="486" y="340" type="curve" smooth="yes"/>
      <point x="486" y="323"/>
      <point x="484" y="303"/>
      <point x="479" y="283" type="curve"/>
      <point x="494" y="292" type="line"/>
      <point x="325" y="292" type="line"/>
      <point x="318" y="209" type="line"/>
      <point x="573" y="209" type="line"/>
      <point x="580" y="230"/>
      <point x="596" y="284"/>
      <point x="596" y="341" type="curve" smooth="yes"/>
      <point x="596" y="432"/>
      <point x="556" y="508"/>
      <point x="471" y="508" type="curve" smooth="yes"/>
      <point x="419" y="508"/>
      <point x="355" y="478"/>
      <point x="324" y="406" type="curve"/>
      <point x="340" y="403" type="line"/>
      <point x="330" y="472"/>
      <point x="294" y="508"/>
      <point x="231" y="508" type="curve" smooth="yes"/>
      <point x="105" y="508"/>
      <point x="-8" y="377"/>
      <point x="-8" y="179" type="curve" smooth="yes"/>
      <point x="-8" y="59"/>
      <point x="47" y="-12"/>
    </contour>
    <contour>
      <point x="114" y="185" type="curve" smooth="yes"/>
      <point x="114" y="266"/>
      <point x="153" y="397"/>
      <point x="218" y="397" type="curve" smooth="yes"/>
      <point x="249" y="397"/>
      <point x="262" y="363"/>
      <point x="262" y="309" type="curve" smooth="yes"/>
      <point x="262" y="208"/>
      <point x="221" y="97"/>
      <point x="160" y="97" type="curve" smooth="yes"/>
      <point x="128" y="97"/>
      <point x="114" y="132"/>
    </contour>
    <contour>
      <point x="419" y="0" type="move" name="ogonekLC"/>
    </contour>
    <contour>
      <point x="340" y="516" type="move" name="aboveLC"/>
    </contour>
    <contour>
      <point x="395" y="0" type="move" name="baseLC"/>
    </contour>
    <contour>
      <point x="270" y="-20" type="move" name="belowLC"/>
    </contour>
  </outline>
</glyph>
<glyph name="Tbar" format="1">
  <advance width="600"/>
  <unicode hex="0166"/>
  <outline>
    <contour>
      <point x="95" y="295" type="line"/>
      <point x="499" y="295" type="line"/>
      <point x="513" y="364" type="line"/>
      <point x="177" y="364" type="line"/>
      <point x="108" y="358" type="line"/>
    </contour>
    <component base="T"/>
  </outline>
</glyph>
<glyph name="tbar" format="1">
  <advance width="600"/>
  <unicode hex="0167"/>
  <outline>
    <contour>
      <point x="32" y="231" type="line"/>
      <point x="498" y="231" type="line"/>
      <point x="512" y="298" type="line"/>
      <point x="171" y="298" type="line"/>
      <point x="44" y="292" type="line"/>
    </contour>
    <component base="t"/>
  </outline>
</glyph>
<glyph name="Uogonek" format="1">
  <advance width="600"/>
  <unicode hex="0172"/>
  <outline>
    <contour>
      <point x="215" y="-227" type="curve" smooth="yes"/>
      <point x="252" y="-227"/>
      <point x="297" y="-215"/>
      <point x="327" y="-194" type="curve"/>
      <point x="300" y="-129" type="line"/>
      <point x="287" y="-136"/>
      <point x="278" y="-139"/>
      <point x="265" y="-139" type="curve" smooth="yes"/>
      <point x="241" y="-139"/>
      <point x="221" y="-126"/>
      <point x="221" y="-103" type="curve" smooth="yes"/>
      <point x="221" y="-71"/>
      <point x="257" y="-33"/>
      <point x="324" y="-9" type="curve" smooth="yes"/>
      <point x="444" y="36"/>
      <point x="493" y="111"/>
      <point x="523" y="261" type="curve" smooth="yes"/>
      <point x="601" y="652" type="line"/>
      <point x="467" y="652" type="line"/>
      <point x="391" y="269" type="line" smooth="yes"/>
      <point x="366" y="142"/>
      <point x="329" y="106"/>
      <point x="267" y="106" type="curve" smooth="yes"/>
      <point x="214" y="106"/>
      <point x="186" y="141"/>
      <point x="186" y="204" type="curve" smooth="yes"/>
      <point x="186" y="230"/>
      <point x="193" y="257"/>
      <point x="198" y="285" type="curve" smooth="yes"/>
      <point x="271" y="652" type="line"/>
      <point x="134" y="652" type="line"/>
      <point x="64" y="300" type="line" smooth="yes"/>
      <point x="56" y="263"/>
      <point x="53" y="231"/>
      <point x="53" y="193" type="curve" smooth="yes"/>
      <point x="53" y="75"/>
      <point x="112" y="6"/>
      <point x="207" y="-8" type="curve"/>
      <point x="167" y="-34"/>
      <point x="114" y="-88"/>
      <point x="114" y="-147" type="curve" smooth="yes"/>
      <point x="114" y="-199"/>
      <point x="156" y="-227"/>
    </contour>
    <contour>
      <point x="371" y="672" type="move" name="aboveUC"/>
    </contour>
  </outline>
</glyph>
<glyph name="uogonek" format="1">
  <advance width="600"/>
  <unicode hex="0173"/>
  <outline>
    <contour>
      <point x="349" y="-227" type="curve" smooth="yes"/>
      <point x="394" y="-227"/>
      <point x="435" y="-212"/>
      <point x="464" y="-189" type="curve"/>
      <point x="441" y="-134" type="line"/>
      <point x="425" y="-142"/>
      <point x="413" y="-145"/>
      <point x="398" y="-145" type="curve" smooth="yes"/>
      <point x="372" y="-145"/>
      <point x="349" y="-131"/>
      <point x="349" y="-103" type="curve" smooth="yes"/>
      <point x="349" y="-68"/>
      <point x="378" y="-29"/>
      <point x="466" y="-1" type="curve"/>
      <point x="564" y="496" type="line"/>
      <point x="427" y="496" type="line"/>
      <point x="368" y="194" type="line"/>
      <point x="321" y="136"/>
      <point x="273" y="105"/>
      <point x="231" y="105" type="curve" smooth="yes"/>
      <point x="198" y="105"/>
      <point x="179" y="122"/>
      <point x="179" y="156" type="curve" smooth="yes"/>
      <point x="179" y="171"/>
      <point x="183" y="186"/>
      <point x="187" y="206" type="curve" smooth="yes"/>
      <point x="245" y="496" type="line"/>
      <point x="108" y="496" type="line"/>
      <point x="47" y="190" type="line" smooth="yes"/>
      <point x="42" y="165"/>
      <point x="39" y="139"/>
      <point x="39" y="116" type="curve" smooth="yes"/>
      <point x="39" y="33"/>
      <point x="84" y="-12"/>
      <point x="167" y="-12" type="curve" smooth="yes"/>
      <point x="238" y="-12"/>
      <point x="308" y="36"/>
      <point x="357" y="85" type="curve"/>
      <point x="361" y="85" type="line"/>
      <point x="355" y="2" type="line"/>
      <point x="313" y="-22"/>
      <point x="250" y="-74"/>
      <point x="250" y="-142" type="curve" smooth="yes"/>
      <point x="250" y="-199"/>
      <point x="292" y="-227"/>
    </contour>
    <contour>
      <point x="335" y="516" type="move" name="aboveLC"/>
    </contour>
  </outline>
</glyph>
<glyph name="Dhook" format="1">
  <advance width="600"/>
  <unicode hex="018A"/>
  <outline>
    <contour>
      <point x="115" y="0" type="line"/>
      <point x="216" y="0" type="line" smooth="yes"/>
      <point x="438" y="0"/>
      <point x="600" y="165"/>
      <point x="600" y="429" type="curve" smooth="yes"/>
      <point x="600" y="588"/>
      <point x="498" y="665"/>
      <point x="331" y="665" type="curve" smooth="yes"/>
      <point x="118" y="665"/>
      <point x="11" y="531"/>
      <point x="11" y="392" type="curve" smooth="yes"/>
      <point x="11" y="326"/>
      <point x="39" y="284"/>
      <point x="88" y="257" type="curve"/>
      <point x="155" y="340" type="line"/>
      <point x="129" y="358"/>
      <point x="116" y="381"/>
      <point x="116" y="413" type="curve" smooth="yes"/>
      <point x="116" y="487"/>
      <point x="166" y="554"/>
      <point x="275" y="554" type="curve" smooth="yes"/>
      <point x="340" y="554" type="line" smooth="yes"/>
      <point x="426" y="554"/>
      <point x="460" y="512"/>
      <point x="460" y="420" type="curve" smooth="yes"/>
      <point x="460" y="220"/>
      <point x="343" y="110"/>
      <point x="263" y="110" type="curve" smooth="yes"/>
      <point x="258" y="110" type="line"/>
      <point x="354" y="589" type="line"/>
      <point x="231" y="589" type="line"/>
    </contour>
    <contour>
      <point x="388" y="672" type="move" name="aboveUC"/>
    </contour>
    <contour>
      <point x="272" y="-20" type="move" name="belowLC"/>
    </contour>
  </outline>
</glyph>
<glyph name="florin" format="1">
  <advance width="600"/>
  <unicode hex="0192"/>
  <outline>
    <contour>
      <point x="66" y="-96" type="curve" smooth="yes"/>
      <point x="197" y="-97"/>
      <point x="256" y="-18"/>
      <point x="294" y="102" type="curve" smooth="yes"/>
      <point x="416" y="486" type="line" smooth="yes"/>
      <point x="432" y="537"/>
      <point x="457" y="565"/>
      <point x="502" y="565" type="curve" smooth="yes"/>
      <point x="530" y="565"/>
      <point x="548" y="555"/>
      <point x="562" y="545" type="curve"/>
      <point x="615" y="627" type="line"/>
      <point x="587" y="647"/>
      <point x="550" y="665"/>
      <point x="498" y="665" type="curve" smooth="yes"/>
      <point x="397" y="665"/>
      <point x="326" y="622"/>
      <point x="284" y="483" type="curve" smooth="yes"/>
      <point x="180" y="141" type="line" smooth="yes"/>
      <point x="147" y="31"/>
      <point x="117" y="10"/>
      <point x="74" y="7" type="curve" smooth="yes"/>
      <point x="45" y="4"/>
      <point x="25" y="13"/>
      <point x="6" y="23" type="curve"/>
      <point x="-38" y="-69" type="line"/>
      <point x="-19" y="-80"/>
      <point x="22" y="-96"/>
    </contour>
    <contour>
      <point x="144" y="317" type="line"/>
      <point x="494" y="317" type="line"/>
      <point x="514" y="413" type="line"/>
      <point x="237" y="413" type="line"/>
      <point x="163" y="407" type="line"/>
    </contour>
  </outline>
</glyph>
<glyph name="ohorn" format="1">
  <advance width="600"/>
  <unicode hex="01A1"/>
  <outline>
    <contour>
      <point x="482" y="435" type="line"/>
      <point x="579" y="459"/>
      <point x="632" y="507"/>
      <point x="632" y="609" type="curve" smooth="yes"/>
      <point x="632" y="638"/>
      <point x="628" y="658"/>
      <point x="617" y="689" type="curve"/>
      <point x="515" y="657" type="line"/>
      <point x="521" y="638"/>
      <point x="525" y="620"/>
      <point x="524" y="602" type="curve" smooth="yes"/>
      <point x="524" y="531"/>
      <point x="487" y="493"/>
      <point x="426" y="485" type="curve"/>
    </contour>
    <component base="o"/>
    <contour>
      <point x="340" y="516" type="move" name="aboveLC"/>
    </contour>
    <contour>
      <point x="234" y="-20" type="move" name="belowLC"/>
    </contour>
  </outline>
</glyph>
<glyph name="Uhorn" format="1">
  <advance width="600"/>
  <unicode hex="01AF"/>
  <outline>
    <contour>
      <point x="588" y="600" type="line"/>
      <point x="687" y="617"/>
      <point x="739" y="660"/>
      <point x="739" y="736" type="curve" smooth="yes"/>
      <point x="739" y="760"/>
      <point x="734" y="783"/>
      <point x="723" y="808" type="curve"/>
      <point x="620" y="776" type="line"/>
      <point x="627" y="760"/>
      <point x="631" y="743"/>
      <point x="631" y="728" type="curve" smooth="yes"/>
      <point x="631" y="684"/>
      <point x="601" y="656"/>
      <point x="542" y="651" type="curve"/>
    </contour>
    <component base="U"/>
    <contour>
      <point x="371" y="672" type="move" name="aboveUC"/>
    </contour>
    <contour>
      <point x="231" y="-20" type="move" name="belowLC"/>
    </contour>
  </outline>
</glyph>
<glyph name="uhorn" format="1">
  <advance width="600"/>
  <unicode hex="01B0"/>
  <outline>
    <contour>
      <point x="346" y="518" type="move" name="aboveLC"/>
    </contour>
    <contour>
      <point x="257" y="-22" type="move" name="belowLC"/>
    </contour>
    <contour>
      <point x="545" y="445" type="line"/>
      <point x="628" y="464"/>
      <point x="675" y="523"/>
      <point x="675" y="604" type="curve" smooth="yes"/>
      <point x="675" y="625"/>
      <point x="670" y="654"/>
      <point x="660" y="676" type="curve"/>
      <point x="558" y="643" type="line"/>
      <point x="563" y="631"/>
      <point x="568" y="608"/>
      <point x="568" y="596" type="curve" smooth="yes"/>
      <point x="567" y="542"/>
      <point x="535" y="502"/>
      <point x="490" y="496" type="curve"/>
    </contour>
    <component base="u"/>
  </outline>
</glyph>
<glyph name="aturned" format="1">
	<unicode hex="0250"/>
	<advance width="600"/>
	<outline>
		<component base="a.a" xScale="-1" yScale="-1" xOffset="580" yOffset="496"/>
		<contour>
			<point name="aboveLC" x="356" y="516" type="move"/>
		</contour>
		<contour>
			<point name="belowLC" x="248" y="-20" type="move"/>
		</contour>
	</outline>
</glyph>
<glyph name="hhook" format="1">
	<unicode hex="0266"/>
	<advance width="600"/>
	<outline>
		<contour>
			<point x="16" y="0" type="line"/>
			<point x="153" y="0" type="line"/>
			<point x="209" y="286" type="line"/>
			<point x="255" y="344"/>
			<point x="307" y="375"/>
			<point x="349" y="375" type="curve" smooth="yes"/>
			<point x="382" y="375"/>
			<point x="400" y="358"/>
			<point x="400" y="325" type="curve" smooth="yes"/>
			<point x="400" y="310"/>
			<point x="397" y="293"/>
			<point x="393" y="273" type="curve" smooth="yes"/>
			<point x="338" y="0" type="line"/>
			<point x="475" y="0" type="line"/>
			<point x="533" y="290" type="line" smooth="yes"/>
			<point x="538" y="315"/>
			<point x="541" y="340"/>
			<point x="541" y="364" type="curve" smooth="yes"/>
			<point x="541" y="447"/>
			<point x="496" y="492"/>
			<point x="412" y="492" type="curve" smooth="yes"/>
			<point x="345" y="492"/>
			<point x="278" y="450"/>
			<point x="229" y="398" type="curve"/>
			<point x="225" y="398" type="line"/>
			<point x="253" y="503" type="line"/>
			<point x="272" y="575"/>
			<point x="307" y="598"/>
			<point x="362" y="598" type="curve" smooth="yes"/>
			<point x="385" y="598"/>
			<point x="406" y="593"/>
			<point x="427" y="582" type="curve"/>
			<point x="474" y="690" type="line"/>
			<point x="447" y="703"/>
			<point x="412" y="713"/>
			<point x="364" y="713" type="curve" smooth="yes"/>
			<point x="211" y="713"/>
			<point x="141" y="620"/>
			<point x="116" y="499" type="curve" smooth="yes"/>
		</contour>
		<contour>
			<point name="aboveUC" x="341" y="732" type="move"/>
		</contour>
		<contour>
			<point name="belowLC" x="253" y="-20" type="move"/>
		</contour>
	</outline>
</glyph>
<glyph name="istroke" format="1">
  <advance width="600"/>
  <unicode hex="0268"/>
  <outline>
    <component base="istroke.d"/>
    <component base="dotaccentcmb" xOffset="-20"/>
    <contour>
      <point x="340" y="0" type="move" name="baseLC"/>
    </contour>
    <contour>
      <point x="312" y="-20" type="move" name="belowLC"/>
    </contour>
  </outline>
</glyph>
<glyph name="mturned" format="1">
  <advance width="600"/>
  <unicode hex="026F"/>
  <outline>
    <component base="m" xScale="-1.0" yScale="-1.0" xOffset="580" yOffset="496"/>
    <contour>
      <point x="338" y="516" type="move" name="aboveLC"/>
    </contour>
    <contour>
      <point x="242" y="-20" type="move" name="belowLC"/>
    </contour>
  </outline>
</glyph>
<glyph name="nsmall" format="1">
	<unicode hex="0274"/>
	<advance width="600"/>
	<outline>
		<contour>
			<point x="26" y="0" type="line"/>
			<point x="156" y="0" type="line"/>
			<point x="183" y="139" type="line" smooth="yes"/>
			<point x="193" y="189"/>
			<point x="200" y="251"/>
			<point x="205" y="313" type="curve"/>
			<point x="209" y="313" type="line"/>
			<point x="218" y="283"/>
			<point x="232" y="238"/>
			<point x="243" y="209" type="curve" smooth="yes"/>
			<point x="322" y="0" type="line"/>
			<point x="452" y="0" type="line"/>
			<point x="550" y="496" type="line"/>
			<point x="419" y="496" type="line"/>
			<point x="392" y="357" type="line" smooth="yes"/>
			<point x="382" y="307"/>
			<point x="375" y="245"/>
			<point x="370" y="183" type="curve"/>
			<point x="366" y="183" type="line"/>
			<point x="357" y="213"/>
			<point x="342" y="258"/>
			<point x="332" y="287" type="curve" smooth="yes"/>
			<point x="254" y="496" type="line"/>
			<point x="123" y="496" type="line"/>
		</contour>
		<contour>
			<point name="aboveLC" x="330" y="516" type="move"/>
		</contour>
		<contour>
			<point name="belowLC" x="248" y="-20" type="move"/>
		</contour>
	</outline>
</glyph>
<glyph name="rsmallinverted" format="1">
  <advance width="600"/>
  <unicode hex="0281"/>
  <outline>
    <component base="rsmall" xScale="-1.0" yScale="-1.0" xOffset="580" yOffset="496"/>
    <contour>
      <point x="328" y="516" type="move" name="aboveLC"/>
    </contour>
    <contour>
      <point x="248" y="-20" type="move" name="belowLC"/>
    </contour>
  </outline>
</glyph>
<glyph name="yturned" format="1">
	<unicode hex="028E"/>
	<advance width="600"/>
	<outline>
		<contour>
			<point x="-24" y="0" type="line"/>
			<point x="115" y="0" type="line"/>
			<point x="233" y="216" type="line" smooth="yes"/>
			<point x="258" y="264"/>
			<point x="291" y="330"/>
			<point x="311" y="372" type="curve"/>
			<point x="315" y="372" type="line"/>
			<point x="320" y="330"/>
			<point x="329" y="264"/>
			<point x="337" y="216" type="curve" smooth="yes"/>
			<point x="378" y="0" type="line"/>
			<point x="510" y="0" type="line"/>
			<point x="397" y="494" type="line"/>
			<point x="430" y="547" type="line" smooth="yes"/>
			<point x="459" y="592"/>
			<point x="484" y="611"/>
			<point x="533" y="611" type="curve" smooth="yes"/>
			<point x="553" y="611"/>
			<point x="579" y="603"/>
			<point x="595" y="595" type="curve"/>
			<point x="634" y="689" type="line"/>
			<point x="614" y="702"/>
			<point x="578" y="713"/>
			<point x="542" y="713" type="curve" smooth="yes"/>
			<point x="430" y="713"/>
			<point x="360" y="657"/>
			<point x="289" y="533" type="curve" smooth="yes"/>
		</contour>
		<contour>
			<point name="aboveUC" x="465" y="732" type="move"/>
		</contour>
		<contour>
			<point name="belowLC" x="240" y="-20" type="move"/>
		</contour>
	</outline>
</glyph>
<glyph name="lsmall" format="1">
  <advance width="600"/>
  <unicode hex="029F"/>
  <outline>
    <contour>
      <point x="77" y="0" type="line"/>
      <point x="482" y="0" type="line"/>
      <point x="504" y="107" type="line"/>
      <point x="235" y="107" type="line"/>
      <point x="311" y="496" type="line"/>
      <point x="175" y="496" type="line"/>
    </contour>
    <contour>
      <point x="240" y="516" type="move" name="aboveLC"/>
    </contour>
    <contour>
      <point x="294" y="-20" type="move" name="belowLC"/>
    </contour>
  </outline>
</glyph>
<glyph name="ringhalfrightmod" format="1">
  <advance width="600"/>
  <unicode hex="02BE"/>
  <outline>
    <contour>
      <point x="259" y="538" type="line"/>
      <point x="403" y="536"/>
      <point x="482" y="598"/>
      <point x="482" y="698" type="curve" smooth="yes"/>
      <point x="482" y="784"/>
      <point x="417" y="836"/>
      <point x="309" y="832" type="curve"/>
      <point x="295" y="758" type="line"/>
      <point x="351" y="758"/>
      <point x="377" y="732"/>
      <point x="377" y="691" type="curve" smooth="yes"/>
      <point x="377" y="649"/>
      <point x="341" y="615"/>
      <point x="273" y="611" type="curve"/>
    </contour>
  </outline>
</glyph>
<glyph name="ringhalfleftmod" format="1">
  <advance width="600"/>
  <unicode hex="02BF"/>
  <outline>
    <contour>
      <point x="436" y="540" type="curve"/>
      <point x="450" y="613" type="line"/>
      <point x="394" y="613"/>
      <point x="367" y="639"/>
      <point x="367" y="680" type="curve" smooth="yes"/>
      <point x="367" y="722"/>
      <point x="404" y="756"/>
      <point x="471" y="760" type="curve"/>
      <point x="486" y="834" type="line"/>
      <point x="342" y="836"/>
      <point x="263" y="774"/>
      <point x="263" y="673" type="curve" smooth="yes"/>
      <point x="263" y="587"/>
      <point x="327" y="536"/>
    </contour>
  </outline>
</glyph>
<glyph name="gammalatinsupmod" format="1">
  <advance width="600"/>
  <unicode hex="02E0"/>
  <outline>
    <contour>
      <point x="268" y="416" type="line"/>
      <point x="381" y="416" type="line"/>
      <point x="557" y="703" type="line"/>
      <point x="462" y="703" type="line"/>
      <point x="388" y="569" type="line" smooth="yes"/>
      <point x="373" y="544"/>
      <point x="358" y="517"/>
      <point x="336" y="482" type="curve"/>
      <point x="333" y="482" type="line"/>
      <point x="326" y="517"/>
      <point x="322" y="544"/>
      <point x="317" y="569" type="curve" smooth="yes"/>
      <point x="293" y="703" type="line"/>
      <point x="198" y="703" type="line"/>
    </contour>
    <contour>
      <point x="290" y="236" type="curve" smooth="yes"/>
      <point x="362" y="236"/>
      <point x="413" y="291"/>
      <point x="413" y="356" type="curve" smooth="yes"/>
      <point x="413" y="387"/>
      <point x="400" y="416"/>
      <point x="382" y="465" type="curve"/>
      <point x="287" y="465" type="line"/>
      <point x="230" y="393"/>
      <point x="205" y="357"/>
      <point x="205" y="311" type="curve" smooth="yes"/>
      <point x="205" y="265"/>
      <point x="236" y="236"/>
    </contour>
    <contour>
      <point x="302" y="300" type="curve" smooth="yes"/>
      <point x="291" y="300"/>
      <point x="284" y="306"/>
      <point x="284" y="319" type="curve" smooth="yes"/>
      <point x="284" y="334"/>
      <point x="296" y="359"/>
      <point x="317" y="393" type="curve"/>
      <point x="320" y="393" type="line"/>
      <point x="327" y="373"/>
      <point x="330" y="358"/>
      <point x="330" y="343" type="curve" smooth="yes"/>
      <point x="330" y="316"/>
      <point x="318" y="300"/>
    </contour>
  </outline>
</glyph>
<glyph name="acutecmb" format="1">
	<unicode hex="0301"/>
	<advance width="600"/>
	<outline>
		<contour>
			<point x="334" y="578" type="line"/>
			<point x="541" y="718" type="line"/>
			<point x="459" y="822" type="line"/>
			<point x="274" y="656" type="line"/>
		</contour>
		<contour>
			<point name="_aboveLC" x="340" y="516" type="move"/>
		</contour>
		<contour>
			<point name="aboveLC" x="300" y="516" type="move"/>
		</contour>
	</outline>
</glyph>
<glyph name="circumflexcmb" format="1">
  <advance width="600"/>
  <unicode hex="0302"/>
  <outline>
    <contour>
      <point x="221" y="561" type="line"/>
      <point x="368" y="657" type="line"/>
      <point x="372" y="657" type="line"/>
      <point x="478" y="561" type="line"/>
      <point x="539" y="613" type="line"/>
      <point x="454" y="744" type="line"/>
      <point x="304" y="744" type="line"/>
      <point x="173" y="616" type="line"/>
    </contour>
    <contour>
      <point x="340" y="516" type="move" name="_aboveLC"/>
    </contour>
    <contour>
      <point x="386" y="738" type="move" name="aboveLC"/>
    </contour>
  </outline>
</glyph>
<glyph name="dotaccentcmb" format="1">
  <advance width="600"/>
  <unicode hex="0307"/>
  <outline>
    <contour>
      <point x="363" y="570" type="curve" smooth="yes"/>
      <point x="419" y="570"/>
      <point x="464" y="611"/>
      <point x="464" y="665" type="curve" smooth="yes"/>
      <point x="464" y="716"/>
      <point x="427" y="743"/>
      <point x="377" y="743" type="curve" smooth="yes"/>
      <point x="321" y="743"/>
      <point x="277" y="699"/>
      <point x="277" y="648" type="curve" smooth="yes"/>
      <point x="277" y="596"/>
      <point x="318" y="570"/>
    </contour>
    <contour>
      <point x="340" y="516" type="move" name="_aboveLC"/>
    </contour>
    <contour>
      <point x="312" y="547" type="move" name="aboveLC"/>
    </contour>
  </outline>
</glyph>
<glyph name="dblgravecmb" format="1">
  <advance width="600"/>
  <unicode hex="030F"/>
  <outline>
    <contour>
      <point x="212" y="565" type="line"/>
      <point x="296" y="592" type="line"/>
      <point x="241" y="779" type="line"/>
      <point x="134" y="744" type="line"/>
    </contour>
    <contour>
      <point x="391" y="565" type="line"/>
      <point x="475" y="592" type="line"/>
      <point x="420" y="779" type="line"/>
      <point x="313" y="744" type="line"/>
    </contour>
    <contour>
      <point x="340" y="516" type="move" name="_aboveLC"/>
    </contour>
  </outline>
</glyph>
<glyph name="commaabovecmb" format="1">
	<unicode hex="0313"/>
	<advance width="600"/>
	<outline>
		<contour>
			<point x="308" y="562" type="line"/>
			<point x="398" y="585"/>
			<point x="444" y="638"/>
			<point x="444" y="709" type="curve" smooth="yes"/>
			<point x="444" y="754"/>
			<point x="417" y="785"/>
			<point x="374" y="785" type="curve" smooth="yes"/>
			<point x="333" y="785"/>
			<point x="299" y="758"/>
			<point x="299" y="715" type="curve" smooth="yes"/>
			<point x="299" y="684"/>
			<point x="327" y="662"/>
			<point x="356" y="662" type="curve" smooth="yes"/>
			<point x="377" y="662"/>
			<point x="392" y="670"/>
			<point x="411" y="686" type="curve"/>
			<point x="386" y="724" type="line"/>
			<point x="372" y="676" type="line"/>
			<point x="364" y="643"/>
			<point x="339" y="627"/>
			<point x="290" y="612" type="curve"/>
		</contour>
		<contour>
			<point name="_aboveLC" x="340" y="516" type="move"/>
		</contour>
	</outline>
</glyph>
<glyph name="uptackbelowcmb" format="1">
  <advance width="600"/>
  <unicode hex="031D"/>
  <outline>
    <contour>
      <point x="88" y="-229" type="line"/>
      <point x="296" y="-229" type="line"/>
      <point x="310" y="-158" type="line"/>
      <point x="244" y="-158" type="line"/>
      <point x="265" y="-54" type="line"/>
      <point x="190" y="-54" type="line"/>
      <point x="170" y="-158" type="line"/>
      <point x="103" y="-158" type="line"/>
    </contour>
    <contour>
      <point x="234" y="-20" type="move" name="_belowLC"/>
    </contour>
  </outline>
</glyph>
<glyph name="ogonekcmb" format="1">
  <advance width="600"/>
  <unicode hex="0328"/>
  <outline>
    <contour>
      <point x="215" y="-227" type="curve" smooth="yes"/>
      <point x="260" y="-227"/>
      <point x="301" y="-212"/>
      <point x="330" y="-189" type="curve"/>
      <point x="307" y="-134" type="line"/>
      <point x="291" y="-142"/>
      <point x="280" y="-145"/>
      <point x="264" y="-145" type="curve" smooth="yes"/>
      <point x="238" y="-145"/>
      <point x="215" y="-131"/>
      <point x="215" y="-103" type="curve" smooth="yes"/>
      <point x="215" y="-70"/>
      <point x="242" y="-40"/>
      <point x="302" y="2" type="curve"/>
      <point x="216" y="2" type="line"/>
      <point x="179" y="-20"/>
      <point x="116" y="-75"/>
      <point x="116" y="-142" type="curve" smooth="yes"/>
      <point x="116" y="-199"/>
      <point x="158" y="-227"/>
    </contour>
    <contour>
      <point x="240" y="0" type="move" name="_ogonekLC"/>
    </contour>
  </outline>
</glyph>
<glyph name="tildeoverlaycmb" format="1">
  <advance width="600"/>
  <unicode hex="0334"/>
  <outline>
    <contour>
      <point x="381" y="164" type="curve" smooth="yes"/>
      <point x="450" y="164"/>
      <point x="497" y="214"/>
      <point x="515" y="316" type="curve"/>
      <point x="424" y="321" type="line"/>
      <point x="417" y="282"/>
      <point x="400" y="266"/>
      <point x="380" y="266" type="curve" smooth="yes"/>
      <point x="322" y="266"/>
      <point x="284" y="330"/>
      <point x="197" y="330" type="curve" smooth="yes"/>
      <point x="129" y="330"/>
      <point x="81" y="281"/>
      <point x="64" y="178" type="curve"/>
      <point x="154" y="173" type="line"/>
      <point x="161" y="212"/>
      <point x="178" y="229"/>
      <point x="198" y="229" type="curve" smooth="yes"/>
      <point x="256" y="229"/>
      <point x="295" y="164"/>
    </contour>
    <contour>
      <point x="288" y="248" type="move" name="_center"/>
    </contour>
  </outline>
</glyph>
<glyph name="squarebelowcmb" format="1">
  <advance width="600"/>
  <unicode hex="033B"/>
  <outline>
    <contour>
      <point x="67" y="-247" type="line"/>
      <point x="314" y="-247" type="line"/>
      <point x="349" y="-66" type="line"/>
      <point x="103" y="-66" type="line"/>
    </contour>
    <contour>
      <point x="148" y="-193" type="line"/>
      <point x="162" y="-119" type="line"/>
      <point x="270" y="-119" type="line"/>
      <point x="255" y="-193" type="line"/>
    </contour>
    <contour>
      <point x="234" y="-20" type="move" name="_belowLC"/>
    </contour>
  </outline>
</glyph>
<glyph name="macrondoublebelowcmb" format="1">
	<unicode hex="035F"/>
	<advance width="600"/>
	<outline>
		<contour>
			<point x="-302" y="-192" type="line"/>
			<point x="701" y="-192" type="line"/>
			<point x="719" y="-105" type="line"/>
			<point x="-284" y="-105" type="line"/>
		</contour>
	</outline>
</glyph>
<glyph name="pi" format="1">
  <advance width="600"/>
  <unicode hex="03C0"/>
  <outline>
    <contour>
      <point x="166" y="-8" type="line"/>
      <point x="202" y="126"/>
      <point x="237" y="282"/>
      <point x="262" y="404" type="curve"/>
      <point x="137" y="404" type="line"/>
      <point x="116" y="290"/>
      <point x="76" y="137"/>
      <point x="32" y="0" type="curve"/>
    </contour>
    <contour>
      <point x="38" y="391" type="line"/>
      <point x="600" y="391" type="line"/>
      <point x="621" y="496" type="line"/>
      <point x="133" y="496" type="line"/>
      <point x="58" y="490" type="line"/>
    </contour>
    <contour>
      <point x="441" y="-12" type="curve" smooth="yes"/>
      <point x="475" y="-12"/>
      <point x="513" y="-2"/>
      <point x="531" y="5" type="curve"/>
      <point x="520" y="103" type="line"/>
      <point x="510" y="100"/>
      <point x="499" y="97"/>
      <point x="487" y="97" type="curve" smooth="yes"/>
      <point x="471" y="97"/>
      <point x="460" y="105"/>
      <point x="460" y="128" type="curve" smooth="yes"/>
      <point x="460" y="161"/>
      <point x="490" y="291"/>
      <point x="519" y="400" type="curve"/>
      <point x="391" y="400" type="line"/>
      <point x="366" y="298"/>
      <point x="331" y="156"/>
      <point x="331" y="94" type="curve" smooth="yes"/>
      <point x="331" y="31"/>
      <point x="362" y="-12"/>
    </contour>
  </outline>
</glyph>
<glyph name="figuredash" format="1">
	<unicode hex="2012"/>
	<advance width="600"/>
	<outline>
		<contour>
			<point x="59" y="202" type="line"/>
			<point x="499" y="202" type="line"/>
			<point x="520" y="305" type="line"/>
			<point x="80" y="305" type="line"/>
		</contour>
	</outline>
</glyph>
<glyph name="emdash" format="1">
  <advance width="600"/>
  <unicode hex="2014"/>
  <outline>
    <contour>
      <point x="-1" y="202" type="line"/>
      <point x="559" y="202" type="line"/>
      <point x="580" y="305" type="line"/>
      <point x="20" y="305" type="line"/>
    </contour>
  </outline>
</glyph>
<glyph name="underscoredbl" format="1">
  <advance width="600"/>
  <unicode hex="2017"/>
  <outline>
    <contour>
      <point x="-29" y="-145" type="line"/>
      <point x="451" y="-145" type="line"/>
      <point x="469" y="-56" type="line"/>
      <point x="-11" y="-56" type="line"/>
    </contour>
    <contour>
      <point x="-61" y="-290" type="line"/>
      <point x="419" y="-290" type="line"/>
      <point x="437" y="-202" type="line"/>
      <point x="-43" y="-202" type="line"/>
    </contour>
  </outline>
</glyph>
<glyph name="quoteright" format="1">
  <advance width="600"/>
  <unicode hex="2019"/>
  <outline>
    <contour>
      <point x="215" y="320" type="line"/>
      <point x="362" y="352"/>
      <point x="464" y="453"/>
      <point x="464" y="583" type="curve" smooth="yes"/>
      <point x="464" y="657"/>
      <point x="426" y="698"/>
      <point x="372" y="698" type="curve" smooth="yes"/>
      <point x="304" y="698"/>
      <point x="257" y="646"/>
      <point x="257" y="588" type="curve" smooth="yes"/>
      <point x="257" y="536"/>
      <point x="290" y="503"/>
      <point x="341" y="503" type="curve" smooth="yes"/>
      <point x="370" y="503"/>
      <point x="388" y="514"/>
      <point x="404" y="526" type="curve"/>
      <point x="368" y="624" type="line"/>
      <point x="349" y="511" type="line"/>
      <point x="335" y="459"/>
      <point x="281" y="409"/>
      <point x="198" y="389" type="curve"/>
    </contour>
  </outline>
</glyph>
<glyph name="dagger" format="1">
  <advance width="600"/>
  <unicode hex="2020"/>
  <outline>
    <contour>
      <point x="166" y="-80" type="line"/>
      <point x="276" y="-80" type="line"/>
      <point x="374" y="447" type="line"/>
      <point x="525" y="438" type="line"/>
      <point x="546" y="549" type="line"/>
      <point x="391" y="541" type="line"/>
      <point x="434" y="712" type="line"/>
      <point x="324" y="712" type="line"/>
      <point x="297" y="541" type="line"/>
      <point x="147" y="549" type="line"/>
      <point x="125" y="438" type="line"/>
      <point x="280" y="447" type="line"/>
    </contour>
  </outline>
</glyph>
<glyph name="bullet" format="1">
  <advance width="600"/>
  <unicode hex="2022"/>
  <outline>
    <contour>
      <point x="267" y="104" type="curve" smooth="yes"/>
      <point x="369" y="104"/>
      <point x="454" y="177"/>
      <point x="454" y="289" type="curve" smooth="yes"/>
      <point x="454" y="366"/>
      <point x="398" y="420"/>
      <point x="319" y="420" type="curve" smooth="yes"/>
      <point x="215" y="420"/>
      <point x="128" y="347"/>
      <point x="128" y="235" type="curve" smooth="yes"/>
      <point x="128" y="158"/>
      <point x="186" y="104"/>
    </contour>
  </outline>
</glyph>
<glyph name="perthousand" format="1">
  <advance width="600"/>
  <unicode hex="2030"/>
  <outline>
    <contour>
      <point x="174" y="388" type="curve" smooth="yes"/>
      <point x="265" y="388"/>
      <point x="330" y="454"/>
      <point x="330" y="546" type="curve" smooth="yes"/>
      <point x="330" y="609"/>
      <point x="291" y="648"/>
      <point x="228" y="648" type="curve" smooth="yes"/>
      <point x="145" y="648"/>
      <point x="72" y="587"/>
      <point x="72" y="494" type="curve" smooth="yes"/>
      <point x="72" y="431"/>
      <point x="112" y="388"/>
    </contour>
    <contour>
      <point x="185" y="448" type="curve" smooth="yes"/>
      <point x="162" y="448"/>
      <point x="151" y="464"/>
      <point x="151" y="497" type="curve" smooth="yes"/>
      <point x="151" y="554"/>
      <point x="184" y="589"/>
      <point x="219" y="589" type="curve" smooth="yes"/>
      <point x="240" y="589"/>
      <point x="251" y="576"/>
      <point x="251" y="543" type="curve" smooth="yes"/>
      <point x="251" y="480"/>
      <point x="218" y="448"/>
    </contour>
    <contour>
      <point x="106" y="267" type="line"/>
      <point x="606" y="415" type="line"/>
      <point x="582" y="503" type="line"/>
      <point x="91" y="309" type="line"/>
    </contour>
    <contour>
      <point x="94" y="-13" type="curve" smooth="yes"/>
      <point x="184" y="-13"/>
      <point x="250" y="53"/>
      <point x="250" y="145" type="curve" smooth="yes"/>
      <point x="250" y="208"/>
      <point x="210" y="247"/>
      <point x="148" y="247" type="curve" smooth="yes"/>
      <point x="65" y="247"/>
      <point x="-8" y="186"/>
      <point x="-8" y="92" type="curve" smooth="yes"/>
      <point x="-8" y="30"/>
      <point x="32" y="-13"/>
    </contour>
    <contour>
      <point x="104" y="47" type="curve" smooth="yes"/>
      <point x="82" y="47"/>
      <point x="70" y="62"/>
      <point x="70" y="96" type="curve" smooth="yes"/>
      <point x="70" y="153"/>
      <point x="104" y="188"/>
      <point x="138" y="188" type="curve" smooth="yes"/>
      <point x="159" y="188"/>
      <point x="171" y="175"/>
      <point x="171" y="142" type="curve" smooth="yes"/>
      <point x="171" y="79"/>
      <point x="138" y="47"/>
    </contour>
    <contour>
      <point x="376" y="-13" type="curve" smooth="yes"/>
      <point x="467" y="-13"/>
      <point x="532" y="53"/>
      <point x="532" y="145" type="curve" smooth="yes"/>
      <point x="532" y="208"/>
      <point x="493" y="247"/>
      <point x="430" y="247" type="curve" smooth="yes"/>
      <point x="347" y="247"/>
      <point x="274" y="186"/>
      <point x="274" y="92" type="curve" smooth="yes"/>
      <point x="274" y="30"/>
      <point x="314" y="-13"/>
    </contour>
    <contour>
      <point x="387" y="47" type="curve" smooth="yes"/>
      <point x="364" y="47"/>
      <point x="353" y="62"/>
      <point x="353" y="96" type="curve" smooth="yes"/>
      <point x="353" y="153"/>
      <point x="386" y="188"/>
      <point x="421" y="188" type="curve" smooth="yes"/>
      <point x="442" y="188"/>
      <point x="454" y="175"/>
      <point x="454" y="142" type="curve" smooth="yes"/>
      <point x="454" y="79"/>
      <point x="421" y="47"/>
    </contour>
  </outline>
</glyph>
<glyph name="prime" format="1">
	<unicode hex="2032"/>
	<advance width="600"/>
	<outline>
		<contour>
			<point x="249" y="368" type="line"/>
			<point x="338" y="368" type="line"/>
			<point x="418" y="550" type="line"/>
			<point x="470" y="687" type="line"/>
			<point x="335" y="687" type="line"/>
		</contour>
	</outline>
</glyph>
<glyph name="guilsinglleft" format="1">
  <advance width="600"/>
  <unicode hex="2039"/>
  <outline>
    <contour>
      <point x="316" y="29" type="line"/>
      <point x="385" y="80" type="line"/>
      <point x="301" y="258" type="line"/>
      <point x="299" y="235" type="line"/>
      <point x="453" y="419" type="line"/>
      <point x="404" y="474" type="line"/>
      <point x="203" y="311" type="line"/>
      <point x="183" y="201" type="line"/>
    </contour>
  </outline>
</glyph>
<glyph name="guilsinglright" format="1">
  <advance width="600"/>
  <unicode hex="203A"/>
  <outline>
    <contour>
      <point x="169" y="29" type="line"/>
      <point x="370" y="192" type="line"/>
      <point x="390" y="302" type="line"/>
      <point x="257" y="474" type="line"/>
      <point x="188" y="424" type="line"/>
      <point x="272" y="246" type="line"/>
      <point x="274" y="268" type="line"/>
      <point x="121" y="84" type="line"/>
    </contour>
  </outline>
</glyph>
<glyph name="fraction" format="1">
  <advance width="600"/>
  <unicode hex="2044"/>
  <outline>
    <contour>
      <point x="5" y="22" type="line"/>
      <point x="209" y="222" type="line"/>
      <point x="170" y="266" type="line"/>
      <point x="-51" y="90" type="line"/>
    </contour>
    <contour>
      <point x="382" y="373" type="line"/>
      <point x="602" y="549" type="line"/>
      <point x="546" y="617" type="line"/>
      <point x="344" y="417" type="line"/>
    </contour>
  </outline>
</glyph>
<glyph name="colonmonetary" format="1">
  <advance width="600"/>
  <unicode hex="20A1"/>
  <outline>
    <contour>
      <point x="289" y="-12" type="curve"/>
      <point x="382" y="-12"/>
      <point x="453" y="19"/>
      <point x="517" y="79" type="curve"/>
      <point x="452" y="167" type="line"/>
      <point x="413" y="126"/>
      <point x="370" y="100"/>
      <point x="315" y="100" type="curve" smooth="yes"/>
      <point x="252" y="100"/>
      <point x="208" y="148"/>
      <point x="208" y="244" type="curve" smooth="yes"/>
      <point x="208" y="394"/>
      <point x="288" y="541"/>
      <point x="414" y="541" type="curve" smooth="yes"/>
      <point x="462" y="541"/>
      <point x="494" y="514"/>
      <point x="518" y="480" type="curve"/>
      <point x="600" y="547" type="line"/>
      <point x="566" y="600"/>
      <point x="510" y="648"/>
      <point x="420" y="648" type="curve" smooth="yes"/>
      <point x="224" y="648"/>
      <point x="72" y="488"/>
      <point x="72" y="238" type="curve" smooth="yes"/>
      <point x="72" y="79"/>
      <point x="159" y="-12"/>
    </contour>
    <contour>
      <point x="142" y="-110" type="line"/>
      <point x="190" y="-110" type="line"/>
      <point x="462" y="746" type="line"/>
      <point x="416" y="746" type="line"/>
    </contour>
    <contour>
      <point x="233" y="-110" type="line"/>
      <point x="281" y="-110" type="line"/>
      <point x="553" y="746" type="line"/>
      <point x="506" y="746" type="line"/>
    </contour>
  </outline>
</glyph>
<glyph name="lira" format="1">
  <advance width="600"/>
  <unicode hex="20A4"/>
  <outline>
    <contour>
      <point x="17" y="0" type="line"/>
      <point x="459" y="0" type="line"/>
      <point x="480" y="115" type="line"/>
      <point x="222" y="115" type="line"/>
      <point x="224" y="119" type="line"/>
      <point x="280" y="169"/>
      <point x="305" y="218"/>
      <point x="305" y="297" type="curve" smooth="yes"/>
      <point x="304" y="330"/>
      <point x="297" y="373"/>
      <point x="297" y="405" type="curve" smooth="yes"/>
      <point x="297" y="504"/>
      <point x="339" y="537"/>
      <point x="396" y="537" type="curve" smooth="yes"/>
      <point x="432" y="537"/>
      <point x="462" y="518"/>
      <point x="485" y="487" type="curve"/>
      <point x="573" y="559" type="line"/>
      <point x="535" y="612"/>
      <point x="469" y="647"/>
      <point x="396" y="647" type="curve" smooth="yes"/>
      <point x="264" y="647"/>
      <point x="170" y="564"/>
      <point x="170" y="424" type="curve" smooth="yes"/>
      <point x="170" y="382"/>
      <point x="181" y="323"/>
      <point x="181" y="281" type="curve" smooth="yes"/>
      <point x="181" y="192"/>
      <point x="124" y="122"/>
      <point x="34" y="84" type="curve"/>
    </contour>
    <contour>
      <point x="83" y="340" type="line"/>
      <point x="464" y="340" type="line"/>
      <point x="478" y="408" type="line"/>
      <point x="177" y="408" type="line"/>
      <point x="95" y="404" type="line"/>
    </contour>
    <contour>
      <point x="59" y="221" type="line"/>
      <point x="440" y="221" type="line"/>
      <point x="454" y="290" type="line"/>
      <point x="153" y="290" type="line"/>
      <point x="71" y="285" type="line"/>
    </contour>
  </outline>
</glyph>
<glyph name="peseta" format="1">
  <advance width="600"/>
  <unicode hex="20A7"/>
  <outline>
    <contour>
      <point x="45" y="0" type="line"/>
      <point x="173" y="0" type="line"/>
      <point x="217" y="221" type="line"/>
      <point x="266" y="221" type="line" smooth="yes"/>
      <point x="414" y="221"/>
      <point x="552" y="300"/>
      <point x="552" y="471" type="curve" smooth="yes"/>
      <point x="552" y="591"/>
      <point x="470" y="636"/>
      <point x="348" y="636" type="curve" smooth="yes"/>
      <point x="173" y="636" type="line"/>
    </contour>
    <contour>
      <point x="235" y="308" type="line"/>
      <point x="283" y="550" type="line"/>
      <point x="321" y="550" type="line" smooth="yes"/>
      <point x="387" y="550"/>
      <point x="424" y="523"/>
      <point x="424" y="459" type="curve" smooth="yes"/>
      <point x="424" y="365"/>
      <point x="369" y="308"/>
      <point x="274" y="308" type="curve" smooth="yes"/>
    </contour>
    <contour>
      <point x="53" y="391" type="line"/>
      <point x="596" y="391" type="line"/>
      <point x="613" y="471" type="line"/>
      <point x="152" y="471" type="line"/>
      <point x="69" y="466" type="line"/>
    </contour>
  </outline>
</glyph>
<glyph name="dong" format="1">
  <advance width="600"/>
  <unicode hex="20AB"/>
  <outline>
    <contour>
      <point x="219" y="115" type="curve" smooth="yes"/>
      <point x="266" y="115"/>
      <point x="316" y="134"/>
      <point x="351" y="169" type="curve"/>
      <point x="355" y="169" type="line"/>
      <point x="356" y="125" type="line"/>
      <point x="442" y="125" type="line"/>
      <point x="547" y="654" type="line"/>
      <point x="436" y="654" type="line"/>
      <point x="408" y="513" type="line"/>
      <point x="399" y="442" type="line"/>
      <point x="375" y="466"/>
      <point x="345" y="484"/>
      <point x="295" y="484" type="curve" smooth="yes"/>
      <point x="189" y="484"/>
      <point x="81" y="402"/>
      <point x="81" y="259" type="curve" smooth="yes"/>
      <point x="81" y="167"/>
      <point x="133" y="115"/>
    </contour>
    <contour>
      <point x="263" y="205" type="curve" smooth="yes"/>
      <point x="222" y="205"/>
      <point x="200" y="229"/>
      <point x="200" y="277" type="curve" smooth="yes"/>
      <point x="200" y="351"/>
      <point x="253" y="392"/>
      <point x="305" y="392" type="curve" smooth="yes"/>
      <point x="336" y="392"/>
      <point x="357" y="384"/>
      <point x="378" y="364" type="curve"/>
      <point x="353" y="246" type="line"/>
      <point x="323" y="217"/>
      <point x="296" y="205"/>
    </contour>
    <contour>
      <point x="257" y="533" type="line"/>
      <point x="523" y="533" type="line"/>
      <point x="599" y="538" type="line"/>
      <point x="611" y="601" type="line"/>
      <point x="272" y="601" type="line"/>
    </contour>
    <contour>
      <point x="39" y="0" type="line"/>
      <point x="450" y="0" type="line"/>
      <point x="464" y="68" type="line"/>
      <point x="53" y="68" type="line"/>
    </contour>
  </outline>
</glyph>
<glyph name="Euro" format="1">
  <advance width="600"/>
  <unicode hex="20AC"/>
  <outline>
    <contour>
      <point x="309" y="-12" type="curve" smooth="yes"/>
      <point x="397" y="-12"/>
      <point x="474" y="19"/>
      <point x="538" y="78" type="curve"/>
      <point x="476" y="165" type="line"/>
      <point x="435" y="130"/>
      <point x="390" y="102"/>
      <point x="336" y="102" type="curve" smooth="yes"/>
      <point x="271" y="102"/>
      <point x="234" y="150"/>
      <point x="234" y="247" type="curve" smooth="yes"/>
      <point x="234" y="404"/>
      <point x="317" y="539"/>
      <point x="425" y="539" type="curve" smooth="yes"/>
      <point x="474" y="539"/>
      <point x="502" y="517"/>
      <point x="527" y="482" type="curve"/>
      <point x="612" y="553" type="line"/>
      <point x="576" y="605"/>
      <point x="524" y="647"/>
      <point x="439" y="647" type="curve" smooth="yes"/>
      <point x="248" y="647"/>
      <point x="95" y="495"/>
      <point x="95" y="236" type="curve" smooth="yes"/>
      <point x="95" y="77"/>
      <point x="182" y="-12"/>
    </contour>
    <contour>
      <point x="46" y="342" type="line"/>
      <point x="480" y="342" type="line"/>
      <point x="494" y="411" type="line"/>
      <point x="134" y="411" type="line"/>
      <point x="59" y="405" type="line"/>
    </contour>
    <contour>
      <point x="22" y="219" type="line"/>
      <point x="415" y="219" type="line"/>
      <point x="429" y="289" type="line"/>
      <point x="108" y="289" type="line"/>
      <point x="35" y="283" type="line"/>
    </contour>
  </outline>
</glyph>
<glyph name="tugrik" format="1">
  <advance width="600"/>
  <unicode hex="20AE"/>
  <outline>
    <contour>
      <point x="169" y="1" type="line"/>
      <point x="307" y="0" type="line"/>
      <point x="413" y="528" type="line"/>
      <point x="587" y="528" type="line"/>
      <point x="608" y="635" type="line"/>
      <point x="121" y="636" type="line"/>
      <point x="100" y="529" type="line"/>
      <point x="274" y="529" type="line"/>
    </contour>
    <contour>
      <point x="114" y="236" type="line"/>
      <point x="233" y="289" type="line"/>
      <point x="368" y="328" type="line"/>
      <point x="523" y="399" type="line"/>
      <point x="500" y="454" type="line"/>
      <point x="380" y="400" type="line"/>
      <point x="245" y="362" type="line"/>
      <point x="91" y="291" type="line"/>
    </contour>
    <contour>
      <point x="90" y="102" type="line"/>
      <point x="209" y="155" type="line"/>
      <point x="344" y="194" type="line"/>
      <point x="499" y="265" type="line"/>
      <point x="476" y="320" type="line"/>
      <point x="356" y="266" type="line"/>
      <point x="222" y="228" type="line"/>
      <point x="67" y="157" type="line"/>
    </contour>
  </outline>
</glyph>
<glyph name="guarani" format="1">
	<unicode hex="20B2"/>
	<advance width="600"/>
	<outline>
		<contour>
			<point x="279" y="-12" type="curve" smooth="yes"/>
			<point x="351" y="-12"/>
			<point x="423" y="6"/>
			<point x="486" y="48" type="curve"/>
			<point x="545" y="356" type="line"/>
			<point x="341" y="356" type="line"/>
			<point x="319" y="251" type="line"/>
			<point x="405" y="251" type="line"/>
			<point x="380" y="122" type="line"/>
			<point x="363" y="112"/>
			<point x="331" y="102"/>
			<point x="294" y="103" type="curve" smooth="yes"/>
			<point x="234" y="106"/>
			<point x="198" y="156"/>
			<point x="198" y="248" type="curve" smooth="yes"/>
			<point x="198" y="405"/>
			<point x="278" y="539"/>
			<point x="389" y="539" type="curve" smooth="yes"/>
			<point x="440" y="539"/>
			<point x="465" y="515"/>
			<point x="489" y="483" type="curve"/>
			<point x="575" y="554" type="line"/>
			<point x="537" y="608"/>
			<point x="483" y="647"/>
			<point x="406" y="647" type="curve" smooth="yes"/>
			<point x="197" y="647"/>
			<point x="59" y="484"/>
			<point x="59" y="245" type="curve" smooth="yes"/>
			<point x="59" y="85"/>
			<point x="135" y="-12"/>
		</contour>
		<contour>
			<point x="358" y="605" type="line"/>
			<point x="447" y="605" type="line"/>
			<point x="477" y="746" type="line"/>
			<point x="386" y="746" type="line"/>
		</contour>
		<contour>
			<point x="213" y="-114" type="line"/>
			<point x="303" y="-114" type="line"/>
			<point x="334" y="38" type="line"/>
			<point x="244" y="38" type="line"/>
		</contour>
	</outline>
</glyph>
<glyph name="tenge" format="1">
  <advance width="600"/>
  <unicode hex="20B8"/>
  <outline>
    <contour>
      <point x="169" y="0" type="line"/>
      <point x="307" y="0" type="line"/>
      <point x="394" y="436" type="line"/>
      <point x="569" y="436" type="line"/>
      <point x="583" y="511" type="line"/>
      <point x="187" y="511" type="line"/>
      <point x="95" y="505" type="line"/>
      <point x="81" y="436" type="line"/>
      <point x="256" y="436" type="line"/>
    </contour>
    <contour>
      <point x="106" y="561" type="line"/>
      <point x="594" y="561" type="line"/>
      <point x="608" y="635" type="line"/>
      <point x="121" y="635" type="line"/>
    </contour>
  </outline>
</glyph>
<glyph name="trademark" format="1">
  <advance width="600"/>
  <unicode hex="2122"/>
  <outline>
    <contour>
      <point x="93" y="363" type="line"/>
      <point x="179" y="363" type="line"/>
      <point x="229" y="611" type="line"/>
      <point x="144" y="611" type="line"/>
    </contour>
    <contour>
      <point x="283" y="363" type="line"/>
      <point x="362" y="363" type="line"/>
      <point x="382" y="466" type="line"/>
      <point x="396" y="580" type="line"/>
      <point x="400" y="580" type="line"/>
      <point x="422" y="424" type="line"/>
      <point x="478" y="424" type="line"/>
      <point x="562" y="580" type="line"/>
      <point x="566" y="580" type="line"/>
      <point x="533" y="466" type="line"/>
      <point x="514" y="363" type="line"/>
      <point x="592" y="363" type="line"/>
      <point x="654" y="676" type="line"/>
      <point x="557" y="676" type="line"/>
      <point x="504" y="579" type="line"/>
      <point x="468" y="506" type="line"/>
      <point x="464" y="506" type="line"/>
      <point x="457" y="579" type="line"/>
      <point x="443" y="676" type="line"/>
      <point x="346" y="676" type="line"/>
    </contour>
    <contour>
      <point x="65" y="603" type="line"/>
      <point x="302" y="603" type="line"/>
      <point x="316" y="676" type="line"/>
      <point x="81" y="676" type="line"/>
    </contour>
  </outline>
</glyph>
